<?xml version="1.0" encoding="utf-8"?>
<!-- Generator: Adobe Illustrator 21.1.0, SVG Export Plug-In . SVG Version: 6.00 Build 0)  -->
<svg version="1.1" id="Laag_1" xmlns="http://www.w3.org/2000/svg" xmlns:xlink="http://www.w3.org/1999/xlink" x="0px" y="0px"
	 width="126px" height="126px" viewBox="0 0 126 126" style="enable-background:new 0 0 126 126;" xml:space="preserve">
<style type="text/css">
	.st0{fill:#FFFFFF;}
	.st1{fill:#004A99;}
	.st2{fill:#B2B2B2;}
</style>
<path class="st0" d="M63,1.6C29.1,1.6,1.6,29.1,1.6,63s27.5,61.4,61.4,61.4s61.4-27.5,61.4-61.4S96.9,1.6,63,1.6z M63,106.6
	c-24.1,0-43.6-19.5-43.6-43.6S38.9,19.4,63,19.4s43.6,19.5,43.6,43.6S87.1,106.6,63,106.6z"/>
<circle class="st1" cx="63" cy="63" r="42.8"/>
<path class="st2" d="M63,0C28.2,0,0,28.2,0,63s28.2,63,63,63s63-28.2,63-63S97.8,0,63,0z M63,124.4C29.1,124.4,1.6,96.9,1.6,63
	S29.1,1.6,63,1.6s61.4,27.5,61.4,61.4S96.9,124.4,63,124.4z"/>
<path class="st2" d="M63,19.4c-24.1,0-43.6,19.5-43.6,43.6s19.5,43.6,43.6,43.6s43.6-19.5,43.6-43.6S87.1,19.4,63,19.4z M63,105.8
	c-23.6,0-42.8-19.2-42.8-42.8S39.4,20.2,63,20.2s42.8,19.2,42.8,42.8S86.6,105.8,63,105.8z"/>
<g>
	<path class="st2" d="M14.2,32.4l3.3-4.8l1.6,1.1L17,31.9l1.6,1.1l2.2-3.1l1.6,1.1l-2.2,3.1l2.3,1.6l2.2-3.1l1.6,1.1L23,38.5
		L14.2,32.4z"/>
	<path class="st2" d="M22.4,22.1l1.5-1.3l4.5,5.2c0.4,0.4,0.7,0.7,0.9,0.8c0.2,0.1,0.5,0.2,0.8,0.1c0.3,0,0.5-0.2,0.8-0.4
		c0.3-0.2,0.4-0.5,0.5-0.8s0.1-0.6,0-0.8c-0.1-0.3-0.4-0.7-0.8-1.2l-4.4-5l1.5-1.3l4.2,4.8c0.7,0.8,1.2,1.4,1.3,1.8
		c0.2,0.4,0.3,0.8,0.3,1.4c0,0.5-0.1,1-0.3,1.4s-0.5,0.8-1,1.2c-0.6,0.5-1.2,0.8-1.9,0.9s-1.3,0-1.8-0.2s-1.2-0.8-2.1-1.8L22.4,22.1
		z"/>
	<path class="st2" d="M34.6,12.9l1.9-1c1.1-0.5,1.8-0.8,2.4-0.8c0.5,0,1.1,0.1,1.5,0.4c0.5,0.3,0.9,0.7,1.2,1.3s0.4,1.2,0.3,1.8
		c-0.1,0.6-0.4,1.1-0.9,1.6l4.4,3.1l-2,1l-4.2-3L39,17.4l2,4l-1.8,0.9L34.6,12.9z M38.3,15.7l0.6-0.3c0.6-0.3,0.9-0.6,1.1-0.8
		c0.1-0.3,0.1-0.6,0-0.9c-0.1-0.2-0.2-0.4-0.4-0.5s-0.4-0.1-0.6-0.1c-0.2,0-0.6,0.2-1,0.4l-0.5,0.2L38.3,15.7z"/>
	<path class="st2" d="M53,6.1c1.5-0.3,2.8,0.1,4.1,0.9c1.3,0.9,2,2.1,2.3,3.6s0,2.9-0.9,4.2c-0.9,1.2-2,2-3.5,2.3
		c-1.6,0.3-3,0-4.2-0.9s-2-2.1-2.2-3.6c-0.2-1-0.1-2,0.2-2.9c0.2-1,0.8-1.7,1.6-2.4C51.1,6.7,52,6.3,53,6.1z M53.3,8.1
		c-1,0.2-1.7,0.6-2.3,1.4c-0.5,0.8-0.7,1.7-0.5,2.7c0.2,1.2,0.8,2,1.7,2.5c0.7,0.4,1.5,0.5,2.4,0.4c0.9-0.2,1.7-0.6,2.2-1.4
		c0.5-0.8,0.7-1.7,0.6-2.7c-0.2-1-0.7-1.8-1.4-2.4S54.2,7.9,53.3,8.1z"/>
	<path class="st2" d="M66.3,5.5l2.1,0.2c1.2,0.1,2,0.3,2.5,0.6C71.4,6.6,71.8,7,72,7.5s0.3,1.1,0.3,1.8c-0.1,0.7-0.3,1.3-0.8,1.8
		c-0.4,0.4-1,0.7-1.7,0.9c-0.4,0.1-1.1,0-2.1-0.1l-0.5,4.5l-2-0.2L66.3,5.5z M67.9,9.9l0.6,0.1c0.5,0.1,0.9,0.1,1.1,0
		s0.4-0.2,0.5-0.3c0.1-0.2,0.2-0.3,0.2-0.6c0-0.4-0.1-0.7-0.4-0.9c-0.2-0.2-0.6-0.3-1.3-0.3L68,7.8L67.9,9.9z"/>
	<path class="st2" d="M79.9,8l5.5,2l-0.7,1.9l-3.6-1.3l-0.6,1.8l3.6,1.3l-0.7,1.8l-3.6-1.3l-0.9,2.6l3.6,1.3L81.8,20l-5.5-2L79.9,8z
		"/>
	<path class="st2" d="M94.9,15.1l1.7,1.2l-2.7,11.1l-1.7-1.2l0.6-2.3l-3.6-2.5l-2,1.3l-1.7-1.2L94.9,15.1z M94.1,18.1l-3.2,2.2
		l2.3,1.6L94.1,18.1z"/>
	<path class="st2" d="M105.5,24l1.2,1.5l-2.7,7.9l5.5-4.3l1.3,1.6l-8.4,6.6l-1.2-1.5l2.7-7.9l-5.5,4.3l-1.3-1.6L105.5,24z"/>
</g>
<g>
	<path class="st2" d="M20.3,84.1l2.9,5.1l-1.7,1l-1-1.7L13,92.8L12,91l7.5-4.3l-0.9-1.6L20.3,84.1z"/>
	<path class="st2" d="M24.7,91.3l1.4,1.6c0.8,0.9,1.2,1.6,1.4,2.1c0.2,0.5,0.2,1,0,1.6s-0.5,1-1,1.5s-1.1,0.7-1.7,0.7
		s-1.2-0.1-1.8-0.5l-2,5l-1.4-1.7l1.9-4.7l-0.1-0.1L18,99.7l-1.3-1.5L24.7,91.3z M22.9,95.6l0.4,0.5c0.4,0.5,0.8,0.8,1.1,0.9
		c0.3,0.1,0.6,0,0.9-0.3c0.2-0.2,0.3-0.3,0.3-0.5c0.1-0.2,0-0.4,0-0.6c-0.1-0.2-0.3-0.5-0.6-0.9l-0.4-0.4L22.9,95.6z"/>
	<path class="st2" d="M31.1,98.3l4.5,3.7l-1.2,1.5l-3-2.4l-1.2,1.5l3,2.4l-1.2,1.5l-3-2.4l-1.8,2.2l3,2.4l-1.3,1.5l-4.5-3.7
		L31.1,98.3z"/>
	<path class="st2" d="M38,103.5l5.1,2.8l-0.9,1.7l-3.3-1.8l-0.9,1.7l3.3,1.8l-0.9,1.7l-3.3-1.8l-1.3,2.5l3.3,1.8l-1,1.7l-5.1-2.8
		L38,103.5z"/>
	<path class="st2" d="M50,109.1l2,0.3l0.6,6.9l2.8-6.5l1.7,0.2l0.9,7l2.5-6.5l2,0.3L58.6,121l-1.9-0.3l-1-7.1l-2.9,6.5l-1.9-0.3
		L50,109.1z"/>
	<path class="st2" d="M69.1,109.8c1.5-0.2,2.8,0.2,4.1,1.1c1.2,0.9,1.9,2.2,2.1,3.7s-0.2,2.9-1.1,4.1s-2.1,1.9-3.6,2.1
		c-1.6,0.2-3-0.2-4.2-1.1c-1.2-1-1.9-2.2-2.1-3.7c-0.1-1,0-2,0.4-2.9s1-1.7,1.8-2.3C67.3,110.3,68.2,109.9,69.1,109.8z M69.4,111.8
		c-1,0.1-1.8,0.6-2.3,1.3c-0.6,0.8-0.8,1.7-0.7,2.7c0.2,1.2,0.7,2,1.6,2.6c0.7,0.4,1.5,0.6,2.3,0.5c1-0.1,1.7-0.6,2.3-1.3
		c0.6-0.8,0.8-1.7,0.7-2.7c-0.1-1-0.6-1.8-1.3-2.4C71.2,111.9,70.3,111.7,69.4,111.8z"/>
	<path class="st2" d="M77,108.5l2-0.8c1.1-0.4,1.9-0.6,2.5-0.6c0.5,0,1,0.2,1.5,0.6c0.5,0.3,0.8,0.8,1,1.5s0.3,1.3,0.2,1.8
		c-0.1,0.6-0.5,1.1-1,1.5l4,3.5l-2.1,0.8l-3.8-3.4l-0.2,0.1l1.6,4.2l-1.9,0.7L77,108.5z M80.4,111.6l0.6-0.2c0.6-0.2,1-0.5,1.2-0.7
		s0.2-0.5,0-0.9c-0.1-0.2-0.2-0.4-0.4-0.5c-0.2-0.1-0.4-0.2-0.6-0.2s-0.6,0.1-1.1,0.3l-0.5,0.2L80.4,111.6z"/>
	<path class="st2" d="M85.6,104.9l1.7-1.1l2,3.1l0.5-4.6l2.1-1.3l-0.6,6l6.6,2.8l-2,1.3l-5.3-2.2l2.5,4l-1.7,1.1L85.6,104.9z"/>
	<path class="st2" d="M93.9,99.2l4.2-4l1.4,1.4l-2.7,2.6l1.3,1.4l2.7-2.6l1.3,1.4l-2.7,2.6l1.9,2l2.7-2.6l1.4,1.4l-4.2,4L93.9,99.2z
		"/>
	<path class="st2" d="M100,92.9l1.2-1.8c0.7-1,1.3-1.6,1.7-1.9c0.5-0.3,1-0.4,1.6-0.4s1.1,0.2,1.7,0.6s0.9,0.9,1.1,1.4
		s0.2,1.2,0,1.9l5.3,0.7l-1.3,1.8l-5.1-0.7l-0.1,0.2l3.7,2.6l-1.2,1.7L100,92.9z M104.6,93.6l0.4-0.5c0.4-0.5,0.6-0.9,0.6-1.2
		c0-0.3-0.2-0.6-0.5-0.8c-0.2-0.1-0.4-0.2-0.6-0.2s-0.4,0.1-0.6,0.2s-0.4,0.4-0.7,0.8l-0.3,0.5L104.6,93.6z"/>
</g>
<path class="st2" d="M82.5,45.4c0.3,0.1,0.7-0.1,0.7-0.1s0.3-0.4,0.3-0.8c0-0.4-0.4-0.6-0.8-0.6c0,0-0.4-0.1-0.6-0.1
	s-0.3,0.4-0.3,0.9C81.8,45.1,82.2,45.3,82.5,45.4z M74.8,43.8c0,0-0.3,0.3-0.4,0.7s0.1,0.3,0.4,0.7s0.6-0.2,0.7-0.4
	c0.2-0.2,0.3-0.7,0.2-1.1C75.6,43.3,75.1,43.6,74.8,43.8z M85.7,50.6c0.3,0.1,0.3-0.6,0.1-1c-0.2-0.3-0.6-0.2-0.8,0
	c0,0-0.3,0.4-0.2,0.6C84.8,50.5,85.3,50.5,85.7,50.6z M76.1,40.4c0.2,0.3,0.6,0.4,0.7,0.6c0.1,0.2,0.5-0.3,0.9-0.4
	c0.3-0.2,0.6-0.6,0.9-0.9c0.2-0.3,0-0.6-0.2-0.7c-0.2-0.1-0.5,0.3-0.5,0.3s-0.2,0.2-0.5,0.4C77,40,77.1,39.3,77.1,39
	s0.2-0.5,0.2-0.7s-0.2-0.5-0.4-0.6c-0.2-0.1-0.5-0.1-0.7,0c0,0-0.3,0.5-0.4,0.9c-0.2,0.4,0,0.5,0.1,0.7C75.8,39.4,75.9,40,76.1,40.4
	z M75,41.7c0,0.2,0.3,0.8,0.6,1c0.2,0.2,0.8,0.4,0.9,0.2c0.2-0.1,0.1-0.6,0-0.8c0-0.2-0.1-0.4-0.3-0.7C76,41,75.7,41,75.4,41h-0.5
	C74.9,41,74.9,41.4,75,41.7z M79.8,42.9c-0.2,0.3-0.1,0.6,0,1s0.4,0.4,0.7,0.4c0.2,0,0.7-0.7,0.9-1c0.2-0.3,0-0.7-0.2-0.9
	s-0.5-0.1-0.6-0.1C80.5,42.3,80,42.6,79.8,42.9z M87,58.1c-0.4-0.2-0.7-0.4-1-0.5c-0.3-0.2-1.3-0.1-1.3-0.1c0.1,0.1,0.2,0.3,0.4,0.6
	c0.1,0.3-0.1,0.5,0.4,0.8s1.2,0.5,1.4,0.2C87.1,58.8,87.4,58.3,87,58.1z M79.7,59.5c0.2,0,1-0.4,0.9-0.7c0-0.3-0.3-0.8-0.3-0.8
	c-0.2-0.1-0.4-0.2-0.6-0.3s-0.3-0.3-0.5,0.1c-0.2,0.5-0.3,1-0.2,1.1C79.1,59,79.5,59.5,79.7,59.5z M77.5,58.2c0.3,0.2,0.4-0.5,0.8-1
	c0.3-0.5-0.2-0.6-0.4-0.7c0,0-0.4-0.1-0.6,0s-0.6,0.1-0.8,0.2c-0.2,0.1,0.2,0.6,0.3,0.9C76.8,57.8,77.2,58.1,77.5,58.2z M84.9,54.3
	c-0.1-0.1-0.1-0.2-0.2-0.3c-0.1-0.3-0.2-0.1-0.4-0.2c-0.1-0.1-0.3-0.3-0.4-0.3c0,0-0.2,0-0.4-0.1c0.1-0.2,0-0.4,0.1-0.6
	c0.1-0.3-0.2-0.7-0.3-0.9c-0.1-0.2-0.4-0.3-0.6-0.5s-0.7-0.4-1-0.3c-0.3,0.1-0.7,0.1-0.9,0.3c-0.2,0.2-0.3,0.5-0.1,1
	c0.1,0.4,0.7,0.1,0.7,0.1s0.3,0,0.7,0.1c0.4,0.1,0.4,0.2,0.4,0.6c0,0.1,0,0.3-0.1,0.4c-0.6-0.2-1.2-0.5-1.4-0.4
	c-0.3,0.1-0.4,0.5-0.4,0.5c-0.1,0.3-0.3,0.8,0,1c0.3,0.1,0.7,0.3,1,0.3c0.3,0.1,0.5,0.1,0.9,0.1c0.3,0,0.6,0.1,0.7-0.1
	c0,0,0-0.1,0.1-0.1s0.3,0,0.4,0.1c0.1,0,0.2,0,0.3,0c0.3,0,0.5,0,0.7,0.1c0.3,0,0.7,0.1,1.1-0.2s0.7-0.2,1.2-0.3
	c0.4-0.2,0.2-0.7,0-0.9s-0.4-0.4-0.7-0.3c-0.2,0-0.5,0.3-0.7,0.5C85.3,53.8,85.1,54,84.9,54.3z M72.4,40c0.6-0.2,0.3-0.8,0.2-1.2
	c-0.1-0.4-0.2-0.5-0.5-0.6c0,0-0.4,0.3-0.6,0.4c-0.2,0.1-0.1,0.4,0,0.7C71.6,39.7,71.8,40.2,72.4,40z M63.3,36.2
	c0.4-0.4-0.1-0.6-0.2-0.7c-0.1-0.2-0.3-0.2-0.7-0.2c0,0-0.5-0.3-0.8,0c-0.3,0.2,0.3,0.8,0.4,1.1C62.3,36.6,62.9,36.7,63.3,36.2z
	 M55.8,35.9c0.3,0,0.2-0.4,0.1-0.8c0-0.4,0.6-0.7,0.9-0.8c0.4-0.1,0.3-0.7,0.2-0.9s-1,0.1-1.3,0.2c-0.3,0-0.7,0.4-1.1,0.6
	c0,0-0.1,0.8,0.1,1.3C55,36,55.5,36,55.8,35.9z M72.3,36.6c0.3-0.3,0.3-0.5,0.2-0.8l-0.3-0.3c0,0-0.5,0.6-0.5,0.9
	C71.7,36.6,72,36.8,72.3,36.6z M79.1,48c0,0-0.4,0-0.8,0.2c-0.3,0.2-0.3,0.5-0.2,1.1c0.1,0.5,0.4,0.4,0.9,0.3
	c0.4-0.1,0.5-0.4,0.5-0.9C79.4,48.2,79.1,48,79.1,48z M53.5,57.2c0.3-0.3,0-0.4-0.8-0.4c0,0-0.4-0.1-0.6-0.1c-0.2,0-0.4,0.1-0.6,0.3
	c-0.2,0.2,0.4,0.6,1,0.7C53.1,57.7,53.2,57.5,53.5,57.2z M46.2,59.1c0.4-0.4,0.4-0.6,0-0.8s-1.3,0-1.3,0c-0.4,0.4-0.7,0.5,0,0.7
	C45.6,59.2,45.9,59.5,46.2,59.1z M58,53.1c0.4,0.3,0.9-0.6,1.1-0.9c0.2-0.4,0.1-0.7-0.3-0.9c-0.4-0.2-0.6-0.1-1,0s-0.7,0.2-1,0.3
	c0,0-0.1,0.4-0.1,0.6C56.7,52.6,57.6,52.8,58,53.1z M62.6,34.7c0.2,0.1,0.4,0.3,0.8,0.3c0.4,0,0.2-0.6,0.1-1
	c-0.1-0.4-0.1-0.5-0.2-0.7c-0.1-0.2-0.4-0.2-0.7-0.1c0,0-0.7,0.2-0.7,0.6C62,34.3,62.4,34.6,62.6,34.7z M70.8,36.3
	c0.4-0.1,0.6-0.7,0.5-1c-0.1-0.4-0.7-0.4-0.9-0.4c0,0-0.3,0.1-0.5,0.3c-0.2,0.1-0.1,0.6,0,1C70,36.4,70.4,36.4,70.8,36.3z
	 M67.7,36.8c0.6,0.3,0.3-0.5,0.2-0.8c-0.1-0.3,0.1-0.1,0.8-0.2c0.7-0.1,0.3-0.4,0.4-0.7s0-0.6-0.1-0.8S68.2,34,68,34
	s-0.7,0.3-0.7,0.3s-0.1,0-0.2,0.3c-0.2,0.2-0.3,0.7-0.2,1C66.9,35.9,67,36.5,67.7,36.8z M69.5,49.1c-0.2,0-0.4,0-0.8,0.1
	c-0.4,0-1,0.2-1.2,0.4c0.1,0.2,0.4,0.7,0.5,0.9s1.3,0.1,1.8,0.1s0.4-0.6,0.4-1C70.1,49.1,69.7,49.1,69.5,49.1z M56.6,41.8
	c0.2,0.5,0.4,0.2,0.9,0.1c0.5,0,0.6-0.1,1-0.2c0.4-0.1,0-0.6-0.2-0.9c-0.2-0.3-0.3-0.3-0.8-0.4c0,0-0.6,0.2-1,0.4
	C56.2,41.1,56.5,41.3,56.6,41.8z M81.1,47.4c0.3-0.5-0.5-0.6-0.7-0.6c-0.2-0.1-0.5-0.2-0.8-0.1c0,0-0.4,0.5-0.3,0.7s0.5,0.4,1.1,0.7
	C81,48.5,80.8,48,81.1,47.4z M52,52.7c0.1-0.4-0.7-0.3-1-0.3c0,0-0.6,0.2-0.7,0.3c-0.1,0.1,0.5,0.6,0.7,0.8
	C51.2,53.6,51.9,53.1,52,52.7z M56.1,45.6c0.7,0.1,0.4-0.7,0.3-0.9c-0.1-0.2-0.5-0.5-0.8-0.7c0,0-0.3,0.1-0.6,0.3
	c-0.3,0.3,0,0.4,0.1,0.8C55.1,45.5,55.4,45.5,56.1,45.6z M58,45.9c0.4,0.2-0.1-0.6-0.2-0.9l-0.2-0.4c0,0-0.3,0.4-0.2,0.7
	C57.4,45.5,57.6,45.7,58,45.9z M48.3,40.7c-0.2,0.4,0,0.5,1.8,0.3s0.8-1,0.7-1.4s-0.4-0.3-0.8-0.4c-0.4,0-0.6,0.3-0.8,0.6
	C49.1,39.8,48.5,40.3,48.3,40.7z M70.2,40.1c0,0-0.4,0.6-0.2,1.6c0.1,1,0.3,0.2,1-0.2c0.7-0.5,0-0.7,0-1.1
	C71,39.9,70.6,39.9,70.2,40.1z M68.1,42.9c0,0-0.6,0.4-0.7,0.7c0,0.2,0.4,0.6,0.6,0.7c0.3,0.1,1-0.6,1.2-0.9
	c0.2-0.3,0.3-0.7,0.1-1.1C69.3,41.9,68.5,42.7,68.1,42.9z M61.2,38.8c0.5,0.2,0.1-0.5,0-0.9s-0.2-0.5-0.6-0.5c0,0-0.8-0.3-1.1-0.2
	s-0.1,0.4,0.6,0.9S60.7,38.7,61.2,38.8z M58.2,35.3c0,0,0.5,0.8,0.8,1s0.3-0.5,0.2-0.9s-0.2-0.3-0.7-0.5v-0.1L58.2,35.3z M62.1,46.4
	c0-0.5,0-0.6-0.2-0.9c0,0-0.6,0-0.8,0.3s-0.3,0.6-0.3,1.1s0.2,0.7,0.6,0.9C61.8,48.1,62.1,46.9,62.1,46.4z M59.8,41.8
	c0,0-0.6,0.1-0.7,0.4c-0.2,0.3,0.6,0.4,0.9,0.5C60.3,42.8,60,42.1,59.8,41.8z M49,52.8c0.4-0.1,0.5-0.3,0.5-0.6s-0.4-0.4-0.7-0.5
	s-0.7,0.2-1,0.4c0,0-0.7,0.3-0.8,0.7s0.3,0.4,0.6,0.5C47.7,53.3,48.6,52.8,49,52.8z M78.4,53.6c-0.3,0.1-0.6,0.3-0.8,0.7
	c0,0,0.1,0.3,0.4,0.3s0.4,0,0.7,0.1c0.3,0.1,0.4,0.1,0.8-0.1c0.4-0.1,0.1-0.5-0.2-0.9C79,53.3,78.6,53.6,78.4,53.6z M73.8,53.2
	c0.2-0.3,0.3-0.4,0.3-0.8c0-0.3-0.2-0.6-0.4-0.8c-0.2-0.2-0.2-0.2-0.5-0.5c-0.2-0.2-0.3-0.3-0.4-0.6s0.2-0.4,0.7-0.7
	s0.4-0.4,0.3-0.7S73,49,72.8,49s-0.5,0-0.7,0.1s-0.2,0.4-0.5,0.8c-0.3,0.4-0.2,0.2-0.7,0.7c-0.5,0.4-0.5,0.6-0.4,0.9
	c0.1,0.3,0.3,0.4,0.6,0.5c0.3,0.2,0.9,0.2,1.3,0.2c0.4,0.1,0.5,0.3,0.5,0.7c0.1,0.3-0.1,0.3-0.3,0.6c-0.2,0.3,0,0.4,0.3,0.7
	c0,0,0.6-0.1,0.4-0.4C73.2,53.6,73.6,53.5,73.8,53.2z M67.4,49.6C67.4,49.5,67.5,49.5,67.4,49.6C67.5,49.5,67.4,49.5,67.4,49.6
	L67.4,49.6z M74.1,53.9c0,0.3,0.1,0.6,0.4,0.8s0.9-0.1,1.2-0.2c0.3,0,0.3-0.5,0.1-0.7c-0.1-0.3-0.4-0.5-0.5-0.7c0,0,0-1.1,0-1.4
	c0-0.4-0.3-0.4-0.7-0.4c-0.4,0-0.3,0.4-0.1,0.8c0.2,0.4-0.1,0.7-0.2,1.1C74.1,53.5,74.1,53.6,74.1,53.9z M82.4,56.2
	c0.4,0,0.5,0.1,1,0.3s0.7,0.3,1.3,0.3c0.7,0,0.8,0.3,1.4,0s1.4-0.4,0.9-0.7c-0.5-0.2-1.1-0.5-1.7-0.4s-0.5,0.2-1.3-0.1
	c-0.8-0.2-1.1-0.6-1.7-0.4c-0.6,0.2-1.7,0.2-2.2,0.3s-0.5,0.2-1,0c-0.5-0.3-1.6-0.3-2.1-0.4c-0.5,0-1.4-0.1-2-0.1s-1.8,0-2.5,0.2
	s-0.9,0.1-1-0.3c-0.1-0.4,0.2-0.7-0.1-1c-0.3-0.2,0.1-0.7-1-0.8s-1.2-0.1-1.1-0.6c0.1-0.4,0.3-0.7-0.3-0.7c-0.6,0.1-1.3,0.4-1.5,0.2
	s-0.6-0.6-0.6-0.8s-0.3-0.7-0.3-0.9c-0.1-0.2-0.4-1-0.1-1s0.9-0.3,1.6-0.5c0.6-0.2,1.4-0.2,1.8-0.3c0.5-0.1,1.4-0.2,1.7-0.2
	c0.3,0,0.7-0.1,1.1-0.1s0.5-0.2,1-0.1c0.4,0.2,0.8,0.3,1,0.6c0.2,0.4,0.5,0.5,0.5,0.9s0,0.6,0.2,0.9c0.2,0.3,0.5,0.7,1,0.8
	c0.4,0.1,0.9,0.4,1.3,0.3c0.4-0.1,1.3-0.2,1.6-0.4c0.3-0.2,0.7-0.3,0.9-0.4c0.2-0.1,0.3-0.5,0.6-0.5c0.3-0.1,1-0.4,1.3-0.2
	s0.6,0.4,0.9,0.5s0.7,0.3,1,0.6c0.4,0.3,0.6,0.5,0.9,0.7c0.3,0.1,0.9,0.5,1,0s0.1-0.7-0.3-1c-0.5-0.3-1.4-0.7-1.6-0.8
	s-0.8-0.2-0.6-0.7c0.2-0.5,0.5-0.6,0.4-1c-0.1-0.3,0.1-0.6-0.9-0.4c-1,0.2-0.9,0.4-0.9,0.7s0.2,0.6-0.5,0.7
	c-0.7,0.1-0.9,0.2-1.1,0.4s-0.3,0.2-1,0.4s-1.1,0.4-1.5,0.3c-0.4-0.1-0.7-0.1-0.9-0.5c-0.3-0.4-0.5-0.6-0.7-0.9
	c-0.2-0.3-0.5-0.7-0.3-0.9C75.9,48,76,48,76.3,48s1.1,0,1.2-0.4c0-0.5,0.1-1.3,0.5-1.5c0.5-0.1,0.6-0.1,1-0.1c0.3,0,0.5,0.1,0.9,0.1
	c0.4,0.1,0.6,0.3,1,0c0.5-0.2,0.5-0.3,0.8-0.1c0.2,0.2,0.2,0.4,0.6,0.6c0.4,0.2,0.9,0.6,1.2,0.6c0.3,0,1-0.3,0.8-0.6
	s-0.9-0.6-1.1-0.7c-0.2-0.1-0.9-0.1-1.1-0.4c-0.2-0.3-0.4-0.8-0.7-0.5c-0.4,0.2-0.9,0.6-1.4,0.5c-0.4-0.1-0.5-0.4-0.7-0.5
	c-0.3-0.1-0.5-0.1-0.7-0.4c-0.2-0.3,0-0.7-0.1-1s-0.4-0.9-0.2-1.1c0.2-0.2,0.4-0.4,0.7-0.4c0.3,0,0.6,0,0.9,0s0.5,0.1,0.7-0.3
	c0.2-0.4,0.3-0.4,0-0.6c-0.3-0.2-0.4-0.7-0.8-0.6c-0.4,0.1-0.8,0.1-1.1,0.4c-0.3,0.3-0.8,0.7-1,0.9s-0.2,0.9-0.2,1.1
	c0,0.2,0.1,0.5,0.2,0.8c0,0.3,0.2,0.8-0.3,0.9c-0.5,0.1-0.8-0.3-1,0c-0.2,0.4-0.6,0.8-0.5,1s0.4,0.6,0.2,0.8c-0.2,0.3-0.8,0.8-1,0.6
	c-0.3-0.2-0.4-0.5-0.8-0.3s-1.9,1-2.2,1c-0.3,0-0.9-0.1-0.9-0.3s0-0.6,0.1-0.8s0.4-0.5,0.9-0.5s1.2-0.1,1.2-0.1s0.6,0,0.7-0.4
	s-0.4-1.2-0.5-0.9c-0.2,0.2-0.8,0.5-1.1,0.6c-0.3,0-0.2-0.2-0.8,0.1c-0.6,0.3-0.8,0.3-0.8,0.7c-0.1,0.4-0.1,0.4-0.1,0.8
	c0,0.4,0.1,0.9-0.4,0.8c-0.5-0.1-0.5-0.1-0.9-0.5s-0.9-0.6-0.8-1s0.1-0.6,0.5-0.6s0.9,0,1-0.4s0.2-0.5,0.4-0.8
	c0.2-0.3,0-0.8,0.5-0.8s0.8,0,1.1,0c0.4,0,0.5,0,0.9,0s0.9,0.2,1.3,0c0.4-0.3,0.8-0.7,0.8-0.9s-0.1-0.4-0.3-0.8
	c-0.2-0.5-0.3-0.6-0.3-1s-0.1-0.8,0-1.2s0.1-0.5-0.1-0.9c-0.1-0.3-0.6-0.8-0.2-0.9c0.4-0.2,0.4-0.1,0.9-0.1c0.4,0,0.7-0.2,0.5-0.5
	c-0.3-0.3-0.5-0.7-1.2-0.6c-0.7,0.1-0.8-0.1-1,0.2s-0.3,0.7-0.1,1c0.2,0.3,0.4,0.2,0.5,0.6c0.1,0.3,0.1,0.7,0.1,1.1
	c0,0.4-0.3,1.1-0.6,1.2c-0.3,0-0.7,0.1-0.7,0.5c0,0.5,0.2,0.7-0.4,1c-0.5,0.2-1.1,0.4-1.2,0.5c-0.2,0.2-0.6,0.6-0.8,1
	c-0.3,0.4-0.5,0.5-0.9,0.8S69,45,68.5,45c-0.4,0-0.7,0.1-0.9,0.4c-0.3,0.3-0.4,0.6-0.6,0.4c-0.2-0.1-0.4-0.1-0.3-0.5
	c0.1-0.5,0.4-0.6,0.6-0.9c0.2-0.2,0.3-0.2,0.2-0.5c-0.1-0.3,0-0.5-0.3-0.8s-0.6-0.6-0.2-0.7c0.4-0.2,0.4-0.3,0.9-0.2
	c0.4,0,0.5,0.1,0.8,0.1s0.3,0,0.7-0.3c0.4-0.3,0.8-0.2,0.7-0.6c-0.1-0.5,0.2-0.6-0.3-0.8s-0.9-0.7-1.3-0.5s-0.9,0.4-0.4,0.6
	c0.5,0.2,1,0.4,0.5,0.6c-0.5,0.2-1.1,0-1.4,0.2c-0.3,0.1-0.6,0-0.8,0.3c-0.2,0.3-0.8,0.7-0.7,1.2c0.1,0.4,0.4,0.6,0.6,1
	s0.4,0.5,0.1,0.9s-0.4,0.4-0.5,0.7s0.2,0.5-0.2,0.7c-0.3,0.2-0.5,0.4-0.9,0.3c-0.3-0.2-0.7-0.3-0.7-0.7c0-0.5-0.1-0.8,0.2-1.2
	c0.3-0.4,0.6-0.8,0.6-0.9c0.1-0.1,0.2-0.5,0.2-0.7s0.1-0.4-0.3-0.5c-0.3-0.1-0.6,0-0.5-0.3s0.1-0.6,0.6-0.7c0.4,0,1.1-0.1,1.1-0.3
	c0.1-0.2,0.1-0.4,0.2-0.7s0.2-0.8,0.6-0.8s0.7-0.2,1.1-0.2c0.3,0,0.6-0.2,0.8-0.4c0.2-0.2,0.2-0.3,0.7-0.2c0.6,0.1,0.5,0.3,0.9,0.5
	c0.4,0.1,0.6,0.3,0.8-0.3c0.3-0.5,0.8-0.9,0.4-1.1c-0.3-0.2-0.9-0.7-1.1-0.4s-0.3,0.6-0.7,0.5c-0.5-0.1-0.6-0.4-0.8-0.4
	c-0.1,0,0,0-0.3,0.3s-0.4,0.6-0.7,0.5C67,38.2,67,38.7,66.7,38s0.1-1.2-0.5-1.6c-0.6-0.3-0.8-0.6-0.6-0.7c0.2-0.1,0.5-0.3,0.6-0.7
	c0.1-0.5-0.5-0.9-0.7-0.8c-0.2,0.1-0.4,0.3-0.7,0.7c-0.3,0.5-0.5,0.8-0.2,1.1c0.3,0.4,0.4,0.4,0.7,0.8c0.3,0.4,0.1,0.6,0.3,1
	c0.2,0.4,0.3,0.6,0.2,0.8c-0.1,0.3-0.6,0.7-0.7,1.1c-0.1,0.4-0.2,0.5-0.5,0.6c-0.3,0-1,0.5-0.9-0.1s0.3-0.7-0.1-0.9
	c-0.3-0.2-0.8-0.2-0.8-0.6c0-0.4-0.1-0.7,0.2-0.8c0.3,0,0.6-0.1,0.8-0.1s0.5-0.2,0.5-0.5c-0.1-0.3-0.6-0.9-0.8-0.6
	c-0.2,0.3-0.6,0.3-0.8,0.4c-0.1,0.1-0.4,0.2-0.6-0.2c-0.2-0.4-0.5-0.6-0.6-0.9c0-0.3-0.5-1-0.6-1.1s-0.8-0.3-0.9-0.6
	c-0.2-0.3-0.4-1.3-0.8-1.2c-0.3,0-0.7,0.4-0.8,0.6c-0.1,0.2-0.6,0.4-0.3,0.6c0.3,0.2,0.6,0.3,0.9,0.5c0.3,0.2,0.5-0.1,0.7,0.4
	s0.3,0.7,0.5,1.1c0.2,0.4,0.5,0.4,0.8,0.7c0.4,0.3,0.6,0.6,0.7,0.8c0.1,0.2-0.1,0.3,0.2,0.7s0.6,0.8,0.6,1c0,0.3,0.4,0.9,0.2,1.3
	c-0.3,0.4-0.6,0.4-0.9-0.1c-0.3-0.5-0.2-0.9-0.6-0.7c-0.4,0.2-0.4,0.4-0.8,0.3c-0.4-0.1-0.6-0.2-0.5-0.6c0.1-0.4,0.3-0.2,0-0.7
	s-0.6-0.7-1-1c-0.3-0.3-0.6-0.4-0.8-1s-0.3-0.8-0.4-1.1c-0.1-0.3-0.1-0.9-0.6-1c-0.6-0.1-1,0.1-0.8,0.5s0.4,0.2,0.6,0.8
	c0.2,0.5,0.3,0.3,0.2,0.8s-0.5,1,0.1,1.3s0.4,0.1,0.7,0.4c0.4,0.3,0.6,0.4,0.6,0.9c0,0.4-0.1,0.7,0.3,1.1c0.4,0.4,1,0.3,1.4,0.6
	s0.8,0.1,0.5,0.8c-0.2,0.6-0.3,0.8-0.3,1.2s0,0.7,0.3,1c0.4,0.3,0.9,0.3,1.1,0.6c0.2,0.3,0.5,0.7,0.5,0.8s0.2,0.7,0.1,1.1
	c-0.1,0.4,0,0.1-0.2,0.9c-0.3,0.8-0.4,0.8-0.2,1.3s0.7,0.6,0,0.8s-0.9,0.6-1.3-0.1c-0.4-0.7-0.6-0.9-1.1-1.1c-0.5-0.1-0.6-1-0.4-1.3
	c0.2-0.2,0.8-0.8,0.8-1.3s0.1-0.8-0.4-1.3s-0.7-1.5-1.3-1.6s-1.5-0.2-1.8-0.3s-1.3-0.4-1.6-0.7s-0.5-0.5-0.3-0.7
	c0.2-0.3,0.4-0.6,0.5-0.6s0.7-0.1,1-0.7c0.4-0.6,0.2-1.4-0.3-1.6c-0.5-0.2-0.9-0.3-0.7-0.7s0.1-0.9-0.2-1s-1-0.4-1.3,0
	s-0.5,1-0.3,1.3s0.6,0.5,0.9,0.7c0.3,0.2,0.6-0.1,0.4,0.6c-0.2,0.7-0.6,1.2-0.7,1.5c-0.2,0.3-0.3,0.6-0.7,0.6s-0.7,0.1-0.9-0.3
	c-0.2-0.4-0.4-0.8-0.1-1.2c0.3-0.4,1.3-0.9,0.9-1.2c-0.5-0.3-0.5-0.7-0.6-1s-0.3-0.3,0-0.9c0.3-0.6,0.7-1.1,0.5-1.5s-0.8-1-0.9-0.6
	c-0.2,0.4-0.4,1-0.5,1.4s0.1,1.1-0.2,1s-0.3,0.2-0.8-0.3s-1.1-1.1-1.3-0.9c-0.2,0.2-0.8,0.2-0.7,0.8s0.1,0.6,0.5,0.9
	c0.4,0.3,0.8,0.7,1.1,0.5s0.4-0.2,0.7-0.2s0.3-0.2,0.6,0.3s0.6,0.6,0.2,1c-0.4,0.4-0.7,0.6-0.7,0.9c0,0.4-0.3,0.7,0.2,1.1
	c0.6,0.4,0.9,0.3,0.9,0.8s0.5,0.3-0.4,0.8s-1.1,0.3-1.4-0.2c-0.3-0.5-0.1-0.9-0.7-0.7c-0.7,0.2-0.9,0-0.7,0.6s0.4,0.6-0.4,0.6
	c-0.8,0-1.1-0.8-1.3-0.9c-0.2-0.1-0.5-0.3-0.8-0.7c-0.3-0.5-0.6-0.2-0.3-1s0.4-0.9,0.9-1c0.4-0.2,1-0.4,1.2-0.6
	c0.2-0.2,0.3-0.7-0.1-0.9c-0.3-0.2-1.3-0.5-1.7-0.3c-0.4,0.3-0.7,0.7-0.9,1.1c-0.2,0.4-0.6,1-1,1.3c-0.3,0.4-0.6,0.5-0.3,0.9
	c0.4,0.4,0.6,0.5,1.3,0.9s0.8,0.5,1.2,0.9s0.9,0.4,1,0.6c0,0.2,0,0.4-0.6,0.5s-1.1,0.2-1.4-0.1c-0.4-0.2-0.7-0.4-0.9-0.8
	c-0.2-0.4-0.5-1-0.9-1.1c-0.4-0.2-1.1-0.4-1.1-0.1c0,0.2,0,1.5,0.4,1.8s1,0,1.2,0.5c0.2,0.4,0.5,0.8,0,0.7c-0.6,0-0.4-0.1-1.2-0.2
	c-0.8-0.1-1.1-0.4-1.6,0s-1,0.4-1.1,0.6c-0.1,0.2-0.2,0.7-0.1,0.8c0.1,0.1,0,0.7,0.9,0.3c0.9-0.5,1.5-1.1,1.8-1.1
	c0.2,0.1,0.9,0.1,0.9,0.5s0,0.6-0.6,0.8s-0.7,0-0.8,0.6c-0.2,0.6-0.7,0.8-0.4,1.3c0.3,0.4,0.4,0.5,0.7,0.9s0.8,1,1.2,0.7
	c0.3-0.3,0.3-0.8,0.2-1.2c-0.1-0.5-0.4-0.7-0.2-1.1c0.2-0.4,0.4-1,0.8-1.1c0.4-0.1,1.3-0.7,1.5-1.1c0.2-0.4-0.2-0.8,0.6-0.8
	s1.4-0.1,1.7-0.3c0.2-0.2,1.1,0,1.2-0.2c0.2-0.3,0.4-0.4,0.8-0.3c0.4,0.1,1.8-0.1,1.9-0.2c0.1-0.1,0.9-0.6,1.2-0.8s0.7,0,1,0.2
	s0.8,0.4,1.3,0.6c0.5,0.1,1.1,0.4,1.4,0.7c0.3,0.2,0.7-0.1,0.9,0.6c0.3,0.7,0.4,0.7,0.2,1.2s0.1,0.3-0.4,0.9
	c-0.5,0.6-0.4,0.4-1.2,0.2s0.1-0.5-1.5-0.2c-1.5,0.3-1.6-0.1-1.8-0.4c-0.2-0.3-0.3-0.8-0.6-1.2S53,45,52.8,44.8
	c-0.1-0.2-0.5-0.5-1-0.3s-1.2,0.3-0.7,0.6c0.4,0.2,0.6,0.2,0.8,0.5s0.6,0.5,0.1,0.6s-1.2,0.2-1.4-0.1c-0.2-0.2-0.5-0.4-0.6-0.6
	c-0.1-0.2-0.1-0.6-0.5-0.3s-0.9,0.5-0.4,0.8c0.6,0.3,0.4,0.5,1,0.6c0.6,0.2,1.1,0.4,0.5,0.6c-0.7,0.2-1.4,0.6-1.8,0.3
	c-0.4-0.3-0.4-0.2-0.4-0.7s-0.3-1.3-0.5-1.2s-0.7,0.3-0.8,0.5c-0.2,0.1-0.4,0.1-0.6,0.3c-0.2,0.2-1.3,0.6-0.1,0.6
	c1.1,0,1.6,0.2,1.6,0.5c0,0.2-0.1,0.7,0.3,0.8c0.4,0.1,0.3,0.3,0.9,0.1c0.6-0.2,0.5-0.2,1.1-0.4s0.9-0.5,1.1-0.6
	c0.1,0-0.7-0.3,0.7-0.2s1.8,0.2,1.1,0.7s-1.2,0.6-1.8,0.6s-0.9,0.2-1.4,0.4s-0.9,0.5-1.3,0.4c-0.4-0.2-0.3-0.2-0.7-0.4
	c-0.3-0.2-1.2-0.2-1.6-0.4c-0.3-0.2-0.6-0.5-0.8-0.2s-0.9,0.7-0.3,0.9c0.6,0.2,1.5,0.4,1.9,0.5s1.4,0.2,1.7,0.2s0.7,0,0.5,0.3
	s-0.6,0.8-1.1,0.7s-0.7-0.2-1.2-0.3s-1-0.5-1.7,0s-1,0.8-1.6,0.7s-0.5-0.1-1-0.5c-0.5-0.5-1.1-0.2-1.4-0.8c-0.4-0.6-1-1-1.4-0.7
	s-1,0.8-1,1s0,1.1,0.5,0.7c0.4-0.4,0.9-0.9,1.1-0.7c0.2,0.2,0.7,0.4,0.3,0.8c-0.3,0.4-0.6,0.5-0.7,0.8c-0.1,0.3,0.3,0.7,0.8,0.6
	c0.5,0,0.6-0.1,0.7-0.5c0.1-0.4,0-1.1,0.5-0.9c0.4,0.2,0.7,0.8,1.5,0.7c0.7-0.1,1.3-0.4,1.6-0.5c0.3-0.2,0.7,0.3,0.4,0.6
	c-0.4,0.4-0.2,0.4-0.9,0.5s-1.1,0.3-0.5,0.5c0.7,0.2,0.3,0.6,1.1,0.2c0.8-0.4,1-0.7,1.1-1.1c0.1-0.4-0.5-0.8,0.5-0.7
	c1.1,0,1.1,0.6,1.9,0.1c0.8-0.4,1.3-1.1,1.5-1.3s0.5-0.6,0.8-0.6s0.7-0.2,0.9,0.1c0.2,0.4,0.5,0.6,0.3,1s-0.6,0.6-0.8,0.5
	s0-0.4-0.8-0.2s-1.2,0.5-0.9,0.7s0.5,0.5,0.9,0.4c0.4-0.2,1-0.2,1.2-0.1c0.3,0.1,0.8,0,0.8,0.4s0.4,0.6,0,1.2
	c-0.4,0.6,0.1,0.6-0.6,1.1c-0.6,0.5-0.5,0.8-1.3,0.5s-0.7-0.1-1.1-0.6c-0.4-0.4,0-0.9-0.8-0.8c-0.8,0.1-0.5-0.6-1,0.1
	c-0.5,0.8-0.6,1,0.2,1.2s1.5-0.1,1,0.6c-0.5,0.7-0.7,1.2-1.6,0.9c-0.9-0.3-1.7-0.7-1.8-1.1c0-0.4,0.2-0.5,0.2-1s0.3-1-0.4-0.7
	s-1.1-0.1-1.3,0.2s-0.3,0.2,0.1,0.6c0.4,0.5,1.3,0.7,0.6,0.9c-0.6,0.2-0.5,0-0.9-0.3c-0.5-0.3,0.1-0.6-0.7-0.1s-0.9,0.7-1.3,0.5
	c-0.4-0.2-0.8-0.4-1.2-0.2c-0.3,0.2-0.8-0.4-0.6-0.7s0.2-0.8-0.1-1.1s-1.2-0.7-1.4-0.4c-0.3,0.3-0.9,0.7-0.7,1s0.4,0.4,0.8,0.4
	c0.4,0,0.6,0,0.7,0.3c0.1,0.3,0.2,0.5,0.4,0.7s0.4,0.4,0.1,0.5s-0.7,0-0.8,0.2c-0.2,0.3-0.5,0.5-0.1,0.7c0.3,0.2,0.7,0.6,1.1,0.2
	c0.4-0.4,0.5-0.8,0.8-1s0.3-0.2,0.8-0.1c0.5,0.1,0.8,0.4,0.9,0.6c0,0.2,0.4,0.8,0,0.7c-0.4,0-0.2-0.2-0.9,0
	c-0.6,0.2-1.5,0.4-1.5,0.4s0,0.3,0,0.5c-0.1,0.2,0.3,0.7,0.6,0.7s1-0.3,1.2-0.5c0.2-0.3,0.7-0.4,0.9-0.5s0.8-0.3,0.9-0.7
	c0.1-0.4,0.1-0.5,0-0.9c0-0.3-0.1-0.3,0.6-0.3c0.7,0,1.1,0,1.3,0.2c0.1,0.2,0.5,0.4,0.3,0.7c-0.3,0.3-1,0.5-0.6,0.6
	c0.4,0.2,0.6,0.3,1.2,0c0.7-0.3,1.2-0.3,1.7-0.4c0.5-0.1,0.9-0.3,1.3-0.5c0.3-0.3,0.5-0.6,1-0.7c0.5-0.1,0.7-0.1,1.1,0
	c0.5,0.1,0.3,0.1,0.9,0.4c0.6,0.3,0.1,0.4,1.2,0.4c1.1,0,2-0.1,2.7,0.2s0.9,0.2,1.3,0.6c0.4,0.4,0.6,0.3,0.9,0.8
	c0.3,0.4,1,0.5,1,1.3c0.1,0.8,0.3,0.7,0.4,1.2c0.1,0.5,0.3,0.7,0.4,1c0.1,0.4,0,1.1,0,1.6c0,0.2,0,0.4,0,0.6c0,0.3-0.1,0.6-0.1,0.7
	c-0.1,0.3-0.4,1.8-0.7,2.3s-0.5,0.7-0.7,1c-0.2,0.2-0.3,0.3-0.5,0.5l0,0c-0.2,0.2-0.4,0.5-0.7,0.6c-0.8,0.5-1.6,0.1-3.5,0.5
	c-0.3,0.5-0.1,1.2-0.3,1.9c-0.4,0.4-0.7,0.8-1.1,1.2H53l0.3-0.7c-0.6,0.1-1.5,0.6-1.7,1c-0.2,0.6,0.3,1.3,0.8,1.7c0,0,0,0,0.1,0
	c0.3,0.1,0.4,0.1,0.6,0.1c0.1-0.1,0-0.2-0.1-0.2c-0.2,0.1-0.4-0.1-0.5-0.3l0,0l0.1,0.1c0.2-0.1,0.4-0.2,0.5-0.4
	c0,0.1-0.1,0.1-0.1,0.2c-0.1,0.2,0.4,0.2,0.5,0.4c0,0,0,0,0,0.1c0.2,0,0.2-0.1,0.4-0.2c0.3-0.2,0.5-0.4,0.7-0.7l0,0
	c0.2-0.3,0.2-0.3,0.4-0.6c0.1-0.3,0.4-0.5,0.7-0.7l0,0c0.2-0.2,0.2-0.1,0.4-0.1s0.2-0.1,0.3-0.2S56.2,72,56,72s-0.2-0.1-0.2-0.3
	c0.5-0.1,0.6-0.2,1.1,0c0.1,0.2,0.1,0.3,0.2,0.5h0.1l0.1-0.1c0,0.2-0.1,0.2-0.3,0.4c-0.2,0.2-0.2,0.2-0.3,0.3l-0.1,0.1
	c-0.2,0.2-0.3,0.4-0.5,0.6c-0.1,0.2-0.2,0.2-0.3,0.3c0,0,0,0.1,0,0.2c0,0.3,0.2,0.3,0.4,0.4c0.4-0.1,0.9-0.4,1.4-0.4
	c0.1-0.2,0.2-0.4,0.3-0.6l0.1-0.1c0.2,0.1,0.4,0.2,0.6,0.3c0.2,0.3,0.3,0.5,0.2,0.9c-0.2,0.3-0.6,0.5-0.9,0.8
	c-0.2,0-0.4-0.1-0.7-0.1L57,75.4c0,0.4,0.2,0.7,0.1,1.2c0,0,0,0,0.1,0.1c2.1-0.2,3.3-4.6,5.2-5.8c0.1,0,0.2,0,0.3,0
	c0.2,0.1,0.2,0.2,0.5,0.4c0.3,0.3,0.6,0.6,0.9,0.6c0.3,0,0.5-0.1,0.8,0.1c0.1,0.1,0.2,0.1,0.3,0.1c-0.2,0.2-0.2,0.3-0.3,0.6
	c-0.1,0.1-0.3,0.1-0.4,0.2c-0.4-0.3-0.4-0.7-0.9-0.8h-0.2c-0.2,0.1-0.2,0.1-0.3,0.3c0.3,0.9,1,0.7,1.9,0.8c0.2,0.3,0.3,0.4,0.3,0.8
	L65,74c-0.5,0.2-0.8-0.1-1.1-0.3c-0.1,0.2-0.1,0.3-0.2,0.5c0.1,0.1,0.2,0.2,0.2,0.3c0.1,0,0.3,0.1,0.4,0.1c0.2,0,0.4-0.1,0.7-0.2
	c0.3-0.1,0.3-0.2,0.4-0.6s-0.1-0.3-0.2-0.7c0-0.4,0.1-0.4,0.4-0.4c0.2,0,0.2,0.4,0,0.8c-0.1,0.4,0.1,0.6,0.4,0.8
	c0.3,0.3,0.7,0.1,1-0.1s0.4-0.8,0.5-1.2c0-0.2,0.1-0.4,0.1-0.6c0,0,0-0.1,0.1-0.1c0,0,0.1-0.1,0.1-0.2C67.9,72,68,72,68,72
	s0.1,0,0.1,0.1c0.1,0.4,0.2,0.8,0.3,1c0.2,0.4,0.4,0.3,0.8,0.6c0.3,0.3-0.4,0.6-0.7,0.8c-0.3,0.2-0.2-0.2-0.4-0.5
	c-0.2-0.2-0.7,0.3-1,0.5s-0.7,0.5-0.9,0.8c-0.2,0.2-0.4,0.3-0.6,0.4c0.2,0.1,0.3,0.2,0.5,0.3c0.6-0.1,1-1.1,1.5-1.4h0.3
	c0,0.4,0,0.7,0.1,1.1c0.5,0.7,1.7-0.6,1.9-1c0.2,0.1,0.4,0.2,0.5,0.3c0,0,0.1,0,0.1-0.1l0,0c0.1,0,0.2,0,0.3,0
	c0.2-0.1,0.3-0.1,0.6-0.3c0.3-0.1,0.4-0.1,0.4-0.3c0-0.1,0-0.1,0-0.2c0.2-0.6,0.3-0.7,0.8-0.9c0-0.1,0-0.1-0.1-0.2
	c-0.4-0.3-0.8-0.6-1.3-0.8c0-0.2,0-0.3,0.1-0.5c1-0.4,1.7,0.9,2.7,1c0-0.4-0.1-0.5-0.2-0.7l0,0c-0.3,0-0.6,0-0.9-0.3
	s-0.4-0.5-0.8-0.5s-0.6,0.2-1,0.3c-0.4,0.2-0.6,0.3-1.1,0.3s-1.2,0.1-1.2-0.2c0-0.3,0.3-0.4,0.4-0.4s0.3,0,0.3,0
	c0.4,0,0.4,0.3,1.1,0c0.6-0.2,0.3-0.5,1.1-0.7c0.8-0.2,1.3-0.7,1.9-0.4c0.6,0.3,0.8,0.2,1,0.6c0,0,0,0.1,0.1,0.1
	c0.3-0.2,0.6-0.4,0.8-0.7l0,0c-0.3,0-0.5-0.1-0.6-0.2s-1.4-0.2-1.7-0.3l0,0c-0.2-0.1-1.6,0.1-1.8,0.1c-0.1,0-0.1,0-0.2,0
	c-0.2,0-0.3,0.1-0.3,0.2C71,70,71,70.1,71,70.4v0.1c-0.8,0.5-0.9-0.2-1.6-0.4c-0.3,0-0.6,0.1-0.9,0.1c-0.2-0.1-0.4-0.3-0.6-0.4
	c-1.1-0.3-2.6,0-3.5-0.6c-0.3-0.1-0.5-0.5-0.7-1v-0.1c-0.1-0.1-0.1-0.3-0.2-0.4c0-0.2,0-0.6-0.1-1v-0.1v-0.1l0,0c0-0.1,0-0.3,0-0.4
	s0-0.2,0-0.3c0-0.3,0-0.5,0-0.8c-0.1-1.6,0.1-2.3,0.1-2.3s-0.1-1.3-0.1-1.7c0-0.5,0.2-1.6,1.1-2.3c0.8-0.7,2.2-2.2,2.6-2.2
	s1-0.3,1.6-0.3s1.7,0.3,2.4,0c0.7-0.3,0.1-0.3,1.5-0.4c1.4,0,1.8-0.1,2.2-0.1c0.4,0,1.9-0.1,2.4,0.1c0.5,0.2,0.7,0.1,1,0.3
	s0.3,0.3,0.8,0.5s1.1,0.4,1.5,0.6c0.3,0.2,0.6,0.5,0.9,0.7s0.8,0.4,0.9,0c0.1-0.3,0.3-0.1,0-0.7c-0.3-0.6-0.5-0.6-0.6-0.9
	C82,56.2,82,56.1,82.4,56.2z M73,42.1c0.3,0,0.6,0.2,0.6,0.5S73.2,43.3,73,43s-0.3-0.5-0.3-0.7C72.7,42.2,73,42.1,73,42.1z M62.6,43
	c-0.1,0.4-0.5,0.9-0.7,0.4s-0.3-0.8-0.2-0.9c0.2-0.1,0.4-0.2,0.4-0.2C62.6,42.4,62.7,42.6,62.6,43z M54.2,50.8
	c0.2-0.1,0.1-0.5,0-0.8c0-0.3-0.2-0.6-0.4-0.8c-0.3-0.2-0.6-0.3-0.2-0.6c0.3-0.3,0.4-0.5,0.9-0.7c0.5-0.1,0.6-0.3,1.2-0.3
	c0.5,0,0.6-0.1,1,0.1c0.4,0.2,0.8,0.1,0.7,0.4c-0.1,0.3,0.2,0.3-0.4,0.2c-0.6-0.1-0.7-0.4-1.1-0.2c-0.4,0.3-0.7,0.5-0.6,0.6
	c0.2,0.1,0.4,0.1,0.6,0.3c0.2,0.2,0.6,0.8,0.7,0.6c0.2-0.2,0.5-0.3,0.8-0.4c0.2-0.2,0.4-0.1,0.7-0.3s0.5-0.6,0.8-0.1
	s0.8,0.6,0.2,0.9c-0.6,0.3-0.5,0.3-1,0.3c-0.4,0-0.2,0.2-0.8,0.2s-0.8,0.1-1.1-0.1c-0.3-0.2-0.6-0.5-0.6-0.2c-0.1,0.4-0.3,0.7,0,0.8
	s0.5,0.2,1,0.2s1,0,1.3-0.2c0.2-0.2,0.7-0.2,1.1-0.4c0.4-0.2,0.4-0.2,1-0.3s0.4-0.3,0.8,0.1c0.3,0.3,0.7,0.3,0.3,0.7
	S60,51.3,60,51.3c-0.2,0.3-0.4,0.8-0.5,1.1c-0.1,0.4-0.1,0.6-0.1,0.9c0,0.3-1,0.4-1.3,0.2s-0.5-0.2-0.9-0.5s-0.7-0.1-1-0.4
	c-0.3-0.3-0.5-0.5-0.9-0.7s-0.5-0.4-0.9-0.5C53.8,51.4,54,50.9,54.2,50.8z M61,57.2c-0.4,0.1-0.8-0.1-1-0.3s-0.6-0.4-0.7-0.6
	c-0.1-0.1-0.4-0.6-0.7-0.7c-0.4-0.1-0.3-0.3-0.9-0.3c-0.6,0-0.8,0-1.4,0c-0.6,0-1.1,0.1-1.3-0.1c-0.2-0.3-0.5-0.5-0.5-0.8
	s-0.2-0.9,0.1-0.9s0.7,0.1,1,0.3c0.4,0.2,0.6,0.4,1.2,0.6c0.6,0.1,1.1,0,1.4,0.1c0.3,0.1,0.7,0.2,0.9,0.4c0.3,0.2,0.6,1,0.6,1
	c0.5,0.1,0.6,0,1,0.4C61.1,56.6,61.4,57.1,61,57.2z M62.1,53.8c-0.1,0.5-0.5,0.9-0.4,1.3c0.1,0.4-0.3,0.6-0.6,0.3s-0.8-0.5-0.9-1
	c0-0.5-0.3-0.6,0.1-1.2c0.4-0.7,0.6-0.7,0.6-0.7c0.2,0,0.5,0,0.8,0.4C62,53.2,62.2,53.3,62.1,53.8z M63.9,48.2
	c0.4-0.4,1.1-0.8,1.1-0.8c0.2-0.1,0.2-0.2,0.6-0.3c0.3-0.2,0.3-0.1,0.7-0.2c0.4,0,0.9-0.1,0.9,0.4c0,0.4,1,0.2-0.3,0.6
	c-1.3,0.5-1.5,0.3-1.8,0.7s-0.9,1.3-1.1,0.9C63.9,49.1,63.5,48.7,63.9,48.2z M66.1,52.3c-0.5,0.5-0.4,0.5-0.7,0.9
	c-0.3,0.4-0.4,1-0.7,0.8c-0.3-0.1-0.3-0.2-0.5-0.8s-0.4-0.9,0-1.4s0.5-0.7,0.6-1.1c0.1-0.4,0.5-0.4,0.5-0.4c0.2,0.3,0.5,0.5,0.6,0.8
	C66.2,51.4,66.7,51.8,66.1,52.3z M69.3,54.5c-0.3,0.3-0.7,0.7-1.1,0.7c-0.4,0.1-0.9,0.5-1.2,0.3c-0.3-0.2-0.6-0.1-0.6-0.8
	c0-0.6,0-0.7,0.3-1c0.3-0.2,0.8-0.3,0.8-0.3c0.3-0.2,0.5-0.3,0.8-0.2c0.3,0.2,0.6,0.1,0.7,0.4C69.2,54.1,69.6,54.2,69.3,54.5z
	 M43.3,54c0.8-0.1,0.4-0.5,0.2-1c-0.2-0.4-0.8-0.1-1.1,0c0,0-0.3,0.3-0.3,0.6C42.1,53.9,42.5,54.1,43.3,54z M72.7,56.8
	c0,0-0.5-0.2-0.9-0.1c-0.3,0.1-0.3,0.7-0.2,1c0.1,0.3,0.2,0.3,1,0.2c0.8-0.2,0.6-0.3,0.6-0.6C73.2,57,73,56.8,72.7,56.8z M79.8,52.8
	c0.2,0-0.2-0.5-0.4-0.6c-0.2-0.1-2.6,0.1-2.6,0.1s-0.8,0.2-1,0.2c-0.1,0,0.1,0.6,0.4,1c0.2,0.3,0.5,0.1,0.7-0.1l0.1,0.1
	c0.2,0.1,0.5,0.2,0.8,0.2c0.2,0,0.4-0.3,0.5-0.7c0.1-0.1,0.1-0.2,0.1-0.3c0.3,0,0.6,0.1,0.7,0.1S79.5,52.8,79.8,52.8z M76.8,52.4
	c-0.1,0-0.1,0-0.2-0.1L76.8,52.4L76.8,52.4z M51.4,73.3c-0.2-0.1-0.2-0.2-0.6-0.3c-0.3,0.3-0.7,0.5-1.3,0.5c0.1,0.3,0.3,0.3,0.3,0.8
	C50.5,74.3,51.3,73.8,51.4,73.3z M48.2,72.9c-0.9,0.6-1.6,0.4-2.7,0.3c0,0.1-0.1,0.2-0.1,0.3V74c0.5,0.1,0.7,0,1.3-0.1l0.1,0.1
	c0,0.2-0.1,0.4-0.1,0.6c0.2,0.2,0.4,0.3,0.6,0.5c0-0.3-0.1-0.6-0.1-0.7c0-0.2,0.1-0.3,0.3-0.5c0.2-0.3,0.3-0.2,0.6-0.3
	c0,0,0.6-0.1,0.9,0.1c0.2,0.1,0.2,0.5,0.3,0.7c0,0.2-0.4,1-0.6,1.3c-0.1,0.2-0.2,0.2-0.4,0.2c0.2,0.1,0.5,0.3,0.7,0.3
	c0.3-0.5,0.6-1,0.9-1.5c-0.1-0.6-0.9-1.3-1.2-1.8C48.7,72.9,48.2,72.9,48.2,72.9z M51.3,75c-0.1,0-0.3,0-0.4-0.1
	c-0.1,0-0.3,0.1-0.4,0.1l-0.2,0.4v0.4h0.5C51.1,75.7,51.3,75.5,51.3,75z M43.7,70.2c-0.4,0-0.6,0-1,0c-0.3,0-0.5,0-0.7,0.1
	c-0.1,0.1,0.2,0.6,0.2,0.6s0.3,0.3,0.4,0.2c0.1-0.1,0.2-0.2,0.4-0.3c0.2-0.1,0.3-0.1,0.8-0.1c0.4,0,0.8,0,0.8,0c0-0.1,0-0.3,0-0.3
	C44.1,70.3,44.1,70.2,43.7,70.2z M52.2,76c-0.4,0.5-0.7,0.7-1.4,0.8c-0.1,0.2-0.1,0.2-0.1,0.5c0.1,0.1,0.2,0.1,0.3,0.2
	c0.6-0.3,0.8-0.8,1.3-1.2C52.3,76.1,52.3,76.2,52.2,76z M46,71.6c0.6-0.4,1.3,0.4,2,0.2c0.3-0.5,0.3-1.2,0.8-1.4
	c0.2,0,0.5,0,0.7-0.1c0,0.1,0.1,0.3,0.1,0.4c-0.3,0.5-0.5,0.8-1,1.1v0.8c0,0,0,0,0.1,0.1l2-1.5c0.3-0.5,0-0.8,0.7-1
	c0.3-0.1,0.4,0.1,0.6,0.3v0.1c-0.3,0.1-0.7,0.3-1,0.4c-0.1,0.5-0.3,0.9-0.4,1.4v0.1c0.1,0,0.1,0.1,0.2,0.1c0.7-0.7,1.5-2.2,2.7-2.3
	c0,0.1,0.1,0.1,0.1,0.2c-0.2,0.1-0.6,0.1-0.7,0.3c-0.1,0.4,0.1,0.7,0.2,1h0.2c0.3-0.2,0.5-0.4,0.8-0.6c-0.1-0.5-0.3-0.5-0.1-1V70
	h-0.2c-0.1,0-0.2,0-0.3,0c-0.5,0-0.7,0-1.3-0.1s-0.9-0.1-1.4-0.1s-0.6-0.1-1.2,0c-0.7,0.1-1,0.3-1.3,0.5c-0.4,0.2-0.4,0.3-0.9,0.3
	s-0.8,0.1-1.2,0s-0.5,0.1-0.8-0.1c0.1,0.4,0.4,0.5,0.6,0.9c-0.3,0.1-0.5,0.1-0.8,0.2c-0.3,0.5-0.2,0.9,0.1,1.3
	C46.2,72.7,46.3,72.3,46,71.6z M54.1,77.6L54.1,77.6c0,0.3,0.1,0.3,0.2,0.4c0.1,0,0.3,0,0.4-0.1c0.1-0.1,0.1-0.3,0.2-0.4
	c-0.2-0.2-0.2-0.2-0.5-0.2L54.1,77.6z M71.3,75.5c-0.3,1.1,0.6,0.8,1.1,1.3c0.1,0.3,0.3,0.6,0.4,1H73l0.2-0.3
	C72.9,76.8,72.1,75.6,71.3,75.5z M74,76.5L74,76.5l0.4,0.1v-0.3c-0.2-0.1-0.3-0.2-0.5-0.3C74,76.3,74,76.4,74,76.5z M73.1,75.6
	c0.2,0.1,0.3,0.2,0.5,0.3h0.1v-0.6c-0.2-0.1-0.4-0.1-0.6-0.2C73.1,75.3,73.1,75.5,73.1,75.6z M66.9,76.2c0,0.1,0,0.2-0.1,0.3
	l0.3,0.4c0.1-0.1,0.2-0.1,0.3-0.2c0-0.1-0.1-0.3-0.1-0.4C67.2,76.3,67.1,76.2,66.9,76.2z M68.9,76.3c-0.2,0.3,0.1,1,0.5,1.2
	c0.2,0,0.4,0,0.5,0.1l0.1-0.3c0-0.2,0-0.4-0.1-0.6C69.5,76.5,69.2,76.4,68.9,76.3z M76.7,72.5c-0.2-0.2-0.4-0.4-0.9-0.4
	c0,0.1-0.1,0.1-0.1,0.2v0.3c0.3,0.1,0.6,0.3,0.9,0.4h0.1C76.6,72.8,76.7,72.6,76.7,72.5z M77.5,72.4c0,0.2-0.1,0.3-0.1,0.5
	c0,0.1,0,0.2,0.1,0.3l0.3,0.1h0.1c0.1-0.2,0.2-0.2,0.2-0.6l-0.3-0.3H77.5z M54.7,75.9C54.7,75.9,54.7,75.8,54.7,75.9
	c-0.3-0.1-0.5-0.1-0.7-0.2c-0.5,0.4-1,1.1-0.9,2c0.2,0.1,0.2,0.1,0.5,0.1c0.1-0.2-0.1-0.6,0.1-0.9C54,76.6,54.4,76.2,54.7,75.9z
	 M63.7,75.5c0-0.3-0.1-0.5-0.1-0.8c-0.3-0.7-1.6-2.3-2.3-2.6c-0.1,0.2-0.2,0.5-0.3,0.7c0.1,0.9,2.1,1.3,1.9,3
	c0.4,0.3,0.8,0.5,1.1,0.9c0.6,0,0.7,0,1.3,0.1c0.1,0.3,0.3,0.6,0.4,0.9H66c0-0.2,0-0.4,0.1-0.6C65.5,76.5,64.3,76.2,63.7,75.5z
	 M74.6,74.3c-0.5-0.3-0.9-0.6-1.4-1c0.1,1.3,1.3,1.7,2.5,1.9c0.5-0.3,1.3-0.7,1.9-1v-0.3C76.9,73.2,75.5,74.2,74.6,74.3z M81,70.2
	c-0.4,0-1,0-1.3,0.1c-0.2,0-0.4,0-0.5,0h-0.1c-0.1,0-0.1,0-0.2-0.1s-0.7-0.1-1.1-0.1h-0.1c-0.1,0.1-0.2,0.2-0.2,0.5
	c-0.2,0.1-0.6,0.2-0.9,0.1c-0.1,0.1-0.2,0.1-0.3,0.2c0,0,1.1,1.3,1.2,1.4c0.3,0.1,0.5,0,0.9-0.1c0.4,0.4,0.8,0.7,1.3,1.1l0.1-0.1
	c0.2-0.3,0.2-0.5,0.1-0.8c-0.1,0-0.2-0.1-0.4-0.1C79,72,79,71.8,78.8,71.6c-0.1-0.1-0.2-0.2-0.3-0.2c0.1,0,0.3-0.1,0.4-0.1V71
	c-0.2-0.1-0.4-0.2-0.6-0.2c0.1-0.1,0.3-0.2,0.6-0.2c0.3-0.1,1.1,0.2,1.6,0.2c0.4,0,0.4,0.1,1,0.1c0.2,0,0.3-0.1,0.4-0.2
	s0.3-0.4,0.2-0.5C81.9,70.1,81.5,70.2,81,70.2z M60.6,77.3l-0.1,0.3V78c0.1,0,0.1,0,0.2,0.1c0.1,0,0.1,0,0.2-0.1
	c0.1-0.2,0.2-0.3,0.1-0.6C60.8,77.3,60.9,77.3,60.6,77.3z M57.5,77.4l-0.2,0.2v0.6c0.2,0.1,0.3,0.1,0.5,0.1c0.3-0.2,0.3-0.3,0.3-0.8
	l-0.3-0.1C57.7,77.5,57.6,77.5,57.5,77.4z M59.7,78.1l-0.1,0.3c0.3-0.1,0.2,0,0.4-0.2l-0.1-0.1C59.9,78.1,59.7,78.1,59.7,78.1z
	 M56,76l0.1-0.3c0-0.1,0-0.3-0.1-0.4c-0.1,0-0.2,0-0.3-0.1c-0.1,0-0.1,0.1-0.2,0.1V76h0.1l0.1,0.1C55.9,76.1,56,76,56,76z
	 M55.9,77.2c-0.1,0-0.3,0-0.4-0.1c0.1,0.5,0.1,1.1,0.1,1.7c0.3,0.1,0.6,0.2,0.9,0.1h0.1c0.1-0.2,0.1-0.2,0.1-0.5
	C56.4,78,56.1,77.9,55.9,77.2z M62.9,77.1c-0.1-0.2-0.1-0.2-0.5-0.2c0,0.1-0.1,0.1-0.1,0.2s0,0.3,0.1,0.4c0.1,0,0.1,0,0.2,0.1
	c0.1,0,0.2-0.1,0.3-0.1V77.1z M65.1,78.5c0,0.2,0,0.3-0.1,0.5l0.1,0.1h0.2c0.1-0.2,0.1-0.2,0.1-0.4C65.3,78.5,65.4,78.6,65.1,78.5z
	 M62.7,79.5v0.3c0,0,0,0,0.1,0.1H63c0.1-0.1,0.1-0.2,0.2-0.3c-0.1-0.1-0.2-0.1-0.3-0.2C62.7,79.4,62.7,79.4,62.7,79.5z M61.7,74.7
	c0-0.1-0.1-0.2-0.1-0.3l-0.4-0.1c-0.2,0.1-0.6,0.1-0.9,0.3l-0.9,2.3c0,0,0,0,0.1,0.1c0.8-0.2,0.5-0.9,1.3-1.1
	c0.1-0.3,0.2-0.6,0.3-0.8c0.2-0.2,0.3-0.1,0.5,0C61.5,74.9,61.6,74.8,61.7,74.7z M61.4,78.6L61.4,78.6c-0.1,0.3-0.2,0.5-0.2,0.7
	c0.4,0.4,0.8,0,0.5-0.6L61.4,78.6z"/>
<path class="st2" d="M62.2,82.3l-6.2,16h3.2l1.3-3.3H67l1.2,3.3h3.2l-6.2-16H62.2z M61.6,92.1l2.2-5.5l2.2,5.5H61.6z M82.4,95
	c-0.7,0.3-1.5,0.5-2.3,0.5c-1,0-1.9-0.2-2.7-0.7c-0.8-0.4-1.4-1.1-1.9-1.9c-0.4-0.8-0.7-1.7-0.7-2.7c0-1.5,0.5-2.7,1.5-3.7
	S78.5,85,80,85c1.7,0,3.3,0.7,4.6,2.2l2-1.9c-0.8-1-1.8-1.7-3-2.3c-1.2-0.5-2.4-0.8-3.6-0.8c-1.5,0-2.8,0.4-4.1,1.1
	C74.6,84,73.6,85,73,86.1c-0.7,1.2-1,2.5-1,4c0,2.3,0.8,4.3,2.3,5.8s3.4,2.2,5.8,2.2c1.3,0,2.4-0.2,3.4-0.6s2.1-1.2,3.2-2.3l-2-2.1
	C83.9,94.1,83.1,94.7,82.4,95z M48.5,82.3h-3.4h-3.6v16h3.6h3.4h1.7h3.4v-2.9h-3.4h-1.7h-3.4v-4.2h3.4h1.7h3.4v-2.9h-3.4h-1.7h-3.4
	v-2.9h3.4h1.7h3.4v-2.9h-3.4h-1.7V82.3z"/>
</svg>
