<?xml version="1.0" encoding="UTF-8" standalone="no"?>
<!-- Created with Inkscape (http://www.inkscape.org/) -->

<svg
   xmlns:dc="http://purl.org/dc/elements/1.1/"
   xmlns:cc="http://creativecommons.org/ns#"
   xmlns:rdf="http://www.w3.org/1999/02/22-rdf-syntax-ns#"
   xmlns:svg="http://www.w3.org/2000/svg"
   xmlns="http://www.w3.org/2000/svg"
   xmlns:sodipodi="http://sodipodi.sourceforge.net/DTD/sodipodi-0.dtd"
   xmlns:inkscape="http://www.inkscape.org/namespaces/inkscape"
   width="327.6875"
   height="328.95169"
   id="svg2"
   version="1.1"
   inkscape:version="0.48.2 r9819"
   sodipodi:docname="Neues Dokument 1">
  <defs
     id="defs4" />
  <sodipodi:namedview
     id="base"
     pagecolor="#ffffff"
     bordercolor="#666666"
     borderopacity="1.0"
     inkscape:pageopacity="0.0"
     inkscape:pageshadow="2"
     inkscape:zoom="0.70710678"
     inkscape:cx="512.29068"
     inkscape:cy="48.71226"
     inkscape:document-units="px"
     inkscape:current-layer="layer1"
     showgrid="false"
     showguides="true"
     inkscape:guide-bbox="true"
     fit-margin-top="0"
     fit-margin-left="0"
     fit-margin-right="0"
     fit-margin-bottom="0"
     inkscape:window-width="1600"
     inkscape:window-height="848"
     inkscape:window-x="-8"
     inkscape:window-y="-8"
     inkscape:window-maximized="1" />
  <metadata
     id="metadata7">
    <rdf:RDF>
      <cc:Work
         rdf:about="">
        <dc:format>image/svg+xml</dc:format>
        <dc:type
           rdf:resource="http://purl.org/dc/dcmitype/StillImage" />
        <dc:title></dc:title>
      </cc:Work>
    </rdf:RDF>
  </metadata>
  <g
     inkscape:label="Ebene 1"
     inkscape:groupmode="layer"
     id="layer1"
     transform="translate(-227.90625,-337.4375)">
    <path
       style="fill:#117931;fill-opacity:1;stroke:none"
       d="m 391.75,337.4375 c -90.48309,0 -163.84375,73.32941 -163.84375,163.8125 0,79.83105 57.10095,146.32342 132.6875,160.875 l 0,-7.09375 C 296.76097,640.93511 249,584.03846 249,515.96875 c 0,-78.66275 63.77475,-142.4375 142.4375,-142.4375 78.66275,0 142.4375,63.77475 142.4375,142.4375 0,68.18103 -47.9165,125.14619 -111.90625,139.125 l 0,7.1875 c 76.04772,-14.18306 133.625,-80.87308 133.625,-161.03125 0,-90.48309 -73.36066,-163.8125 -163.84375,-163.8125 z"
       id="path3797"
       inkscape:connector-curvature="0" />
    <path
       style="fill:#117931;fill-opacity:1;stroke:none"
       d="m 391.8125,384.65625 c -72.87462,0 -131.9375,59.06288 -131.9375,131.9375 0,62.11966 42.91429,114.22306 100.71875,128.25 l 0,-7.53125 C 314.07184,623.80142 280.0625,580.87946 280.0625,530 c 0,-61.71678 50.03322,-111.75 111.75,-111.75 61.71678,0 111.75,50.03322 111.75,111.75 0,51.26864 -34.52429,94.46548 -81.59375,107.625 l 0,7.46875 c 58.34341,-13.6407 101.78125,-65.99812 101.78125,-128.5 0,-72.87462 -59.06288,-131.9375 -131.9375,-131.9375 z"
       id="path3802"
       inkscape:connector-curvature="0" />
    <path
       style="fill:#117931;fill-opacity:1;stroke:none"
       d="m 391.4375,429.59375 c -55.37076,0 -100.25,44.91049 -100.25,100.28125 0,44.60807 29.13067,82.39736 69.40625,95.40625 l 0,-6.59375 C 331.54852,606.51551 311.125,577.8381 311.125,544.375 c 0,-44.49188 36.07062,-80.5625 80.5625,-80.5625 44.49188,0 80.5625,36.07062 80.5625,80.5625 0,33.77435 -20.80465,62.68238 -50.28125,74.65625 l 0,6.34375 c 40.43579,-12.91483 69.71875,-50.77773 69.71875,-95.5 0,-55.37076 -44.87924,-100.28125 -100.25,-100.28125 z"
       id="path3807"
       inkscape:connector-curvature="0" />
    <rect
       style="fill:#117931;fill-opacity:1;stroke:none"
       id="rect3821"
       width="8.9651041"
       height="67.995888"
       x="387.56711"
       y="598.39331" />
    <path
       style="fill:#117931;fill-opacity:1;stroke:none"
       d="m 388.02486,568.75165 -10e-6,21.08709 -21.08692,-1.6e-4 c -11.646,0 -21.08694,-9.44094 -21.08694,-21.08693 l -0.0632,-21.08694 21.15009,0 c 11.64599,0 21.08693,9.44095 21.08693,21.08694 z"
       id="path3823"
       inkscape:connector-curvature="0"
       sodipodi:nodetypes="cccccccc" />
    <path
       style="fill:#117931;fill-opacity:1;stroke:none"
       d="m 416.75007,589.85572 -21.08709,-10e-6 1.6e-4,-21.08692 c 0,-11.646 9.44094,-21.08694 21.08693,-21.08694 l 21.08694,-0.0632 0,21.15009 c 0,11.64599 -9.44095,21.08693 -21.08694,21.08693 z"
       id="path3823-1"
       inkscape:connector-curvature="0"
       sodipodi:nodetypes="cccccccc" />
    <path
       style="fill:#117931;fill-opacity:1;stroke:none"
       d="m 406.68311,539.92019 -14.91083,14.91082 -14.9106,-14.91082 c -8.23496,-8.23496 -8.23496,-21.58647 0,-29.82143 l 14.86603,-14.95541 14.95537,14.95538 c 8.23496,8.23495 8.23495,21.58647 -1e-5,29.82143 z"
       id="path3823-7"
       inkscape:connector-curvature="0"
       sodipodi:nodetypes="cccccccc" />
  </g>
</svg>
