<?xml version="1.0" encoding="utf-8"?>
<!-- Generator: Adobe Illustrator 27.5.0, SVG Export Plug-In . SVG Version: 6.00 Build 0)  -->
<svg version="1.1" id="Ebene_1" xmlns="http://www.w3.org/2000/svg" xmlns:xlink="http://www.w3.org/1999/xlink" x="0px" y="0px"
	 viewBox="0 0 127.3 48" style="enable-background:new 0 0 127.3 48;" xml:space="preserve">
<style type="text/css">
	.st0{enable-background:new    ;}
	.st1{fill:#FFFFFF;}
	.st2{fill-rule:evenodd;clip-rule:evenodd;fill:#FFFFFF;}
</style>
<g id="Logo">
	<g class="st0">
		<path class="st1" d="M41.2,32.3c1-2.4,3.2-3.6,5.2-3.6c0.5,0,0.9,0,1.2,0.1v4.7c-0.4-0.1-0.9-0.1-1.4-0.1c-2.5,0-4.4,1.5-4.4,4.6
			v9.5h-5.6V34.8c0-2.3-0.1-4.1-0.2-5.7h4.8l0.2,3.2H41.2z"/>
	</g>
	<g class="st0">
		<path class="st1" d="M55,39.7c0.2,3.1,2.7,4.4,5.7,4.4c2.1,0,3.7-0.3,5.1-0.8l0.8,3.4c-1.7,0.7-4.2,1.1-6.8,1.1
			c-6.5,0-10.2-3.6-10.2-9.3c0-5.3,3.5-9.8,9.6-9.8c5.1,0,8.4,3.2,8.4,9.1c0,0.7,0,1.4-0.2,1.9H55z M62.5,36.3
			c0-1.9-0.8-4.3-3.6-4.3c-2.7,0-3.8,2.4-3.9,4.3H62.5z"/>
		<path class="st1" d="M71.3,43c1.1,0.6,3.2,1.2,4.9,1.2c2,0,2.9-0.7,2.9-1.8s-0.7-1.7-3-2.6c-3.9-1.4-5.3-3.3-5.3-5.3
			c0-3.3,3-5.8,7.7-5.8c2.1,0,4,0.5,5.2,1l-1.1,3.4c-0.9-0.4-2.4-1-3.9-1c-1.7,0-2.6,0.8-2.6,1.7c0,1,0.8,1.6,3.2,2.4
			c3.5,1.3,5.2,3.1,5.2,5.6c0,3.5-3,5.8-8.2,5.8c-2.3,0-4.5-0.5-5.9-1.2L71.3,43z"/>
		<path class="st1" d="M99.1,36.6l7.7,10.8h-6.6l-4.9-7.9l-1.5,1.8v6.1h-5.6V20.9h5.6v16.2h0.1c0.5-0.8,0.9-1.6,1.4-2.3l4.2-5.7h6.5
			L99.1,36.6z"/>
		<path class="st1" d="M113,39.7c0.2,3.1,2.7,4.4,5.7,4.4c2.1,0,3.7-0.3,5.1-0.8l0.8,3.4c-1.7,0.7-4.2,1.1-6.8,1.1
			c-6.5,0-10.2-3.6-10.2-9.3c0-5.3,3.5-9.8,9.6-9.8c5.1,0,8.4,3.2,8.4,9.1c0,0.7,0,1.4-0.2,1.9H113z M120.6,36.3
			c0-1.9-0.8-4.3-3.6-4.3c-2.7,0-3.8,2.4-3.9,4.3H120.6z"/>
	</g>
	<path class="st1" d="M9.7,33.9c0,0,0.1-0.2,0.1-0.2c0,0,0-0.1,0-0.1s0-0.1,0-0.2s0-0.6,0-0.7s0-0.4,0-0.4s0-0.2,0-0.3s0-0.1,0-0.1
		s-0.1,0,0-0.1c0,0,0.1-0.1,0.1-0.1s0-0.1,0-0.1c0,0,0-0.1,0-0.1s0-0.3,0.1-0.4c0-0.1,0.1-0.6,0.1-0.7S10.1,30.1,10,30s0-0.2,0-0.2
		c0.1,0,0.1-0.1,0.1-0.2c0-0.1-0.1-0.2-0.1-0.2c0-0.1,0-0.2,0-0.2l0,0c0,0,0,0.1,0,0.1c0,0,0.1,0,0.1-0.1c0-0.1,0-0.3,0-0.3
		c0.1-0.1,0.2-0.5,0.2-0.5h0c0,0,0,0.1,0,0.1c0,0,0.1,0,0.1,0s0,0.1,0,0.1s0,0.1,0,0.1c0,0,0.1,0,0.1,0s0,0,0,0.1
		c0,0,0.2,0.5,0.3,0.5c0,0.1,0,0.1,0,0.2v0.2c0,0,0,0.1,0,0.1s0.1,0.1,0.1,0.1s0.1,0.1,0.1,0.2c0.1,0,0.3,0.2,0.3,0.2
		s0.1,0.1,0.1,0.1s0.1,0.2,0.2,0.2c0.1,0,0.2,0.1,0.2,0.1s0,0.1,0,0.1s0,0.4,0,0.4s0,0.1,0.1,0.1c0.1,0,0.1-0.1,0.1-0.1v-0.2
		l0.1,0.1c0,0,0,0.1,0,0.1c0,0,0,0,0.1,0l0.1,0.1c0,0-0.1,0-0.1,0.1c0,0.1,0,0.3,0,0.3s0,0,0,0l0.1,0.6c0,0-0.1,0.2-0.1,0.2
		s0,0.1,0,0.1s0,0.2,0,0.2s0,0.2,0,0.2c0,0,0,0.1,0,0.1s0,0.1,0,0.2s0,0.1,0,0.1s0,0.2,0,0.2s0,0.1,0,0.1c0,0,0,0.1,0,0.1
		c0,0,0,0.1,0,0.1s0,0.1,0,0.2s0,0.2,0,0.3s0,0.1,0,0.1s0.1,0.1,0.1,0.1s0,0.1,0,0.2c0,0.5-0.1,2.4-0.1,2.7c0,0.4,0,1-0.1,1.2
		c-0.1,0.3-0.2,0.8-0.2,0.9c0,0.3,0,1.5-0.7,1.6h0c-0.6,0-0.9-0.8-1-1.1c0,0,0,0,0,0c-0.1-0.2-0.4-1.5-0.4-1.6c0-0.2-0.1-1-0.2-1.4
		c0,0,0-0.1,0-0.1s-0.1-0.6-0.1-0.6s0-0.1,0.1-0.1c0,0,0-0.1,0-0.2c0,0,0-0.1,0-0.1c0,0,0-0.1,0-0.1c0,0,0-0.2,0-0.2
		s-0.1-0.1-0.1-0.1v-0.1c0,0,0-0.1,0-0.1s0-0.1,0-0.2c0,0,0-0.1,0-0.1s0,0,0-0.1c0,0-0.1-0.2-0.1-0.2l0-0.1v-0.1c0,0,0,0,0.1,0
		s0-0.2,0-0.2c0.1-0.1,0.1-0.2,0.1-0.3c0-0.1-0.1-0.2-0.1-0.2S9.7,33.9,9.7,33.9 M9.8,29.4C9.8,29.4,9.8,29.3,9.8,29.4
		C9.9,29.3,9.9,29.3,9.8,29.4L9.8,29.4L9.8,29.4z M10,28.3c0,0,0,0.1,0,0.2c0,0.1-0.2,0.5-0.2,0.5l0-0.3l0,0l0-0.3l0-0.1l0.1-0.1
		C9.9,28.3,10,28.3,10,28.3 M13.9,34.7c0-0.1-0.1-0.9-0.1-0.9s0-0.1,0.1-0.1c0.1,0,0.2,0,0.2,0l0.1,0l0.1,0.1c0,0,0,0,0,0.1
		c0,0,0.1,0.2,0.1,0.2s-0.1,0-0.1,0.1c0,0,0.1,0.2,0.1,0.2s0,0,0.1,0c0,0,0,0.1,0,0.1s0,0.1-0.1,0.2c-0.1,0.1-0.2,0.1-0.2,0.1
		c0,0,0-0.1-0.1-0.1c-0.1,0-0.2,0.1-0.2,0.1C13.9,34.8,13.9,34.8,13.9,34.7 M14.1,35.2c0,0,0-0.1,0-0.1c0,0,0-0.1,0-0.1l0.1,0
		L14.1,35.2 M14.6,33.9l-0.1-0.2c0,0,0,0,0,0c0,0,0.1,0.1,0.1,0s0-0.4,0-0.4l0.1,0.2l0,0.1h0v0.2C14.6,33.8,14.6,33.8,14.6,33.9
		C14.6,33.8,14.6,33.9,14.6,33.9 M14.7,33c-0.1-0.2-0.2-0.3-0.2-0.3v-0.1c0,0,0.1,0,0.1,0s0,0,0.1,0s0.1,0,0.1,0s0,0.1,0,0.2
		c0,0.1,0.1,0.1,0.1,0.1s0.2,0,0.3,0s0.2-0.1,0.3-0.2c0.1-0.1,0.1-0.3,0.1-0.3l0.2-0.1v0.1h0.1c0,0,0,0.1,0,0.2s0.1,0.2,0.1,0.2
		c0,0,0,0.3,0,0.3s0,0.2,0,0.2c0,0,0.1,0,0.1,0l0,0.4c0,0,0,0,0,0c0,0-0.1,0-0.1,0s0,0.1,0,0.2s0,0.1,0,0.1s0,0,0.1,0
		c0,0,0,0.1,0,0.1c0,0,0,0,0,0c0,0,0,0.1,0,0.2s0.1,0.1,0.1,0.1s0,0,0,0s0,0.1,0,0.1c0,0,0.1,0.1,0.1,0.1c-0.1,0,0,0.2,0,0.2h0
		c0,0,0,0-0.1-0.2c-0.1-0.1-0.4-0.3-0.4-0.3c-0.1,0-0.1-0.1-0.1-0.1c0,0-0.2-0.5-0.3-0.7C15,33.5,14.8,33.1,14.7,33 M14.8,34
		C14.8,34,14.9,33.9,14.8,34l0.2,0.3l-0.1,0l-0.1,0c0,0,0-0.1,0-0.1s0-0.1,0-0.1C14.9,34.1,14.9,34.1,14.8,34 M15.3,35.1
		c-0.1-0.1-0.3-0.7-0.3-0.7c0.1,0,0.3,0.1,0.3,0.1l0.5,1c0,0,0,0.1,0.1,0.1c0,0,0,0,0,0.1s0,0.2,0.1,0.3c0,0.1,0.1,0.5,0.1,0.5
		s-0.3-0.6-0.3-0.7C15.6,35.7,15.4,35.2,15.3,35.1 M16.1,35.3c0,0.1,0,0.2,0,0.2l-0.3-0.7c0,0,0.2,0.1,0.2,0.2S16.1,35.2,16.1,35.3
		 M16,35.8l0-0.1c0,0,0.2,0,0.2,0c0,0,0.1-0.1,0.1-0.1h0v0.1c0,0,0,0,0,0c0,0,0,0.2,0,0.3c0,0.1,0,0.4,0,0.4s0,0.2,0,0.2h0
		c0,0-0.1-0.2-0.1-0.3S16.1,35.8,16,35.8 M16.5,33.7l-0.2,0v-0.5c0,0,0.1,0.1,0.1,0.2c0,0.1,0.1,0.2,0.1,0.2s0.1,0.1,0.1,0.2
		s0,0,0,0s0,0,0,0.1s0,0.1,0,0.1S16.6,34,16.6,34C16.6,34,16.6,33.8,16.5,33.7C16.6,33.7,16.5,33.7,16.5,33.7 M16.6,34.9L16.6,34.9
		L16.6,34.9L16.6,34.9L16.6,34.9z M16.7,34.3C16.7,34.3,16.7,34.4,16.7,34.3L16.7,34.3L16.7,34.3L16.7,34.3z M16.7,33.1
		c0-0.1-0.2-0.6-0.2-0.6c0.2,0,0.1-0.3,0.1-0.3h0v-0.1h0l0-0.3c0,0,0.3-0.1,0.4-0.1c0.1,0,0-0.1,0-0.1h0.1c0,0,0,0,0.1,0
		c0,0,0.2,0,0.2,0s0,0,0.1,0.1c0,0,0.1,0,0.1,0s0,0.2,0,0.3c0,0,0.1,0.1,0.1,0.1s0.1,1.1,0.1,1.3c0,0.2,0.1,1.1,0.1,1.2
		c0,0.1,0,1.1,0,1.1s-0.2-0.5-0.2-0.5c0,0-0.1-0.2-0.1-0.3c0,0-0.3-0.4-0.3-0.5c0,0-0.1-0.1-0.1-0.1s0-0.1,0-0.2
		c0-0.1-0.1-0.1-0.1-0.1c0,0,0,0,0,0s0,0,0-0.1s0-0.1,0-0.1s-0.1-0.2-0.1-0.2c0,0-0.1,0-0.1,0S16.8,33.2,16.7,33.1 M16.7,28.5
		l0.3,0.9c0,0-0.1,0-0.1,0c0,0-0.1,0-0.1,0s-0.1,0-0.1,0s0,0-0.1,0s0,0,0,0c0,0,0-0.1,0.1-0.1c0,0,0-0.1-0.1-0.1c0,0-0.1,0-0.1,0
		s-0.1,0-0.1,0s-0.1-0.2-0.1-0.2c0,0,0-0.1,0-0.1h0.1c0,0,0,0,0.1,0c0.1,0,0.1,0,0.1-0.1s0-0.1-0.1-0.1h0v-0.1
		C16.7,28.6,16.7,28.5,16.7,28.5L16.7,28.5L16.7,28.5z M16.5,28.8C16.5,28.8,16.6,28.8,16.5,28.8C16.6,28.8,16.6,28.8,16.5,28.8
		C16.6,28.8,16.6,28.8,16.5,28.8C16.6,28.8,16.5,28.8,16.5,28.8 M16.2,31.9h0.2l0,0.2h0v0.1h0c0,0,0,0.1,0,0.1h0l0,0l-0.2,0
		c0,0,0-0.1,0-0.1c0,0,0-0.1-0.1-0.2S16.2,31.9,16.2,31.9 M16,32.1c0,0,0.1,0.1,0.1,0.2h-0.1L16,32.1z M15.4,24.8l1.2,3.4l0,0
		l-0.1-0.1c0,0,0-0.1,0-0.1c0,0,0-0.1,0-0.1c0,0-0.1-0.1-0.1-0.2c0,0-0.1-0.1-0.2-0.1c-0.1,0-0.2,0-0.2,0l-0.1-0.5
		c0-0.2,0-0.6,0-0.8c0-0.1-0.1-0.5-0.1-0.6s-0.1-0.4-0.1-0.4L15.4,24.8L15.4,24.8z M15.2,32.2c0,0,0.2,0,0.2,0c0,0-0.1,0.1-0.1,0.2
		h0l-0.1,0.1c0,0,0-0.1,0-0.1C15.2,32.3,15.2,32.2,15.2,32.2 M15.1,28.7l0.1,0.1v0.1L15.1,28.7L15.1,28.7L15.1,28.7z M15.2,28.5
		c0,0.1,0,0.2,0,0.2s-0.1-0.1-0.2-0.1c0,0,0,0-0.1-0.1c0,0-0.1,0-0.1,0v-0.1c0,0,0.1,0,0.1,0C15.1,28.5,15.2,28.4,15.2,28.5
		 M14.9,28c0,0-0.1,0.1,0,0.3l-0.1-0.1C14.8,28.2,14.8,28,14.9,28L14.9,28L14.9,28z M14.7,20.9v1.3l-0.1-0.2l0-0.3
		c0-0.4,0.1-2.6,0.1-2.9C14.7,19.7,14.7,20.8,14.7,20.9 M14.6,15.4c0-0.2,0-0.6,0.1-1.1c0,0.3,0,0.5,0,0.6c0,0.2,0,0.9,0,1.7
		C14.6,16.1,14.6,15.6,14.6,15.4 M14.5,22.3l0,0.2h0l-0.1,0.1l0,0v-0.3L14.5,22.3L14.5,22.3z M14.5,21.5v0.2h0L14.5,21.5L14.5,21.5
		L14.5,21.5z M14.7,22.9L14.7,22.9l-0.1-0.1C14.6,22.8,14.7,22.9,14.7,22.9 M14.4,25.4C14.4,25.4,14.4,25.4,14.4,25.4
		c0.1-0.1,0.1,0.1,0.1,0.1s0.1,0,0.1-0.1v-0.1h0.1c0,0,0.1,0.1,0.1,0.2s0,0.2,0,0.2s0,0.1,0,0.1l-0.1,0c0,0,0,0,0,0s-0.1,0-0.1,0
		s0,0-0.1-0.1c0,0-0.1,0-0.1,0s0,0,0,0L14.4,25.4L14.4,25.4z M14.2,25.5C14.2,25.5,14.2,25.5,14.2,25.5L14.2,25.5L14.2,25.5z
		 M14.1,23.8c0.1,0,0.1,0.1,0.1,0.1s-0.1,0.1-0.1,0.1S14,24,14,23.9S14,23.8,14.1,23.8 M19.1,47.4c0-0.3-0.2-2.7-0.3-2.9
		s-0.1-1.4-0.1-1.7c0-0.3-0.1-1.6-0.1-1.9s-0.1-1.5-0.1-1.7c0-0.2-0.1-2-0.1-2s0.1,0,0.1,0c0,0,0-0.1,0-0.1c0-0.1-0.2-0.5-0.2-0.5
		c0-0.2-0.1-1.7-0.2-2c0-0.3-0.1-1.3-0.1-1.4S17.9,32,17.9,32s0.1,0,0.1-0.1c0-0.1-0.1-0.2-0.1-0.2c0,0,0-0.1,0-0.1s0.2,0.2,0.2,0.2
		s0.2,0.2,0.2,0.2c0,0,0.1,0.1,0.1,0.1c0,0,0.1,0.1,0.1,0.1s0,0.1,0,0.1c0,0,0,0.2,0,0.2c0,0,0,0.1,0,0.2c0,0,0.1,0.1,0.1,0.2
		c0,0,0.1,0.3,0.1,0.3s0,0.1,0,0.1c0,0,0.1,0.3,0.1,0.3c0,0.1,0.1,0.3,0.2,0.4c0,0-0.1,0.2-0.1,0.2c0,0.1,0,0.2,0,0.3s0,0.1,0.1,0.2
		c0,0.1,0,0.1,0.1,0.2s0.1,0.1,0.1,0.2s0,0.1,0.1,0.2s0,0.3,0.1,0.4c0,0,0.1,0.1,0.1,0.1c0,0,0,0.1,0,0.1s0,0.1,0,0.2s0,0.2,0,0.2
		c0,0,0,0.2,0,0.2l0,0c0,0,0,0.1,0,0.1c0,0,0,0.3,0,0.3c0,0.1,0,0.1,0,0.1l0,0.2c0,0,0,0,0,0.1s0,0.2,0,0.4s0.1,0.2,0.1,0.3
		c0.1,0,0.2,0,0.2,0s0,0,0.1,0c0,0,0.3,0,0.3,0v0c0,0,0.1,0,0.1,0s0.4,0,0.4,0s0.1,0,0.1,0s0,0,0-0.1c0,0,0.1-0.1,0.1-0.1l0.4,0.1
		l0,0.1c0.2,0,0.6,0.1,1.1,0c0.5,0,0.7-0.1,0.8-0.2c0.1-0.1,0.1-0.2,0.1-0.2s0-0.2,0-0.3c0,0-0.1,0-0.1,0c0-0.2-0.2-0.2-0.2-0.3
		c0,0-0.2,0-0.2,0s-0.1,0-0.1,0s-0.2,0-0.2,0c-0.1,0-0.2,0-0.3,0c0,0-0.1,0-0.1-0.1S22,36.9,22,36.9s-0.1,0-0.1,0s0,0,0,0
		s-0.1,0-0.1,0s0,0,0,0c0,0,0,0-0.1,0s0,0,0,0s0,0,0,0l0-0.1l0,0c0,0,0.2,0,0.2-0.1s0-0.2,0-0.2c0,0,0-0.2,0-0.2c0,0,0,0,0,0
		s0-0.2,0-0.2s0-0.2,0-0.3s-0.1-0.4-0.1-0.6s-0.1-0.5-0.1-0.7s-0.1-0.6-0.1-0.6s0.2,0.2,0.3,0.2c0,0,0.1,0,0.1,0
		c0,0,0.2,0.2,0.3,0.2c0.1,0,0.2,0,0.2,0.1s0.1,0.2,0.2,0.3s0.3,0.3,0.4,0.3c0.1,0,0.2,0.1,0.2,0.1s0,0,0,0s0,0,0,0l0.3,0.2l0.1,0
		l0.1,0v0.1c0,0,0.1,0.1,0.1,0.2c0,0,0.1,0.2,0.2,0.3c0.1,0.1,0.2,0.1,0.2,0.1c0,0,0,0,0.4-0.2c0.4-0.2,0.5-0.3,0.6-0.4
		c0,0,0-0.1,0-0.1s0-0.1,0-0.1l0.4-0.1l0.1,0l0.2-0.1c0.3-0.1,0.7-0.5,1-0.7c0.2-0.2,0.4-0.4,0.4-0.5c0-0.1,0-0.2,0-0.2
		s-0.1-0.2-0.2-0.2c0,0-0.1,0-0.1,0s-0.1,0-0.1-0.1s-0.2,0-0.3,0c0,0-0.1,0-0.1,0s-0.1,0.1-0.1,0.1c0,0-0.1,0-0.1,0
		c0,0-0.1,0-0.1,0.1s-0.1,0-0.1,0c0,0,0,0-0.1,0c0,0-0.1,0-0.1,0s0,0,0,0c0,0-0.1,0-0.1,0c0,0-0.1,0-0.1,0s0,0,0,0c0,0-0.2,0-0.2,0
		s0,0,0,0s0,0,0,0c0,0,0,0,0,0s0,0,0,0c0,0,0,0,0,0s-0.3-0.2-0.3-0.2c0,0,0-0.1,0-0.1s-0.1,0-0.1,0s-0.1,0.1-0.1,0.1s0-0.1,0-0.1
		s0,0,0,0S24,33.1,24,33.1s-0.1,0-0.1,0s0-0.1,0-0.2s-0.2,0-0.3-0.1c0,0,0,0-0.1,0s-0.2-0.1-0.3-0.1c0,0-0.1-0.1-0.1-0.2
		c0-0.1-0.3-0.4-0.4-0.4c0,0-0.2-0.1-0.3-0.2c-0.1,0-0.1-0.1-0.2-0.2c-0.1-0.1-0.3-0.2-0.3-0.3s-0.1,0-0.1,0s-0.1-0.1-0.1-0.1
		s0-0.1,0-0.1c0,0-0.1-0.1-0.1-0.2c-0.1-0.1-0.2-0.2-0.2-0.2s-0.2-0.4-0.3-0.4s-0.2-0.2-0.2-0.2c0,0-0.1-0.1-0.2-0.2
		c-0.1-0.1-0.6-0.3-0.7-0.4c-0.1,0-0.3-0.1-0.4-0.1s-0.5-0.1-0.5-0.1c0,0-0.2,0-0.2,0s-0.1,0-0.1,0c0,0-0.4,0-0.5,0s-0.4,0-0.4,0
		s-0.1,0-0.2,0c0,0-0.1,0-0.2,0l-1.9-5.1c0,0,0,0,0.1,0c0,0,0.1-0.2,0.1-0.2c0-0.1,0-0.2,0-0.2s0.1-0.1,0.1-0.2c0,0,0-0.1,0-0.1
		c0,0,0-0.1,0-0.1s0,0,0,0l-0.1-0.1c0,0,0,0,0-0.1s-0.1-0.1-0.1-0.1s-0.1,0-0.1,0l-0.1,0c0,0,0,0,0-0.1c0,0,0.1-0.2,0.1-0.2
		s0-0.1,0-0.1c0,0-0.1,0-0.1,0s-0.2,0-0.2,0V21c0-0.3-0.1-2.7-0.2-3c0,0,0-0.1,0-0.1c0-0.1,0-0.3,0-0.5c0-1,0.1-2.2,0.1-2.5
		c0-0.2,0-1,0-1.9c0-0.1,0-0.2,0-0.2c0-0.2,0-0.3,0.1-0.5c0.1-0.9,0.5-5,0.6-5h-0.1c0,0-0.3,2.8-0.5,4.3c0-0.4,0-0.6,0-0.8
		c0-0.4,0.1-3.5,0.1-3.6h-0.1c0,0-0.1,3.1-0.1,3.6c0,0.2,0,1.1,0,1.9c-0.1,0.9-0.2,2.2-0.2,2.7c0,0.5,0.1,1.9,0.1,2.4
		c0,0.5,0,0.9,0,1c0,0.1,0,1.4-0.1,2.2V21h-0.1v-0.3h-0.1V21h-0.1l0,0.8l-0.1-0.1v0.3l0.1-0.1l0,0.4h0.1v0.2h0l0,0.1l0.1,0.1v0
		c0,0-0.1,0-0.1,0.1c0,0,0,0.2,0,0.3s0,0.1,0,0.1c0,0,0,0.1,0,0.2c0,0,0,0.1-0.1,0.1c-0.1,0-0.2,0.1-0.2,0.2c0,0.1-0.1,0.2,0.1,0.3
		c0.1,0.1,0.2,0.1,0.2,0c0.1,0,0.1,0,0.1,0s0.1,0,0.1,0v0.4c0,0.1,0,0.5,0,0.6c0,0-0.2,0-0.3,0.1c-0.1,0.1-0.1,0.1-0.1,0.1
		s-0.1,0-0.1,0s0,0,0-0.1s0,0,0,0c0,0-0.1-0.1-0.1-0.1s-0.1-0.2-0.1-0.2c0,0-0.1-0.1-0.1-0.1c0,0,0-0.1,0-0.1c0,0,0,0-0.1-0.1
		s-0.2-0.2-0.2-0.2c0,0-0.1,0-0.1,0c0,0-0.1-0.1-0.2-0.2c-0.1,0-0.3-0.3-0.3-0.3l0,0l-0.1-0.1c0.1,0,0.3-0.3,0.3-0.4
		s0.1-0.2,0.1-0.2s0.1,0,0.1,0c0,0,0.2-0.3,0.2-0.3s0.2,0,0.3-0.1s0-0.3,0-0.3c0,0,0-0.2,0-0.5c0-0.4,0-0.5-0.2-0.9
		c-0.2-0.4-0.7-0.7-1.1-0.7c-0.4-0.1-0.8,0.1-1,0.3c0,0-0.2,0.2-0.4,0.5c-0.1,0.3-0.2,0.6-0.2,0.6c0,0-0.1,0.1-0.1,0.1
		c0,0,0,0.1,0,0.2c0,0.1,0.1,0.2,0.2,0.3c0,0-0.1,0-0.1,0.2s0,0.3,0.1,0.3c0,0,0,0.1,0,0.1s0,0.1,0.1,0.1l0,0.4c0,0-0.2,0-0.3,0.1
		c-0.1,0-0.1,0.1-0.1,0.2c0,0,0,0.1,0,0.1s-0.1,0.1-0.2,0.1s-0.1,0.2,0,0.2c0,0,0,0,0,0l0,0.1c0,0-0.1,0-0.1,0.1
		c0,0-0.1,0.1-0.1,0.1s-0.1,0-0.2,0.1c-0.1,0.1-0.2,0.2-0.2,0.4c0,0-0.2,0.2-0.4,0.4c-0.1,0.2-0.2,0.3-0.2,0.3s-0.1,0.1-0.1,0.2
		C9,25.8,9,26,9,26.1c0,0.1,0,0.3-0.1,0.4s-0.1,0.3-0.1,0.4c0,0-0.1,0.1-0.1,0.1s0,0,0,0.1c0,0-0.1,0.2-0.1,0.3c0,0.1,0,0.2,0,0.2
		c0,0-0.1,0.2-0.1,0.3s0,0,0,0.1c0,0-0.1,0.2-0.1,0.2s-0.2,0.3-0.3,0.3c0,0-0.1,0.2-0.1,0.3s-0.2,0.6-0.2,0.6s-0.2,0.7-0.2,1
		c0,0.3,0,0.6-0.1,0.8S7.5,31.9,7.5,32c0,0.1-0.1,0.3-0.1,0.3c0,0.1-0.1,0.4-0.2,0.5s0,0.1,0,0.2s0,0.2,0,0.2s0,0,0.1,0.1
		c0,0,0,0.1,0.1,0.2c0,0,0.1,0.2,0.1,0.2c0.1,0,0.2,0.1,0.2,0.1c0,0,0.1,0,0.1,0.1s0.2,0,0.2,0.1c0,0,0.1,0,0.1,0c0,0,0.2,0,0.2,0
		s0.1,0,0.1,0c0,0,0.1,0,0.1-0.1s-0.1-0.1-0.1-0.1c0,0,0-0.1-0.1-0.1s-0.1,0-0.1,0s-0.1,0-0.1,0c0,0-0.1,0-0.1,0l0-0.1l0,0
		c0,0,0-0.2,0-0.3s0-0.1,0-0.1c0,0,0.1-0.2,0.1-0.2s0-0.1,0-0.2c0,0,0-0.2,0-0.2s0-0.1,0-0.1s0-0.2,0-0.2s0.3-0.7,0.3-0.8
		s0.3-0.7,0.4-0.9C8.9,30.1,9,29.8,9,29.8C9,29.7,9,29.6,9,29.5c0-0.1,0.1-0.3,0.1-0.4s0.1-0.3,0.1-0.4c0,0,0.1-0.1,0.1-0.1
		c0,0,0.1-0.1,0.1-0.2c0,0,0.2-0.4,0.2-0.4h0.1c0,0,0,0,0,0.1c0,0-0.1,0.1-0.1,0.2c0,0.1,0,0.2,0,0.2l0,0.1v0.3l0.1,0l0,0.3l0,0.1
		c0,0-0.1,0.1-0.1,0.1v0.1c0,0,0,0-0.1,0.1s0,0.2,0,0.2c0,0,0,0,0,0s-0.1,0-0.1,0.1c0,0,0,0.2,0,0.3s0,0.2,0,0.2
		c0,0.1-0.1,0.7-0.1,0.8s-0.1,0.5-0.1,0.6s0,0.5,0,0.6s0,0.3,0,0.3s0,0.2,0,0.2s0,0.4,0,0.5s0,0.4,0,0.5s0,0.3,0,0.3s0,0.1,0,0.1
		c0,0-0.1,0.1,0,0.2s0,0.2,0.1,0.2c0,0,0,0,0,0s0,0.2,0,0.2c0,0,0,0.1,0,0.2c0,0-0.1,0.1-0.1,0.2c0,0,0,0.1,0,0.2s0,0.1,0,0.1
		s0,0.1,0.1,0.2c0,0,0,0,0,0.1s0,0.2,0,0.2c0,0,0,0.2,0,0.2c0,0,0,0.2,0,0.2s0,0.2,0,0.2l0,0c0,0,0,0.1,0,0.1c0,0,0.1,0.5,0.1,0.5
		s0,0.1,0,0.1l0,0h0c0.1,0.4,0.1,1.3,0.2,1.4c0,0.2,0.3,1.5,0.4,1.7c0,0,0,0,0,0c0.3,0.8,0.7,1.2,1.2,1.2c0,0,0,0,0,0
		c0.8,0,0.9-1.4,0.9-1.8c0-0.1,0.1-0.6,0.2-0.9c0.1-0.3,0.1-1.2,0.1-1.3c0-0.3,0.1-2.3,0.1-2.7c0,0,0,0,0-0.1c0,0,0-0.1,0-0.1
		s0,0,0.1,0c0,0,0-0.2,0-0.2s0.1,0,0.1,0c0.1,0,0.1-0.2,0.1-0.2l0,0v-0.1c0,0,0,0,0,0c0,0,0,0,0,0h-0.1v0c0,0,0.1,0,0.1,0s0,0,0,0
		c0-0.1-0.1-0.2-0.1-0.2c0.1,0,0.1-0.2,0.1-0.2v-0.5c0,0,0.2,0.1,0.2,0.2s0.2,0,0.2,0s0.4,0,0.4,0v0.1c0,0-0.2,0-0.1,0.2
		c0,0.2,0.1,1,0.1,1s0,0.2,0.1,0.3l0,0.1c0,0,0,0-0.1,0c0,0,0,0.2,0,0.2s0,0.2,0,0.2c0,0,0.1,0.3,0.1,0.4c0,0.1,0,0.2,0,0.2h0.1
		c0,0,0,0.4,0,0.4c0,0.1-0.1,0.5,0,0.8c0,0.3,0.1,1,0.1,1.2c0,0.1,0.1,0.7,0,0.9c0,0.2-0.1,0.6-0.1,1c-0.1,0.4-0.3,1.2-0.4,1.4
		s-0.2,0.8-0.2,1.1c0,0-0.1,0-0.1,0s0,0.2,0,0.3s0,0.2,0,0.2s0,0,0,0c0.1,0,0.1,0,0.1,0s0.1,0,0.1-0.1l0-0.3l0-0.2
		c0-0.2,0.1-0.7,0.1-0.9c0.1-0.2,0.2-0.8,0.3-1.2c0.1-0.4,0.1-1,0.1-1.1s0-0.5,0.1-0.6c0-0.1,0.1-1.2,0.1-1.4s0-0.4,0.1-0.8
		c0-0.4,0-1,0-1h0.1c0,0,0-0.1,0-0.1c0-0.1,0-0.3,0-0.4s0-0.1,0-0.1l-0.1-0.1c0-0.1,0.2-0.5,0.2-0.5s0.1-0.1,0.2-0.2s0-0.2,0-0.2
		l0,0c0,0,0.1,0.3,0.2,0.3c0,0,0.1,0.2,0.1,0.2c0,0,0.1,0.2,0.1,0.2c0,0,0.1,0.3,0.2,0.4s0.1,0.3,0.1,0.3c0,0,0,0,0,0
		s0.2,0.4,0.2,0.5s0.2,0.5,0.3,0.7c0.1,0.2,0.4,0.6,0.5,0.8c0,0,0,0,0.1,0s0.2-0.1,0.2-0.1s0,0,0-0.2c0-0.1-0.1-0.4-0.2-0.5
		c0,0,0,0,0.1,0c0,0,0.1-0.1,0.2-0.2c0.1-0.1,0-0.3-0.1-0.4c0-0.1-0.1-0.2-0.1-0.2s0-0.1,0-0.1c0,0,0-0.5,0-0.5s0,0,0.1,0
		s0.1-0.1,0.1-0.2s0-0.1,0-0.1s0,0,0,0s0-0.3,0-0.3c0,0,0-0.1,0-0.1c0,0,0-0.1,0-0.1c0,0,0,0,0,0s0,0,0,0h0c0,0,0,0.1,0,0.1
		c0,0,0.1,0.2,0.1,0.2c0,0,0,0.1,0,0.1s0,0.1,0,0.1c0,0,0.1,0.1,0.1,0.2c0,0,0,0,0,0.1c0,0,0,0.1,0,0.1c0,0,0,0,0,0.1s0,0.1,0,0.2
		c0,0,0,0,0,0.1s0,0.4,0,0.5c0,0.1-0.1,0.2-0.1,0.2s0,0.1,0,0.1s0,0,0,0c0.1,0,0.1,0,0.1,0s0.1,0,0.1,0c0,0,0-0.1,0-0.1
		s0.1-0.1,0.1-0.2s0-0.3,0-0.3c0,0,0-0.1,0-0.1s0,0,0,0c0,0,0.1,0,0.1,0c0,0,0.2-0.1,0.2-0.1c0.1,0,0-0.1,0-0.1s0,0,0,0s0-0.1,0-0.1
		s0.4,0.9,0.4,1c0,0,0.1,1.8,0.1,1.9c0,0.1,0.1,1.2,0.1,1.5s0.1,1.7,0.2,1.7c0,0.1,0.1,1.2,0.1,1.4c0,0.2,0.1,0.9,0.1,1.1
		c0,0.2,0.1,1.5,0.1,1.8c0,0.3,0,1.1,0.1,1.3"/>
	<path class="st2" d="M32.7,31.5c0-1.8,0.3-2.8,0.2-4c0-0.4,0.2-0.8,0-1.2c-0.1-0.3,0-0.8-0.1-1.1c-0.1-0.5,0.1-0.9,0.1-1.3
		c-0.2-0.2,0-1-0.1-1.2c-0.2-0.8-0.1-1.8-0.1-2.6c0-0.7-0.1-1.4-0.1-2c-0.2-0.2-0.2-1.6-0.4-1.9c-0.4-1-0.5-2.3-0.5-3.4
		C31.5,12.6,31,11.4,31,11c-0.6,0,0.2,0.1-0.4,0.1s-2.5-0.3-2.9,0c-0.2,0-1.1,0.3-1.1,0.4c-0.2,0-0.8,0.4-0.8,0.5
		c-0.4,0-0.5,0.6-0.5,0.8c0,0.1,0.2,0.3,0.4,0.3c0.1,0,0.1,0,0.2-0.1c0.2,0.4,0.4,0.7,0.6,1c0.1,0.2,0.2,0.8,0.4,1
		c0.1,0.2,0.1,0.4,0.2,0.6c0.1,0.2,0,0.5,0.1,0.8c0,1.1,0,2.3-0.1,3.5c0.1,0.6,0.3,1.7,0.2,2.3c-0.3,2-0.2,2.3-0.3,4.2
		c0,1.1-0.3,2.2-0.5,3.3c0,0.5,0,1-0.1,1.5c-0.4,1.2-0.1,2.6-0.4,3.8C25.3,38,25.2,41,25.2,44c-0.2,0.2,0,0.6-0.1,0.8
		c-0.3,0.8-0.1,1.8-0.1,2.6c3.2,0,4.1,0.1,7.3,0.1c0-1.7-0.6-3.2-0.5-4.9c0-0.5-0.2-3,0.2-3.4c0-0.2,0-0.9,0.1-1
		c0-0.3-0.1-1,0.1-1.2"/>
	<path class="st2" d="M7.1,10.8C7.8,10.9,8.4,11,9,11.2c0-0.1,1.3,0.2,1.5,0.2c0.4,0,0.4,0.5,0.8,0.4c0.2-0.1-0.2,0.4,0,0.2
		c0-0.1,0.5-0.2,0.6-0.4c0.3,0,0.6,0.1,0.9,0.1c0.1-0.1,1.4,0,1.7,0c0,0.1,0.3,0,0.4,0c0,0,0.4,0.6,0.4,0.6c0,0.4,0.7,0.1,0.7,0.4
		c-0.1,0-0.3,0.3-0.3,0.4c-1.2,0.4-0.9,0.5-1.2,0.7c0,0.2-0.3,0.1-0.7,0.5c0,0.2-0.8-1-0.9-1c0.6,0.6,1.2,1.2,1.6,1.2
		c0-0.3,2.2-1.4,2.8-1.4c0-0.3-0.1-0.2,0.2-0.5c0.7,0,2.4-0.9,3.2-0.9c0.7-0.2,0.8,0.3,1.5,0.1c0,0.2,1.1,0.5,1.1,0.7
		c0,0.5,0.9-0.4,0.9,0.2c0.1,0,0.2,0.3,0.4,0.3c-0.1,0.4-2.1,2.3-2.5,2.5c-0.2,0.2-1.5,0.7-1.6,0.7c-0.1,0.1-1.2,1-1.4,1
		c0,0.6,1.1-0.5,1.6-0.2c0.8-0.5,1.1-0.4,1.3-0.6c0.1,0,1.1-0.4,1.1-0.5c0.1,0,0.9-0.9,1.2-1.2c0.7-0.4,1.8-0.9,2-1.3
		c0.1,0,1.5-0.9,1.8-1.2c0.2,0,0.5-0.1,0.7-0.2c0.8,0,2-0.5,2.8-0.7c0.2,0,1-0.1,1-0.2c0.3,0,2.4,0.4,2.7,0.7c0.9,0.1,2.1,0.1,3,0
		c0.1,0.1,0.2,0,0.2,0.1c0.1,0,0.1-0.1,0.2,0c0.1,0,0.1-0.1,0.2,0c0.1,0,0.8,0.2,0.8,0.3c0.2,0,1.2,0.6,1.3,0.7
		c0.2,0.1,1.4,0.8,1.5,1c0.2,0,0.4,0.1,0.6,0.2c0.3,0.1,0.7-0.2,1-0.1c0.8,0.1,1.5,0.2,2.3,0.3c0.5-0.1,0.9,0,1.4-0.1
		c0.2,0.2,2.1-0.2,2.5-0.3c0-0.1,1.9-0.7,2.3-0.8c0,0,0-0.1,0-0.1c0-0.3-0.5-0.8-0.7-0.8c-0.2,0.2-0.4,0.3-0.7,0.5
		c-0.5,0.1-1.1,0.3-1.7,0.4c0-0.2-0.8,0-1,0c-0.2-0.1-3.1-0.1-3.5-0.1c-0.3-0.2-0.8-0.3-1.1-0.5c0,0,0,0-0.1,0
		c-0.5-0.3-1.2-0.4-1.7-0.5c-0.1-0.4,0.4-0.4,0.8-0.4c0.2-0.2,2.1-0.4,2.6-0.4c1.1,0,4.5-1.5,5.3-1.9c0.2,0,1.4,1.1,1.4,1
		c0.5,0,1.1-0.1,1.5-0.1c0,0,1.3,0.5,1.8,0.4c0.5-0.2,1.1-0.5,1.5-0.5c0-0.3,1.2-0.7,1.5-0.7c0-0.1-0.1-0.1-0.2-0.2
		c-0.2,0-0.6-0.2-0.8-0.3h-0.9c-0.4-0.1-0.8-0.1-1.2-0.1c-0.8,0.8-2.7-0.4-4-0.4c-0.4,0.1-0.8-0.1-1.2,0C49.6,8.7,48.7,9,47.8,9
		c-0.1-0.1-0.3-0.1-0.4-0.1c0-0.1-2.8-0.9-3.1-0.9c0-0.1,0-0.2,0.1-0.2c0.3-0.3,0.4-1.1,0.4-1.1c0.2,0,0.7-0.3,0.7-0.4
		c0.2,0,1.2-0.4,1.2-0.5c0.3,0,1.1-0.5,1.1-0.8c0-0.1,0.1-0.2,0.1-0.4c-0.1-0.1-0.2-0.1-0.2-0.2c0,0.1-2,0.9-2,1c-1.3,0-2-0.6-3,0.5
		C42.3,5.9,42,6,41.8,6.1c-1,0-1.8-0.5-2.8-0.5c-0.5,0.4-2.3,0.7-3.1,0.7c-0.2-0.2-1.2-0.4-1.2-0.6h-0.1c0-0.3-0.2-0.5-0.2-0.8
		c0.2,0,0.3,0.2,0.6,0.2c0.7-0.7,2.3-0.9,2.3-2.2c0,0,0.3-0.4,0.3-0.4c-0.1,0-0.1,0-0.1-0.1c-0.8,0-1.5,0.2-2.2,0.2c0,0,0,0-0.1,0.1
		c-0.3,0-0.7,0.4-0.8,0.4c0,0.2,0,0.4,0.1,0.7L34,4.5c-0.5,0-2.5-0.1-2.9,0.3c-0.2,0.1-1.4,0.2-1.7,0.3c-1.1,0-0.9,1.1-2,1.1
		c-0.1,0.1-0.4,0.2-0.5,0.2c-0.3,0.3-1.3,0.1-1.8,0.1c-0.1-0.1-0.5,0.2-0.7,0.2c-0.1-0.1-1-0.8-1-0.8c0-0.4-1.5-1.8-1.9-2.2
		c-0.1,0-0.3,0-0.4-0.2c-0.3,0-0.7,0-1,0.1c-0.1-0.1-1-0.2-1.2-0.2c0,1,0.8,0.7,0.1,1.3c-0.8,0-1.1,0.2-1.7,0.8c0,0-0.4-0.7-0.4-0.6
		c-0.1,0-1.7,0.4-1.8,0.3c-1-3.2-3,0.8-4,1.6c-0.3,0-1.4,1.6-1.6,1.8C9.1,8.3,6.9,9.3,6.4,9.5c-0.5-0.2,0.1-0.2-0.3,0
		c-0.1,0-0.8,0-0.8,0.1c-0.2-0.1-1-0.6-1-0.5C4.2,9,3.8,9.2,3.7,9.3C3.6,9.6,3.9,9.7,4,9.9c0.3,0.2,0.6,0.4,0.9,0.6
		c0.4,0.1,2.1,0.1,2.1-0.1c0.2,0.1,1.1,0.1,1.1-0.1c0.2,0.1-0.8,0.4-0.8,0.3"/>
	<path class="st1" d="M26.5,4.4c0-0.5-0.8,0.1-0.9,0.1c0,0,0-0.1-0.1-0.1C25.7,4.3,26,4.1,26,4.1c0-0.3,0-0.3-0.3-0.3
		c0,0,0-0.1,0-0.1C25.9,3.7,26,3.6,26,3.6c0-0.3,0-0.3-0.3-0.3c0-0.5-0.8,0.1-0.9,0.1c0-0.1-0.7-0.4-0.9-0.4V3c0,0,0,0,0,0
		c0-0.2,0-0.3-0.3-0.3c0-0.3-0.2-0.2-0.5-0.1c-0.1-0.2-0.3-0.1-0.5,0c-0.2-0.1-0.6-0.3-0.7-0.3v0.1c0,0-0.1,0-0.1,0
		c-0.1-0.1-0.3-0.1-0.4-0.1v0.1c-0.1,0-0.2,0.1-0.3,0.2c-0.2,0.1-0.3,0.2-0.4,0.2c0-0.1-0.7-0.4-0.9-0.4v0.1c-0.1,0-0.1,0.1-0.2,0.2
		c-0.2-0.1-0.7,0.2-0.8,0.2c0-0.1-0.7-0.4-0.9-0.4v0.1c-0.2,0-0.5,0.5-0.6,0.6c0.1,0.1,0.1,0.1,0.2,0.2c-0.3-0.1-0.7-0.3-0.7,0
		c-0.3,0-0.3,0-0.3,0.3c0,0,0.4,0.2,0.5,0.3c0,0,0,0,0,0c-0.1,0-0.9-0.5-0.9-0.1c-0.3,0-0.3,0-0.3,0.3c0,0,0.5,0.3,0.5,0.3
		c0.1,0,0.1,0,0.2,0c-0.1,0.1-0.2,0.3-0.2,0.3c0,0,0,0,0,0C16.2,4.8,16,4.9,16,5c-0.1,0-0.9-0.5-0.9-0.1c-0.3,0-0.3,0-0.3,0.3
		c0,0,0.5,0.3,0.5,0.3c0.1,0,0.2,0,0.4,0c0,0-0.1,0.1-0.1,0.2c0,0,0.5,0.3,0.5,0.3c0.1,0,0.2,0,0.3,0c0.1,0.1,0.1,0.2,0.1,0.2
		c0,0,0.5,0.3,0.5,0.3c0.7,0,1.3,0.2,1.8,0.2c0,0,0-0.1,0.1-0.1c0.5,0,0.9,0.1,1.3,0.1c0,0,0,0,0-0.1c0,0,0,0.1,0,0.1
		c0.6,0,1.1-0.2,1.8-0.2c0,0,0.1-0.1,0.3-0.2c0.3,0,0.6-0.1,1-0.1c0,0,0.3-0.2,0.5-0.3c0.2,0,0.4,0,0.6,0c0,0,0.5-0.3,0.5-0.3
		c0-0.2,0-0.3-0.1-0.3c0.1-0.1,0.5-0.3,0.5-0.3c0-0.1,0-0.1,0-0.2c0.3,0,0.6-0.1,0.9-0.1c0,0,0.5-0.3,0.5-0.3
		C26.9,4.4,26.9,4.3,26.5,4.4 M17.4,5.1C17.4,5.1,17.4,5,17.4,5.1C17.4,5,17.4,5,17.4,5.1C17.4,5,17.4,5.1,17.4,5.1 M22.8,4.7
		L22.8,4.7L22.8,4.7C22.8,4.7,22.8,4.7,22.8,4.7 M22.9,3.8C22.9,3.8,22.9,3.8,22.9,3.8C22.9,3.8,22.9,3.9,22.9,3.8
		C22.9,3.9,22.9,3.9,22.9,3.8 M22.9,4.9C22.9,4.9,22.9,4.9,22.9,4.9C22.9,4.9,22.9,4.9,22.9,4.9C22.9,4.9,22.9,4.9,22.9,4.9
		 M23.3,3.7c0,0,0.1,0,0.1,0c0,0,0,0,0,0C23.4,3.6,23.4,3.7,23.3,3.7 M23.5,3.4C23.5,3.4,23.5,3.3,23.5,3.4L23.5,3.4
		c-0.1-0.1,0.1-0.2,0.2-0.3C23.7,3.2,23.6,3.3,23.5,3.4 M17.3,3.1C17.3,3.1,17.4,3.1,17.3,3.1c0-0.1-0.1-0.2-0.1-0.2
		C17.2,2.9,17.3,3,17.3,3.1 M16.3,4.7C16.3,4.7,16.3,4.7,16.3,4.7c0-0.1-0.1-0.2-0.1-0.2C16.2,4.6,16.2,4.7,16.3,4.7"/>
	<path class="st1" d="M18,4.9C18,4.5,17.3,5,17.2,5c0,0,0-0.1-0.1-0.1c0.1-0.1,0.4-0.2,0.5-0.2c0-0.3,0-0.3-0.3-0.3c0,0,0-0.1,0-0.1
		c0.1-0.1,0.3-0.2,0.3-0.2c0-0.3,0-0.3-0.3-0.3c0-0.5-0.8,0.1-0.9,0.1c0-0.1-0.7-0.4-0.9-0.4v0.1c0,0,0,0,0,0c0-0.2-0.1-0.3-0.3-0.3
		c0-0.3-0.2-0.2-0.5-0.1c-0.1-0.2-0.3-0.1-0.6,0c-0.2-0.1-0.6-0.3-0.7-0.3V3c0,0-0.1,0-0.1,0C13.2,2.9,13,2.9,13,2.9V3
		c-0.1,0-0.2,0.1-0.3,0.2c-0.2,0.1-0.3,0.2-0.4,0.2c0-0.1-0.7-0.4-0.9-0.4V3c-0.1,0-0.1,0.1-0.2,0.2C11,3,10.4,3.3,10.3,3.3
		c0-0.1-0.7-0.4-0.9-0.4V3C9.3,3,8.9,3.5,8.8,3.6C8.9,3.7,9,3.7,9,3.8c-0.3-0.1-0.7-0.3-0.7,0c-0.3,0-0.3,0-0.3,0.3
		c0,0,0.4,0.2,0.5,0.3c0,0,0,0,0,0.1c-0.1,0-0.9-0.5-0.9-0.1c-0.3,0-0.3,0-0.3,0.3c0,0,0.5,0.3,0.5,0.3c0.1,0,0.1,0,0.2,0
		C8,5.1,7.9,5.2,7.8,5.2c0,0,0,0,0,0C7.7,5.4,7.5,5.5,7.5,5.5C7.4,5.5,6.6,5,6.6,5.4c-0.3,0-0.3,0-0.3,0.3c0,0,0.5,0.3,0.5,0.3
		C7,6,7.1,6,7.2,6c0,0-0.1,0.1-0.1,0.2c0,0,0.5,0.3,0.5,0.3c0.2,0,0.3,0,0.4,0c0,0-0.1,0.1-0.1,0.2c0,0,0.5,0.3,0.5,0.3
		c0.7,0,1.3,0.2,1.8,0.2c0,0,0-0.1,0.1-0.1c0.5,0,0.9,0.1,1.3,0.1c0,0,0,0,0.1-0.1c0,0,0.1,0.1,0.1,0.1c0.6,0,1.1-0.2,1.8-0.2
		c0,0,0.1-0.1,0.3-0.2c0.3,0,0.6-0.1,1-0.1c0,0,0.3-0.2,0.4-0.3c0.2,0,0.4,0,0.6,0c0,0,0.5-0.3,0.5-0.3c0-0.2,0-0.3-0.1-0.3
		C16.6,5.9,17,5.7,17,5.7c0-0.1,0-0.1,0-0.2c0.3,0,0.6-0.1,0.9-0.1c0,0,0.5-0.3,0.5-0.3C18.4,4.9,18.3,4.9,18,4.9 M13,6.5
		C13,6.5,13,6.5,13,6.5C13,6.5,13,6.5,13,6.5C13,6.5,13,6.5,13,6.5 M14.3,5.2L14.3,5.2L14.3,5.2C14.3,5.2,14.3,5.2,14.3,5.2
		 M14.4,4.4C14.4,4.4,14.4,4.4,14.4,4.4C14.4,4.4,14.4,4.4,14.4,4.4C14.4,4.4,14.4,4.4,14.4,4.4 M14.4,5.4
		C14.4,5.4,14.4,5.4,14.4,5.4C14.4,5.4,14.4,5.4,14.4,5.4C14.4,5.4,14.4,5.4,14.4,5.4 M14.8,4.2c0,0,0.1,0,0.1-0.1c0,0,0,0,0,0
		C14.9,4.2,14.8,4.2,14.8,4.2 M15,3.9C15,3.9,15,3.8,15,3.9L15,3.9c-0.1-0.1,0.1-0.2,0.2-0.3C15.2,3.7,15.1,3.8,15,3.9 M8.8,3.6
		C8.8,3.6,8.8,3.6,8.8,3.6c0-0.1-0.1-0.2-0.2-0.2C8.7,3.4,8.8,3.5,8.8,3.6 M7.8,5.2C7.8,5.2,7.8,5.2,7.8,5.2c0-0.1-0.1-0.2-0.1-0.2
		C7.7,5.1,7.7,5.2,7.8,5.2"/>
	<path class="st1" d="M12.4,8.5c0-0.4-0.8,0.1-0.9,0.1c0,0,0-0.1-0.1-0.1c0.1-0.1,0.4-0.2,0.4-0.2c0-0.3,0-0.3-0.3-0.3
		c0,0,0-0.1,0-0.1c0.1-0.1,0.3-0.2,0.3-0.2c0-0.3,0-0.3-0.3-0.3C11.6,7,11.3,7,11.2,7c0-0.1,0.2-0.8,0.1-0.8c0,0-0.6,0.1-1.2,0.2
		c0-0.1,0-0.1-0.1,0C9.5,6.4,9,6.5,9,6.5c-0.1,0-0.1,0.1-0.1,0.2c-0.1,0-0.2,0.1-0.4,0.1C8.3,6.7,7.9,6.5,7.8,6.5v0.1
		c0,0-0.1,0-0.1,0C7.5,6.5,7.4,6.5,7.3,6.5v0.1C7.2,6.6,7.1,6.6,7,6.8C6.9,6.8,6.7,6.9,6.6,6.9c0-0.1-0.7-0.4-0.9-0.4v0.1
		c-0.1,0-0.2,0.1-0.2,0.2C5.4,6.6,4.8,6.9,4.7,6.9c0-0.1-0.7-0.4-0.9-0.4v0.1c-0.2,0-0.5,0.5-0.6,0.6c0.1,0.1,0.1,0.1,0.2,0.2
		c-0.3-0.1-0.7-0.3-0.7,0c-0.3,0-0.3,0-0.3,0.3c0,0,0.4,0.2,0.5,0.3c0,0,0,0,0,0.1C2.8,8,2,7.5,2,8C1.7,8,1.7,8,1.7,8.2
		c0,0,0.5,0.3,0.5,0.3c0.1,0,0.1,0,0.2,0C2.3,8.7,2.2,8.8,2.2,8.8c0,0,0,0,0,0C2,9,1.9,9.1,1.9,9.1C1.7,9.1,1,8.6,1,9
		c-0.3,0-0.3,0-0.3,0.3c0,0,0.5,0.3,0.5,0.3c0.1,0,0.2,0,0.4,0c0,0,0,0.1,0,0.2c0,0,0.5,0.3,0.5,0.3c0.2,0,0.3,0,0.4,0
		c0,0,0,0.1,0,0.2c0,0,0.5,0.3,0.5,0.3c0.7,0,1.3,0.1,1.8,0.1c0,0,0-0.1,0.1-0.1c0.5,0,0.9,0.1,1.3,0.1c0,0,0,0,0.1-0.1
		c0,0,0.1,0.1,0.1,0.1c0.6,0,1.2-0.1,1.8-0.1c0,0,0.1-0.1,0.3-0.2c0.3,0,0.6-0.1,1-0.1c0,0,0.3-0.2,0.4-0.3c0.2,0,0.4,0,0.6,0
		c0,0,0.5-0.3,0.5-0.3c0-0.2,0-0.3-0.1-0.3c0.1-0.1,0.5-0.3,0.5-0.3c0-0.1,0-0.1,0-0.2c0.3,0,0.6-0.1,0.9-0.1c0,0,0.5-0.3,0.5-0.3
		C12.7,8.5,12.7,8.5,12.4,8.5 M3.3,9.2C3.3,9.2,3.2,9.2,3.3,9.2C3.2,9.2,3.3,9.2,3.3,9.2C3.3,9.2,3.3,9.2,3.3,9.2 M8.7,8.9L8.7,8.9
		L8.7,8.9L8.7,8.9C8.7,8.9,8.7,8.9,8.7,8.9C8.7,8.9,8.7,8.9,8.7,8.9L8.7,8.9 M8.7,7.5L8.7,7.5C8.7,7.5,8.7,7.5,8.7,7.5
		C8.7,7.5,8.7,7.5,8.7,7.5 M3.2,7.2C3.2,7.2,3.2,7.2,3.2,7.2c0-0.1-0.1-0.2-0.2-0.2C3.1,7.1,3.2,7.2,3.2,7.2 M2.2,8.9
		C2.2,8.9,2.2,8.9,2.2,8.9c0-0.1-0.1-0.2-0.2-0.2C2.1,8.7,2.1,8.8,2.2,8.9"/>
	<path class="st1" d="M33.5,4.4c0-0.5-0.8,0.1-0.9,0.1c0,0,0-0.1-0.1-0.1C32.7,4.3,33,4.1,33,4.1c0-0.3,0-0.3-0.3-0.3
		c0,0,0-0.1,0-0.1C32.8,3.7,33,3.6,33,3.6c0-0.3,0-0.3-0.3-0.3c0-0.5-0.8,0.1-0.9,0.1c0-0.1-0.7-0.4-0.9-0.4V3c0,0,0,0,0,0
		c0-0.2,0-0.3-0.3-0.3c0-0.3-0.2-0.2-0.5-0.1c-0.1-0.2-0.3-0.1-0.5,0c-0.2-0.1-0.6-0.3-0.7-0.3v0.1c0,0-0.1,0-0.1,0
		c-0.1-0.1-0.3-0.1-0.4-0.1v0.1c-0.1,0-0.2,0.1-0.3,0.2c-0.2,0.1-0.3,0.2-0.4,0.2c0-0.1-0.7-0.4-0.9-0.4v0.1c-0.1,0-0.1,0.1-0.2,0.2
		c-0.2-0.1-0.7,0.2-0.8,0.2c0-0.1-0.7-0.4-0.9-0.4v0.1c-0.2,0-0.5,0.5-0.6,0.6c0.1,0.1,0.1,0.1,0.2,0.2c-0.3-0.1-0.7-0.3-0.7,0
		c-0.3,0-0.3,0-0.3,0.3c0,0,0.4,0.2,0.5,0.3c0,0,0,0,0,0c-0.1,0-0.9-0.5-0.9-0.1c-0.3,0-0.3,0-0.3,0.3c0,0,0.5,0.3,0.5,0.3
		c0.1,0,0.1,0,0.2,0c-0.1,0.1-0.2,0.3-0.2,0.3c0,0,0,0,0,0c-0.2,0.1-0.4,0.2-0.4,0.2c-0.1,0-0.9-0.5-0.9-0.1c-0.3,0-0.3,0-0.3,0.3
		c0,0,0.5,0.3,0.5,0.3c0.1,0,0.2,0,0.4,0c0,0,0,0.1,0,0.2c0,0,0.5,0.3,0.5,0.3c0.1,0,0.3,0,0.4,0c0,0,0,0.1,0,0.2
		c0,0,0.5,0.3,0.5,0.3c0.7,0,1.3,0.2,1.8,0.2c0,0,0-0.1,0.1-0.1c0.5,0,0.9,0.1,1.3,0.1c0,0,0,0,0-0.1c0,0,0,0.1,0,0.1
		c0.6,0,1.1-0.2,1.8-0.2c0,0,0.1-0.1,0.3-0.2c0.3,0,0.6-0.1,1-0.1c0,0,0.3-0.2,0.5-0.3c0.2,0,0.4,0,0.6,0c0,0,0.5-0.3,0.5-0.3
		c0-0.2,0-0.3-0.1-0.3c0.1-0.1,0.5-0.3,0.5-0.3c0-0.1,0-0.1,0-0.2c0.3,0,0.6-0.1,0.9-0.1c0,0,0.5-0.3,0.5-0.3
		C33.8,4.4,33.8,4.4,33.5,4.4 M24.3,5.1C24.3,5.1,24.3,5.1,24.3,5.1C24.3,5,24.3,5,24.3,5.1C24.4,5.1,24.3,5.1,24.3,5.1 M29.7,4.7
		L29.7,4.7L29.7,4.7C29.7,4.7,29.7,4.7,29.7,4.7 M29.8,3.9C29.8,3.9,29.8,3.9,29.8,3.9C29.8,3.9,29.8,3.9,29.8,3.9
		C29.8,3.9,29.8,3.9,29.8,3.9 M29.8,4.9C29.8,4.9,29.8,4.9,29.8,4.9C29.8,4.9,29.9,4.9,29.8,4.9C29.9,4.9,29.9,4.9,29.8,4.9
		 M30.2,3.7c0,0,0.1,0,0.1,0c0,0,0,0,0,0C30.3,3.7,30.3,3.7,30.2,3.7 M30.5,3.4C30.5,3.4,30.4,3.3,30.5,3.4L30.5,3.4
		c-0.1-0.1,0.1-0.2,0.2-0.3C30.6,3.2,30.5,3.3,30.5,3.4 M24.3,3.1C24.3,3.1,24.3,3.1,24.3,3.1c0-0.1-0.1-0.2-0.1-0.2
		C24.2,2.9,24.2,3,24.3,3.1 M23.2,4.7C23.2,4.7,23.2,4.7,23.2,4.7c0-0.1-0.1-0.2-0.1-0.2C23.1,4.6,23.2,4.7,23.2,4.7"/>
	<path class="st1" d="M44.8,3c0-0.5-0.8,0.1-0.9,0.1c0,0,0,0-0.1-0.1c0.1-0.1,0.4-0.2,0.5-0.2c0-0.3,0-0.3-0.3-0.3c0,0,0-0.1,0-0.1
		c0.1-0.1,0.3-0.2,0.3-0.2c0-0.3,0-0.3-0.3-0.3C44,1.5,43.2,2,43.1,2c0-0.1-0.7-0.4-0.9-0.4v0.1c0,0,0,0,0,0c0-0.2,0-0.3-0.3-0.3
		c0-0.3-0.2-0.2-0.5-0.1c-0.1-0.1-0.3-0.1-0.5,0C40.7,1.2,40.3,1,40.1,1v0.1c0,0-0.1,0-0.1,0C39.9,1,39.8,1,39.7,1V1
		c-0.1,0-0.2,0.1-0.3,0.2c-0.2,0.1-0.3,0.2-0.4,0.2C39,1.3,38.3,1,38.1,1V1c-0.1,0-0.2,0.1-0.2,0.1c-0.2-0.1-0.7,0.2-0.8,0.2
		c0-0.1-0.7-0.4-0.9-0.4V1c-0.2,0-0.5,0.5-0.6,0.6c0.1,0.1,0.1,0.1,0.2,0.2c-0.3-0.1-0.7-0.3-0.7,0c-0.3,0-0.3,0-0.3,0.3
		c0,0,0.4,0.2,0.5,0.3c0,0,0,0,0,0c-0.1,0-0.9-0.5-0.9-0.1c-0.3,0-0.3,0-0.3,0.3c0,0,0.5,0.3,0.5,0.3c0.1,0,0.1,0,0.2,0
		c-0.1,0.1-0.2,0.3-0.2,0.3c0,0,0,0,0,0c-0.2,0.1-0.3,0.2-0.3,0.2c-0.1,0-0.9-0.5-0.9-0.1c-0.3,0-0.3,0-0.3,0.3c0,0,0.5,0.3,0.5,0.3
		c0.1,0,0.2,0,0.4,0c0,0,0,0.1,0,0.2c0,0,0.5,0.3,0.5,0.3c0.2,0,0.3,0,0.4,0c0,0,0,0.1,0,0.2c0,0,0.5,0.3,0.5,0.3
		c0.7,0,1.3,0.2,1.8,0.2c0,0,0-0.1,0.1-0.1c0.5,0,0.9,0.1,1.3,0.1c0,0,0,0,0-0.1c0,0,0,0.1,0,0.1c0.6,0,1.2-0.2,1.8-0.2
		c0,0,0.2-0.1,0.3-0.2c0.3,0,0.6-0.1,1-0.1c0,0,0.3-0.2,0.5-0.3c0.2,0,0.4,0,0.6,0c0,0,0.5-0.3,0.5-0.3c0-0.1,0-0.2,0-0.2
		c0.1-0.1,0.4-0.3,0.4-0.3c0-0.1,0-0.1,0-0.2c0.3,0,0.6-0.1,0.9-0.1c0,0,0.5-0.3,0.5-0.3C45.1,3,45.1,3,44.8,3 M35.6,3.7
		C35.6,3.7,35.6,3.7,35.6,3.7C35.6,3.7,35.6,3.7,35.6,3.7C35.6,3.7,35.6,3.7,35.6,3.7 M41,3.4L41,3.4L41,3.4C41,3.4,41,3.4,41,3.4
		 M41.1,3.5C41.1,3.5,41.1,3.5,41.1,3.5C41.1,3.5,41.2,3.5,41.1,3.5C41.2,3.5,41.1,3.5,41.1,3.5 M35.5,1.7
		C35.5,1.7,35.6,1.7,35.5,1.7c0-0.1-0.1-0.2-0.2-0.2C35.4,1.6,35.5,1.6,35.5,1.7 M34.5,3.4C34.5,3.4,34.5,3.4,34.5,3.4
		c0-0.1-0.1-0.2-0.2-0.2C34.4,3.2,34.5,3.3,34.5,3.4"/>
	<path class="st1" d="M35.6,3.5c0-0.5-0.8,0.1-0.9,0.1c0,0,0,0-0.1-0.1c0.1-0.1,0.4-0.2,0.5-0.2c0-0.3,0-0.3-0.3-0.3
		c0,0,0-0.1,0-0.1c0.1-0.1,0.3-0.2,0.3-0.2c0-0.3,0-0.3-0.3-0.3c0-0.5-0.8,0.1-0.9,0.1C34,2.4,33.3,2,33.1,2v0.1c0,0,0,0,0,0
		c0-0.2,0-0.3-0.3-0.3c0-0.3-0.2-0.2-0.5-0.1c-0.1-0.1-0.3-0.1-0.5,0c-0.2-0.1-0.6-0.3-0.7-0.3v0.1c0,0-0.1,0-0.1,0
		c-0.1-0.1-0.3-0.1-0.4-0.1v0.1c-0.1,0-0.2,0.1-0.3,0.2c-0.2,0.1-0.3,0.2-0.4,0.2c0-0.1-0.7-0.4-0.9-0.4v0.1c-0.1,0-0.1,0.1-0.2,0.1
		c-0.2-0.1-0.7,0.2-0.8,0.2c0-0.1-0.7-0.4-0.9-0.4v0.1c-0.2,0-0.5,0.5-0.6,0.6c0.1,0.1,0.1,0.1,0.2,0.2c-0.3-0.1-0.7-0.3-0.7,0
		c-0.3,0-0.3,0-0.3,0.3c0,0,0.4,0.2,0.5,0.3c0,0,0,0,0,0c-0.1,0-0.9-0.5-0.9-0.1C25,2.9,25,3,25,3.2c0,0,0.5,0.3,0.5,0.3
		c0.1,0,0.1,0,0.2,0c-0.1,0.1-0.2,0.3-0.2,0.3c0,0,0,0,0,0c-0.2,0.1-0.4,0.2-0.4,0.3c-0.1,0-0.9-0.5-0.9-0.1c-0.3,0-0.3,0-0.3,0.3
		c0,0,0.5,0.3,0.5,0.3c0.1,0,0.2,0,0.4,0c0,0,0,0.1,0,0.2c0,0,0.5,0.3,0.5,0.3c0.1,0,0.3,0,0.4,0c0,0,0,0.1,0,0.2
		c0,0,0.5,0.3,0.5,0.3c0.7,0,1.3,0.2,1.8,0.2c0,0,0-0.1,0.1-0.1c0.5,0,0.9,0.1,1.3,0.1c0,0,0,0,0-0.1c0,0,0,0.1,0,0.1
		c0.6,0,1.1-0.2,1.8-0.2c0,0,0.1-0.1,0.3-0.2c0.3,0,0.6-0.1,1-0.1c0,0,0.3-0.2,0.5-0.3c0.2,0,0.4,0,0.6,0c0,0,0.5-0.3,0.5-0.3
		c0-0.2,0-0.3-0.1-0.3c0.1-0.1,0.5-0.3,0.5-0.3c0-0.1,0-0.1,0-0.2c0.3,0,0.6-0.1,0.9-0.1c0,0,0.5-0.3,0.5-0.3
		C36,3.5,35.9,3.4,35.6,3.5 M26.5,4.2C26.5,4.2,26.5,4.1,26.5,4.2C26.5,4.1,26.5,4.1,26.5,4.2C26.5,4.1,26.5,4.2,26.5,4.2 M31.9,3.8
		L31.9,3.8L31.9,3.8C31.9,3.8,31.9,3.8,31.9,3.8 M32,2.9C32,2.9,32,2.9,32,2.9C32,2.9,32,3,32,2.9C32,3,32,3,32,2.9 M32,4
		C32,4,32,4,32,4C32,4,32,4,32,4C32,4,32,4,32,4 M32.4,2.8C32.4,2.8,32.5,2.7,32.4,2.8c0.1,0,0.1,0,0.1,0
		C32.5,2.7,32.4,2.8,32.4,2.8 M32.6,2.5C32.6,2.5,32.6,2.4,32.6,2.5L32.6,2.5c-0.1-0.1,0.1-0.2,0.2-0.3C32.8,2.3,32.7,2.4,32.6,2.5
		 M26.4,2.2C26.4,2.2,26.4,2.2,26.4,2.2c0-0.1-0.1-0.2-0.1-0.2C26.3,2,26.4,2.1,26.4,2.2 M25.4,3.8C25.4,3.8,25.4,3.8,25.4,3.8
		c0-0.1-0.1-0.2-0.1-0.2C25.3,3.7,25.3,3.8,25.4,3.8"/>
	<path class="st1" d="M52.6,5.2c0-0.4-0.8,0.1-0.9,0.1c0,0,0-0.1-0.1-0.1c0.1-0.1,0.4-0.2,0.5-0.2c0.3-0.2,0-0.3-0.3-0.3
		c0,0,0-0.1,0-0.1c0.1-0.1,0.3-0.2,0.3-0.2c0-0.3,0-0.3-0.3-0.3c0-0.5-0.8,0.1-0.9,0.1c0-0.1-0.7-0.4-0.9-0.4v0.1c0,0,0,0,0,0
		c0-0.2,0-0.3-0.3-0.3c0-0.3-0.2-0.2-0.5-0.1c-0.1-0.2-0.3-0.1-0.5,0c-0.2-0.1-0.6-0.3-0.7-0.3v0.1c0,0-0.1,0-0.1,0
		c-0.2-0.1-0.3-0.1-0.3-0.1v0.1c-0.1,0-0.2,0.1-0.3,0.2c-0.2,0.1-0.3,0.2-0.4,0.2c0-0.1-0.7-0.4-0.9-0.4v0.1c-0.1,0-0.2,0.1-0.2,0.2
		c-0.2-0.1-0.7,0.2-0.8,0.2c0-0.1-0.7-0.4-0.9-0.4v0.1c-0.2,0-0.5,0.5-0.6,0.6c0.1,0.1,0.1,0.1,0.2,0.2c-0.3-0.1-0.7-0.3-0.7,0
		c-0.3,0-0.3,0-0.3,0.3c0,0,0.4,0.2,0.5,0.3c0,0,0,0,0,0.1c-0.1,0-0.9-0.5-0.9-0.1c-0.3,0-0.3,0-0.3,0.3c0,0,0.5,0.3,0.5,0.3
		c0.1,0,0.1,0,0.2,0c-0.1,0.1-0.2,0.3-0.2,0.3c0,0,0,0,0,0c-0.2,0.1-0.3,0.2-0.3,0.2c-0.1,0-0.9-0.5-0.9-0.1c-0.3,0-0.3,0-0.3,0.3
		c0,0,0.5,0.3,0.5,0.3c0.1,0,0.2,0,0.4,0c0,0,0,0.1,0,0.2c0,0,0.5,0.3,0.5,0.3c0.2,0,0.3,0,0.4,0c0,0,0,0.1,0,0.2
		c0,0,0.6,0.4,0.6,0.5c0.7,0,1.2,0,1.8,0c0,0,0-0.1,0.1-0.1c0.5,0,0.9,0.1,1.3,0.1c0,0,0,0,0-0.1c0,0,0,0.1,0,0.1
		c0.6,0,1.2-0.2,1.8-0.2c0,0,0.2-0.1,0.3-0.2c0.3,0,0.6-0.1,1-0.1c0,0,0.3-0.2,0.5-0.3c0.2,0,0.4,0,0.6,0c0,0,0.5-0.3,0.5-0.3
		c0-0.2,0-0.3-0.1-0.3C51.2,6.2,51.5,6,51.6,6c0-0.1,0-0.1,0-0.2c0.3,0,0.6-0.1,0.9-0.1c0,0,0.5-0.3,0.5-0.3
		C53,5.2,52.9,5.2,52.6,5.2 M43.5,5.9C43.5,5.9,43.5,5.9,43.5,5.9C43.5,5.8,43.5,5.8,43.5,5.9C43.5,5.9,43.5,5.9,43.5,5.9 M48.9,5.5
		L48.9,5.5L48.9,5.5C48.9,5.5,48.9,5.5,48.9,5.5 M49,4.7L49,4.7L49,4.7L49,4.7 M49,5.7C49,5.7,49,5.7,49,5.7C49,5.7,49,5.7,49,5.7
		C49,5.7,49,5.7,49,5.7 M50,3.9L50,3.9C50,3.9,50,3.9,50,3.9C50,3.9,50,3.9,50,3.9 M43.4,3.9C43.4,3.9,43.4,3.9,43.4,3.9
		c0-0.1-0.1-0.2-0.2-0.2C43.3,3.7,43.4,3.8,43.4,3.9 M42.4,5.5C42.4,5.5,42.4,5.5,42.4,5.5c0-0.1-0.1-0.2-0.2-0.2
		C42.3,5.4,42.3,5.5,42.4,5.5"/>
	<path class="st1" d="M42.7,4c0-0.5-0.8,0.1-0.9,0.1c0,0,0-0.1-0.1-0.1c0.1-0.1,0.4-0.2,0.5-0.2c0-0.3,0-0.3-0.3-0.3
		c0,0,0-0.1,0-0.1c0.1-0.1,0.3-0.2,0.3-0.2c0-0.3,0-0.3-0.3-0.3C41.9,2.5,41.2,3,41,3c0-0.1-0.7-0.4-0.9-0.4v0.1c0,0,0,0,0,0
		c0-0.2,0-0.3-0.3-0.3c0-0.3-0.2-0.2-0.5-0.1c-0.1-0.2-0.3-0.1-0.5,0C38.6,2.2,38.2,2,38.1,2v0.1c0,0-0.1,0-0.1,0
		C37.9,2,37.7,2,37.7,2V2c-0.1,0-0.2,0.1-0.3,0.2C37.2,2.3,37,2.4,37,2.4C37,2.3,36.3,2,36.1,2V2c-0.1,0-0.2,0.1-0.2,0.2
		c-0.2-0.1-0.7,0.2-0.8,0.2C35,2.3,34.3,2,34.2,2V2c-0.2,0-0.5,0.5-0.6,0.6c0.1,0.1,0.1,0.1,0.2,0.2c-0.3-0.1-0.7-0.3-0.7,0
		c-0.3,0-0.3,0-0.3,0.3c0,0,0.4,0.2,0.5,0.3c0,0,0,0,0,0c-0.1,0-0.9-0.5-0.9-0.1c-0.3,0-0.3,0-0.3,0.3c0,0,0.5,0.3,0.5,0.3
		c0.1,0,0.1,0,0.2,0c-0.1,0.1-0.2,0.3-0.2,0.3c0,0,0,0,0,0c-0.2,0.1-0.3,0.2-0.3,0.2c-0.1,0-0.9-0.5-0.9-0.1c-0.3,0-0.3,0-0.3,0.3
		c0,0,0.5,0.3,0.5,0.3c0.1,0,0.2,0,0.4,0c0,0,0,0.1,0,0.2c0,0,0.5,0.3,0.5,0.3c0.2,0,0.3,0,0.4,0c0,0,0,0.1,0,0.2
		c0,0,0.5,0.3,0.5,0.3c0.7,0,1.3,0.2,1.8,0.2c0,0,0-0.1,0.1-0.1c0.5,0,0.9,0.1,1.3,0.1c0,0,0,0,0-0.1c0,0,0,0.1,0,0.1
		c0.6,0,1.2-0.2,1.8-0.2c0,0,0.2-0.1,0.3-0.2c0.3,0,0.6-0.1,1-0.1c0,0,0.3-0.2,0.5-0.3c0.2,0,0.4,0,0.6,0c0,0,0.5-0.3,0.5-0.3
		c0-0.2,0-0.3-0.1-0.3c0.1-0.1,0.5-0.3,0.5-0.3c0-0.1,0-0.1,0-0.2c0.3,0,0.6-0.1,0.9-0.1c0,0,0.5-0.3,0.5-0.3C43.1,4,43,4,42.7,4
		 M33.6,4.7C33.6,4.7,33.6,4.7,33.6,4.7C33.6,4.6,33.6,4.6,33.6,4.7C33.6,4.7,33.6,4.7,33.6,4.7 M39,4.3L39,4.3L39,4.3
		C39,4.3,39,4.3,39,4.3 M39,3.5C39,3.5,39.1,3.5,39,3.5C39.1,3.5,39.1,3.5,39,3.5C39.1,3.5,39.1,3.5,39,3.5 M39.1,4.5
		C39.1,4.5,39.1,4.5,39.1,4.5C39.1,4.5,39.1,4.5,39.1,4.5C39.1,4.5,39.1,4.5,39.1,4.5 M39.5,3.3C39.5,3.3,39.6,3.3,39.5,3.3
		c0.1,0,0.1,0,0.1,0C39.6,3.3,39.5,3.3,39.5,3.3 M39.7,3C39.7,3,39.7,2.9,39.7,3L39.7,3c-0.1-0.1,0.1-0.2,0.2-0.3
		C39.9,2.8,39.8,2.9,39.7,3 M33.5,2.7C33.5,2.7,33.5,2.7,33.5,2.7c0-0.1-0.1-0.2-0.2-0.2C33.4,2.5,33.5,2.6,33.5,2.7 M32.5,4.3
		C32.5,4.3,32.5,4.3,32.5,4.3c0-0.1-0.1-0.2-0.2-0.2C32.4,4.2,32.4,4.3,32.5,4.3"/>
	<path class="st1" d="M42.1,4.3c0-0.5-0.8,0.1-0.9,0.1c0,0,0-0.1-0.1-0.1c0.1-0.1,0.4-0.2,0.5-0.2c0-0.3,0-0.3-0.3-0.3
		c0,0,0-0.1,0-0.1c0.1-0.1,0.3-0.2,0.3-0.2c0-0.3,0-0.3-0.3-0.3c0-0.5-0.8,0.1-0.9,0.1c0-0.1-0.7-0.4-0.9-0.4v0.1c0,0,0,0,0,0
		c0-0.2,0-0.3-0.3-0.3c0-0.3-0.2-0.2-0.5-0.1c-0.1-0.2-0.3-0.1-0.5,0c-0.2-0.1-0.6-0.3-0.7-0.3v0.1c0,0-0.1,0-0.1,0
		c-0.2-0.1-0.3-0.1-0.3-0.1v0.1c-0.1,0-0.2,0.1-0.3,0.2c-0.2,0.1-0.3,0.2-0.4,0.2c0-0.1-0.7-0.4-0.9-0.4v0.1c-0.1,0-0.2,0.1-0.2,0.2
		c-0.2-0.1-0.7,0.2-0.8,0.2c0-0.1-0.7-0.4-0.9-0.4v0.1c-0.2,0-0.5,0.5-0.6,0.6C33,3.1,33,3.1,33.1,3.2c-0.3-0.1-0.7-0.3-0.7,0
		c-0.3,0-0.3,0-0.3,0.3c0,0,0.4,0.2,0.5,0.3c0,0,0,0,0,0c-0.1,0-0.9-0.5-0.9-0.1c-0.3,0-0.3,0-0.3,0.3c0,0,0.5,0.3,0.5,0.3
		c0.1,0,0.1,0,0.2,0c-0.1,0.1-0.2,0.3-0.2,0.3c0,0,0,0,0,0c-0.2,0.1-0.4,0.2-0.4,0.2c-0.1,0-0.9-0.5-0.9-0.1c-0.3,0-0.3,0-0.3,0.3
		c0,0,0.5,0.3,0.5,0.3c0.1,0,0.2,0,0.4,0c0,0,0,0.1,0,0.2c0,0,0.5,0.3,0.5,0.3c0.1,0,0.3,0,0.4,0c0,0,0,0.1,0,0.2
		c0,0,0.5,0.3,0.5,0.3c0.7,0,1.3,0.2,1.8,0.2c0,0,0-0.1,0.1-0.1c0.5,0,0.9,0.1,1.3,0.1c0,0,0,0,0-0.1c0,0,0,0.1,0,0.1
		c0.6,0,1.2-0.2,1.8-0.2c0,0,0.2-0.1,0.3-0.2c0.3,0,0.6-0.1,1-0.1c0,0,0.3-0.2,0.5-0.3c0.2,0,0.4,0,0.6,0c0,0,0.5-0.3,0.5-0.3
		c0-0.2,0-0.3-0.1-0.3C40.6,5.3,41,5.1,41,5.1c0-0.1,0-0.1,0-0.2c0.3,0,0.6-0.1,0.9-0.1c0,0,0.5-0.3,0.5-0.3
		C42.5,4.3,42.4,4.3,42.1,4.3 M33,5C33,5,33,5,33,5C33,5,33,5,33,5C33,5,33,5,33,5 M38.4,4.7L38.4,4.7L38.4,4.7
		C38.4,4.7,38.4,4.7,38.4,4.7 M38.4,3.8C38.4,3.8,38.5,3.8,38.4,3.8C38.5,3.8,38.5,3.8,38.4,3.8C38.5,3.8,38.4,3.8,38.4,3.8
		 M38.5,4.8C38.5,4.8,38.5,4.8,38.5,4.8C38.5,4.8,38.5,4.8,38.5,4.8C38.5,4.8,38.5,4.8,38.5,4.8 M38.9,3.6
		C38.9,3.6,38.9,3.6,38.9,3.6c0.1,0,0.1,0,0.1,0C39,3.6,38.9,3.6,38.9,3.6 M39.1,3.3C39.1,3.3,39.1,3.3,39.1,3.3L39.1,3.3
		c-0.1-0.1,0.1-0.2,0.2-0.3C39.3,3.1,39.2,3.3,39.1,3.3 M32.9,3C32.9,3,32.9,3,32.9,3c0-0.1-0.1-0.2-0.2-0.2C32.8,2.9,32.8,3,32.9,3
		 M31.9,4.7C31.9,4.7,31.9,4.7,31.9,4.7c0-0.1-0.1-0.2-0.1-0.2C31.8,4.5,31.8,4.6,31.9,4.7"/>
	<path class="st1" d="M24.8,15.3c0-0.3-0.7,0.1-0.8,0.1c0,0,0,0-0.1-0.1c0.1-0.1,0.4-0.2,0.4-0.2c0-0.2,0-0.2-0.3-0.2
		c0,0,0-0.1,0-0.1c0.1-0.1,0.3-0.1,0.3-0.1c0-0.2,0-0.2-0.3-0.2c0-0.3-0.7,0.1-0.8,0.1c0-0.1-0.6-0.3-0.8-0.3c0,0,0,0,0,0.1
		c0,0,0,0,0,0c0-0.2-0.1-0.2-0.3-0.2c0-0.2-0.2-0.1-0.4-0.1c-0.1-0.1-0.3,0-0.5,0.1c-0.2-0.1-0.5-0.2-0.7-0.2c0,0,0,0,0,0.1
		c0,0-0.1,0-0.1,0c-0.1,0-0.2-0.1-0.3-0.1v0.1c-0.1,0-0.1,0.1-0.2,0.2c-0.1,0.1-0.3,0.1-0.3,0.1c0-0.1-0.6-0.3-0.8-0.3
		c0,0,0,0,0,0.1c-0.1,0-0.1,0.1-0.2,0.1c-0.2-0.1-0.6,0.2-0.7,0.2c0-0.1-0.6-0.3-0.8-0.3c0,0,0,0,0,0.1c-0.2,0-0.4,0.4-0.5,0.5
		c0,0,0.1,0.1,0.2,0.1c-0.2-0.1-0.6-0.2-0.6,0.1c-0.2,0-0.3,0-0.2,0.2c0,0,0.4,0.1,0.5,0.2c0,0,0,0,0,0c-0.1,0-0.8-0.4-0.8,0
		c-0.2,0-0.3,0-0.2,0.2c0,0,0.5,0.2,0.5,0.2c0.1,0,0.1,0,0.2,0c-0.1,0.1-0.2,0.2-0.2,0.2c0,0,0,0,0,0c-0.1,0.1-0.3,0.2-0.3,0.2
		c-0.1,0-0.8-0.4-0.8,0c-0.2,0-0.3,0-0.2,0.2c0,0,0.5,0.2,0.5,0.2c0.1,0,0.2,0,0.3,0c0,0,0,0.1,0,0.2c0,0,0.5,0.2,0.5,0.2
		c0.1,0,0.3,0,0.4,0c0,0,0,0.1,0,0.2c0,0,0.5,0.2,0.5,0.2c0.6,0,1.1,0,1.6,0c0,0,0,0,0-0.1c0.5,0,1,0.2,1.3,0.2c0,0,0-0.1,0.1-0.2
		c0.5,0,0.9-0.2,1.5-0.2c0,0,0.1-0.1,0.2-0.1c0.3,0,0.6-0.1,0.9-0.1c0,0,0.3-0.2,0.4-0.2c0.2,0,0.3,0,0.5,0c0,0,0.4-0.2,0.4-0.2
		c0-0.1,0-0.2-0.1-0.2c0.1-0.1,0.4-0.2,0.4-0.2c0-0.1,0-0.1,0-0.1c0.2,0,0.5-0.1,0.8-0.1c0,0,0.4-0.2,0.4-0.2
		C25.1,15.4,25.1,15.3,24.8,15.3 M16.7,14.9C16.7,14.9,16.7,14.9,16.7,14.9c0-0.1-0.1-0.1-0.1-0.2C16.6,14.8,16.6,14.8,16.7,14.9
		 M15.8,16.2C15.8,16.2,15.8,16.2,15.8,16.2c-0.1-0.1-0.1-0.1-0.1-0.1C15.8,16.1,15.8,16.1,15.8,16.2"/>
	<path class="st1" d="M16.9,12.7c0-0.3-0.7,0.1-0.8,0.1c0,0,0,0-0.1-0.1c0.1-0.1,0.4-0.2,0.4-0.2c0-0.2,0-0.2-0.3-0.2
		c0,0,0-0.1,0-0.1c0.1-0.1,0.3-0.1,0.3-0.1c0-0.2,0-0.2-0.3-0.2c0-0.3-0.7,0.1-0.8,0.1c0-0.1-0.6-0.7-0.8-0.5c0,0,0,0,0,0
		c0-0.1-0.1-0.1-0.1-0.1c0-0.2-0.3-0.1-0.6,0.1c-0.1-0.2-0.6,0-0.7,0c0-0.1-0.5-0.3-0.9-0.1c0,0,0,0,0,0.1c-0.1,0-0.2,0.1-0.2,0.2
		c-0.1,0.1-0.3,0.1-0.3,0.1c0-0.1-0.6-0.3-0.8-0.3c0,0,0,0,0,0.1c-0.1,0-0.1,0.1-0.2,0.1c-0.2-0.1-0.6,0.2-0.7,0.2
		c0-0.1-0.6-0.3-0.8-0.3c0,0,0,0,0,0.1c-0.2,0-0.4,0.4-0.5,0.5c0.1,0,0.1,0.1,0.2,0.1c-0.2-0.1-0.6-0.2-0.6,0.1
		c-0.2,0-0.3,0-0.2,0.2c0,0,0.4,0.1,0.4,0.2c0,0,0,0,0,0c-0.1,0-0.8-0.4-0.8,0c-0.2,0-0.3,0-0.2,0.2c0,0,0.5,0.2,0.5,0.2
		c0.1,0,0.1,0,0.2,0C8.1,13.5,8,13.6,8,13.6c0,0,0,0,0,0c-0.2,0.1-0.3,0.2-0.3,0.2c-0.1,0-0.8-0.4-0.8,0c-0.2,0-0.3,0-0.2,0.2
		c0,0,0.5,0.2,0.5,0.2c0.1,0,0.2,0,0.3,0c0,0,0,0.1,0,0.2c0,0,0.5,0.2,0.5,0.2c0.1,0,0.3,0,0.4,0c0,0,0,0.1,0,0.2
		c0,0,0.5,0.2,0.5,0.2c0.6,0,1.1,0,1.6,0c0,0,0-0.1,0.1-0.1c0.4,0,0.8,0,1.2,0c0,0,0,0,0-0.1c0,0,0,0,0,0.1c0.5,0,1-0.2,1.6-0.2
		c0,0,0.1-0.1,0.2-0.1c0.3-0.1,0.6-0.1,0.9-0.1c0,0,0.3-0.2,0.4-0.2c0.2,0,0.3,0,0.5-0.1c0,0,0.4-0.2,0.4-0.2c0-0.1,0-0.2-0.1-0.2
		c0.1-0.1,0.4-0.2,0.4-0.2c0-0.1,0-0.1,0-0.1c0.2,0,0.5-0.1,0.8-0.1c0,0,0.4-0.2,0.4-0.2C17.2,12.8,17.2,12.8,16.9,12.7 M13.6,13.3
		L13.6,13.3L13.6,13.3C13.6,13.3,13.6,13.3,13.6,13.3 M13.7,13.4C13.7,13.4,13.7,13.4,13.7,13.4C13.7,13.4,13.8,13.4,13.7,13.4
		C13.8,13.4,13.8,13.4,13.7,13.4 M8.8,12.4C8.8,12.4,8.8,12.4,8.8,12.4c0-0.1-0.1-0.1-0.1-0.2C8.7,12.2,8.7,12.3,8.8,12.4 M7.9,13.6
		C7.9,13.6,8,13.6,7.9,13.6c-0.1-0.1-0.1-0.1-0.1-0.2C7.9,13.5,7.9,13.6,7.9,13.6"/>
	<path class="st1" d="M48.2,4.7c0-0.3-0.7,0.1-0.8,0.1c0,0,0,0-0.1-0.1c0.1-0.1,0.4-0.2,0.4-0.2c0-0.2,0-0.2-0.3-0.2
		c0,0,0-0.1,0-0.1c0.1-0.1,0.3-0.1,0.3-0.1c0-0.2,0-0.2-0.3-0.2c0-0.3-0.7,0.1-0.8,0.1c0-0.1-0.6-0.3-0.8-0.3c0,0,0,0,0,0.1
		c0,0,0,0,0,0c0-0.2-0.1-0.2-0.3-0.2c0-0.2-0.2-0.1-0.4,0c-0.1-0.1-0.3,0-0.5,0.1c-0.2-0.1-0.5-0.2-0.7-0.2c0,0,0,0,0,0.1
		c0,0-0.1,0-0.1,0c-0.1,0-0.2-0.1-0.3-0.1c0,0,0,0,0,0.1c-0.1,0-0.2,0.1-0.2,0.2c-0.2,0.1-0.3,0.1-0.3,0.2c0-0.1-0.6-0.3-0.8-0.3
		v0.1c-0.1,0-0.1,0-0.2,0.1C41.9,3.7,41.4,4,41.3,4c0-0.1-0.6-0.3-0.8-0.3c0,0,0,0,0,0.1c-0.2,0-0.4,0.4-0.5,0.5
		c0,0,0.1,0.1,0.2,0.1c-0.2-0.1-0.6-0.2-0.6,0.1c-0.2,0-0.3,0-0.2,0.2c0,0,0.4,0.1,0.5,0.2c0,0,0,0,0,0c-0.1,0-0.8-0.3-0.8,0
		c-0.2,0-0.3,0-0.2,0.2c0,0,0.5,0.2,0.5,0.2c0,0,0.1,0,0.2,0c-0.1,0.1-0.2,0.2-0.2,0.2c0,0,0,0,0,0c-0.2,0.1-0.3,0.2-0.3,0.2
		c-0.1,0-0.8-0.3-0.8,0c-0.2,0-0.3,0-0.2,0.2c0,0,0.5,0.2,0.5,0.2c0.1,0,0.2,0,0.3,0c0,0,0,0.1,0,0.2c0,0,0.5,0.2,0.5,0.2
		c0.1,0,0.3,0,0.4,0c0,0,0,0.1,0,0.2c0,0,0.5,0.2,0.5,0.2c0.6,0,1.1,0,1.6,0c0,0,0-0.1,0.1-0.1c0.4,0,0.8,0,1.2,0c0,0,0,0,0-0.1
		c0,0,0,0,0,0.1c0.5,0,1-0.2,1.6-0.2c0,0,0.1-0.1,0.2-0.2c0.3-0.1,0.6-0.1,0.9-0.1c0,0,0.3-0.2,0.4-0.2c0.2,0,0.3,0,0.5-0.1
		c0,0,0.4-0.2,0.4-0.2c0-0.1,0-0.2-0.1-0.2c0.1-0.1,0.4-0.2,0.4-0.2c0-0.1,0-0.1,0-0.1c0.2,0,0.5-0.1,0.8-0.1c0,0,0.4-0.2,0.4-0.2
		C48.5,4.7,48.4,4.7,48.2,4.7 M40.2,5.8C40.2,5.8,40.2,5.8,40.2,5.8C40.2,5.8,40.2,5.8,40.2,5.8C40.2,5.8,40.2,5.8,40.2,5.8
		 M44.9,5.2L44.9,5.2L44.9,5.2C44.9,5.2,44.9,5.2,44.9,5.2 M44.9,4.6C44.9,4.6,44.9,4.6,44.9,4.6S44.9,4.6,44.9,4.6
		C44.9,4.6,44.9,4.6,44.9,4.6 M45,5.4C45,5.4,45,5.3,45,5.4C45,5.3,45,5.3,45,5.4C45,5.4,45,5.4,45,5.4 M45.3,4.4
		C45.3,4.4,45.3,4.4,45.3,4.4C45.4,4.4,45.4,4.4,45.3,4.4C45.3,4.4,45.3,4.4,45.3,4.4 M45.5,4.2C45.5,4.2,45.4,4.1,45.5,4.2
		L45.5,4.2C45.4,4.1,45.5,4,45.7,4C45.6,4,45.5,4.1,45.5,4.2 M40,4.3C40,4.3,40,4.3,40,4.3c0-0.1-0.1-0.1-0.1-0.2
		C39.9,4.2,40,4.2,40,4.3 M39.2,5.6C39.2,5.6,39.2,5.6,39.2,5.6c0-0.1-0.1-0.1-0.1-0.2C39.1,5.5,39.1,5.5,39.2,5.6"/>
	<path class="st1" d="M10.3,9.9c0-0.3-0.7,0.1-0.8,0.1c0,0,0,0-0.1-0.1c0.1-0.1,0.4-0.2,0.4-0.2c0-0.2-0.1-0.2-0.3-0.2
		c0,0,0-0.1,0-0.1c0.1-0.1,0.3-0.1,0.3-0.1c0-0.2-0.1-0.2-0.3-0.2c0-0.3-0.7,0.1-0.8,0.1C8.7,9.2,8.1,9,7.9,9V9l0,0
		c0-0.2-0.1-0.2-0.3-0.2c0-0.2-0.2-0.1-0.4-0.1C7.2,8.7,7,8.8,6.8,8.9C6.6,8.8,6.2,8.7,6.1,8.7c0,0,0,0,0,0.1c0,0-0.1,0-0.1,0
		c-0.1,0-0.2-0.1-0.3-0.1c0,0,0,0,0,0.1c-0.1,0-0.2,0.1-0.2,0.2C5.3,9,5.2,9.1,5.2,9.1c0-0.1-0.6-0.3-0.8-0.3c0,0,0,0,0,0.1
		C4.3,8.9,4.2,8.9,4.2,9C4,8.9,3.5,9.2,3.5,9.2c0-0.1-0.6-0.3-0.8-0.3c0,0,0,0,0,0.1C2.5,9,2.2,9.4,2.1,9.5c0,0,0.1,0.1,0.2,0.1
		C2.1,9.6,1.7,9.4,1.7,9.7c-0.2,0-0.3,0-0.2,0.2c0,0,0.4,0.1,0.5,0.2c0,0,0,0,0,0c-0.1,0-0.8-0.4-0.8,0c-0.2,0-0.3,0-0.2,0.2
		c0,0,0.5,0.2,0.5,0.2c0,0,0.1,0,0.2,0c-0.1,0.1-0.1,0.2-0.2,0.2c0,0,0,0,0,0C1.2,10.9,1.1,11,1.1,11c-0.1,0-0.8-0.4-0.8,0
		c-0.2,0-0.3,0-0.2,0.2c0,0,0.5,0.2,0.5,0.2c0.1,0,0.2,0,0.3,0c0,0,0,0.1,0,0.2c0,0,0.5,0.2,0.5,0.2c0.1,0,0.3,0,0.4,0
		c0,0,0,0.1,0,0.2c0,0,0.5,0.2,0.5,0.2c0.6,0,1.1,0,1.6,0c0,0,0-0.1,0.1-0.1c0.4,0,0.8,0,1.2,0c0,0,0,0,0-0.1c0,0,0,0,0,0.1
		c0.5,0,1-0.2,1.6-0.2c0,0,0.1-0.1,0.2-0.1c0.3-0.1,0.6-0.1,0.9-0.1c0,0,0.3-0.2,0.4-0.2c0.2,0,0.3,0,0.5-0.1c0,0,0.4-0.2,0.4-0.2
		c0-0.1,0-0.2-0.1-0.2c0.1-0.1,0.4-0.2,0.4-0.2c0-0.1,0-0.1,0-0.1c0.2,0,0.5-0.1,0.8-0.1c0,0,0.4-0.2,0.4-0.2
		C10.6,10,10.5,10,10.3,9.9 M7,10.5L7,10.5L7,10.5C7,10.5,7,10.5,7,10.5 M7,9.8C7,9.8,7,9.8,7,9.8S7,9.8,7,9.8C7,9.8,7,9.8,7,9.8
		 M7.1,10.6C7.1,10.6,7.1,10.6,7.1,10.6C7.1,10.6,7.1,10.6,7.1,10.6C7.1,10.6,7.1,10.6,7.1,10.6 M7.4,9.7C7.4,9.7,7.4,9.6,7.4,9.7
		c0.1-0.1,0.1-0.1,0.1,0C7.4,9.6,7.4,9.7,7.4,9.7 M7.6,9.4C7.6,9.4,7.5,9.4,7.6,9.4L7.6,9.4C7.5,9.4,7.6,9.3,7.7,9.2
		C7.7,9.3,7.6,9.4,7.6,9.4 M2.1,9.5C2.1,9.5,2.1,9.5,2.1,9.5C2.1,9.5,2,9.4,2,9.4C2,9.4,2.1,9.5,2.1,9.5 M1.3,10.8
		C1.3,10.8,1.3,10.8,1.3,10.8c-0.1-0.1-0.1-0.1-0.1-0.2C1.2,10.7,1.2,10.8,1.3,10.8"/>
	<path class="st1" d="M13.5,11c0-0.3-0.7,0.1-0.8,0.1c0,0,0,0-0.1-0.1c0.1-0.1,0.4-0.2,0.4-0.2c0-0.2-0.1-0.2-0.3-0.2
		c0,0,0-0.1,0-0.1c0.1-0.1,0.3-0.1,0.3-0.1c0-0.2-0.1-0.2-0.3-0.2c0-0.3-0.7,0.1-0.8,0.1c0-0.1-0.6-0.3-0.8-0.3c0,0,0,0,0,0.1
		c0,0,0,0,0,0c0-0.2-0.1-0.2-0.3-0.2c0-0.2-0.2-0.1-0.4-0.1c-0.1-0.1-0.3,0-0.5,0.1C9.9,9.9,9.5,9.7,9.4,9.8c0,0,0,0,0,0.1
		c0,0-0.1,0-0.1,0C9.2,9.8,9,9.8,9,9.8c0,0,0,0,0,0.1c-0.1,0-0.2,0.1-0.2,0.2c-0.1,0.1-0.3,0.1-0.3,0.1c0-0.1-0.6-0.3-0.8-0.3
		c0,0,0,0,0,0.1c-0.1,0-0.1,0.1-0.2,0.1c-0.2-0.1-0.6,0.2-0.7,0.2c0-0.1-0.6-0.3-0.8-0.3v0.1c-0.2,0-0.4,0.4-0.5,0.5
		c0.1,0,0.1,0.1,0.2,0.1C5.3,10.6,5,10.5,5,10.8c-0.2,0-0.3,0-0.2,0.2c0,0,0.4,0.1,0.4,0.2c0,0,0,0,0,0c-0.1,0-0.8-0.4-0.8,0
		c-0.2,0-0.3,0-0.2,0.2c0,0,0.5,0.2,0.5,0.2c0.1,0,0.1,0,0.2,0c-0.1,0.1-0.2,0.2-0.2,0.2c0,0,0,0,0,0c-0.2,0.1-0.3,0.2-0.3,0.2
		c-0.1,0-0.8-0.4-0.8,0c-0.2,0-0.3,0-0.2,0.2c0,0,0.5,0.2,0.5,0.2c0.1,0,0.2,0,0.3,0c0,0,0,0.1,0,0.2c0,0,0.5,0.2,0.5,0.2
		c0.1,0,0.3,0,0.4,0c0,0,0,0.1,0,0.2c0,0,0.5,0.2,0.5,0.2c0.6,0,1.1,0,1.6,0c0,0,0-0.1,0.1-0.1c0.4,0,0.8,0,1.2,0c0,0,0,0,0-0.1
		c0,0,0,0,0,0.1c0.5,0,1-0.2,1.6-0.2c0,0,0.1-0.1,0.2-0.1c0.3-0.1,0.6-0.1,0.9-0.1c0,0,0.3-0.2,0.4-0.2c0.2,0,0.3,0,0.5-0.1
		c0,0,0.4-0.2,0.4-0.2c0-0.1,0-0.2-0.1-0.2c0.1-0.1,0.4-0.2,0.4-0.2c0-0.1,0-0.1,0-0.1c0.2,0,0.5-0.1,0.8-0.1c0,0,0.4-0.2,0.4-0.2
		C13.8,11.1,13.8,11,13.5,11 M5.4,10.6C5.4,10.6,5.4,10.6,5.4,10.6c-0.1-0.1-0.1-0.1-0.1-0.2C5.3,10.5,5.3,10.5,5.4,10.6 M4.6,11.9
		C4.6,11.9,4.6,11.9,4.6,11.9c-0.1-0.1-0.1-0.1-0.1-0.2C4.5,11.8,4.5,11.8,4.6,11.9"/>
	<path class="st1" d="M59.3,10.4c0-0.3-0.7,0.1-0.8,0.1c0,0,0,0-0.1-0.1c0.1-0.1,0.4-0.2,0.4-0.2c0-0.2,0-0.2-0.3-0.2
		c0,0,0-0.1,0-0.1c0.1-0.1,0.3-0.1,0.3-0.1c0-0.2,0-0.2-0.3-0.2c0-0.3-0.7,0.1-0.8,0.1c0-0.1-0.6-0.3-0.8-0.3v0.1l0,0
		c0-0.2-0.1-0.2-0.3-0.2c0-0.2-0.2-0.1-0.4-0.1c-0.1-0.1-0.3,0-0.5,0.1c-0.2-0.1-0.5-0.2-0.7-0.2v0.1c0,0,0,0-0.1,0
		c-0.1,0-0.2-0.1-0.3-0.1v0.1c-0.1,0-0.2,0.1-0.2,0.2c-0.2,0.1-0.3,0.1-0.3,0.1c0-0.1-0.6-0.3-0.8-0.3c0,0,0,0,0,0.1
		c-0.1,0-0.1,0.1-0.2,0.1c-0.2-0.1-0.6,0.2-0.7,0.2c0-0.1-0.6-0.3-0.8-0.3c0,0,0,0,0,0.1c-0.2,0-0.4,0.2-0.5,0.2
		c0,0-0.2,0.2-0.3,0.2c0,0,0.1,0.1,0.2,0.1C51,10,50.7,10,50.8,10.2c-0.2,0-0.3,0-0.2,0.2c0,0,0.1,0.1,0.2,0.2
		c-0.2-0.1-0.6-0.2-0.5,0.1c-0.2,0-0.3,0-0.2,0.2c0,0,0.5,0.2,0.5,0.2c0,0,0.1,0,0.2,0c-0.1,0.1-0.2,0.2-0.2,0.2c0,0,0,0,0,0
		c-0.2,0.1-0.3,0.2-0.3,0.2c-0.1,0-0.8-0.4-0.8,0c-0.2,0-0.3,0-0.2,0.2c0,0,0.5,0.2,0.5,0.2c0.1,0,0.2,0,0.3,0c0,0,0,0.1,0,0.2
		c0,0,0.5,0.2,0.5,0.2c0.1,0,0.3,0,0.4,0c0,0,0,0.1,0,0.2c0,0,0.5,0.2,0.5,0.2c0.6,0,1.1,0,1.6,0c0,0,0-0.1,0.1-0.1
		c0.4,0,0.8,0,1.2,0c0,0,0,0,0-0.1c0,0,0,0,0,0.1c0.5,0,1-0.2,1.6-0.2c0,0,0.1-0.1,0.2-0.1c0.3-0.1,0.6-0.1,0.9-0.1
		c0,0,0.3-0.2,0.4-0.2c0.2,0,0.3,0,0.5-0.1c0,0,0.4-0.2,0.4-0.2c0-0.1,0-0.2-0.1-0.2c0.1-0.1,0.4-0.2,0.4-0.2c0-0.1,0-0.1,0-0.1
		c0.2,0,0.5-0.1,0.8-0.1c0,0,0.4-0.2,0.4-0.2C59.6,10.5,59.6,10.4,59.3,10.4 M51.3,11.5C51.3,11.5,51.3,11.5,51.3,11.5
		C51.3,11.5,51.3,11.5,51.3,11.5C51.4,11.5,51.3,11.5,51.3,11.5 M56,11L56,11L56,11C56,11,56,11,56,11 M56.1,10.3
		C56.1,10.3,56.1,10.3,56.1,10.3S56.1,10.3,56.1,10.3C56.1,10.3,56.1,10.3,56.1,10.3 M56.1,11.1C56.1,11.1,56.1,11.1,56.1,11.1
		C56.2,11.1,56.2,11.1,56.1,11.1C56.2,11.1,56.2,11.1,56.1,11.1 M56.4,10.2C56.4,10.2,56.5,10.1,56.4,10.2
		C56.5,10.1,56.5,10.1,56.4,10.2C56.5,10.1,56.5,10.1,56.4,10.2 M56.6,9.9C56.6,9.9,56.6,9.9,56.6,9.9L56.6,9.9
		c-0.1-0.1,0.1-0.2,0.2-0.2C56.7,9.8,56.7,9.9,56.6,9.9 M51,10C51,10,51,9.9,51,10C51,10,51,10,51,10 M50.3,11.3
		C50.3,11.3,50.4,11.3,50.3,11.3c0-0.1-0.1-0.1-0.1-0.2C50.3,11.2,50.3,11.3,50.3,11.3"/>
	<path class="st1" d="M29.6,3.2c0-0.3-0.7,0.1-0.8,0.1c0,0,0,0-0.1-0.1C28.9,3.1,29.2,3,29.2,3c0-0.2,0-0.2-0.3-0.2c0,0,0,0,0-0.1
		c0.1-0.1,0.3-0.1,0.3-0.1c0-0.2,0-0.2-0.3-0.2c0-0.3-0.7,0.1-0.8,0.1c0-0.1-0.6-0.3-0.8-0.3c0,0,0,0,0,0.1c0,0,0,0,0,0
		c0-0.2-0.1-0.2-0.3-0.2c0-0.2-0.2-0.1-0.4,0c-0.1-0.1-0.3,0-0.5,0.1C26,2,25.6,1.9,25.5,1.9c0,0,0,0,0,0.1c0,0-0.1,0-0.1,0
		c-0.1,0-0.2-0.1-0.3-0.1c0,0,0,0,0,0.1c-0.1,0-0.2,0.1-0.2,0.2c-0.1,0.1-0.3,0.1-0.3,0.2c0-0.1-0.6-0.3-0.8-0.3c0,0,0,0,0,0.1
		c-0.1,0-0.1,0-0.2,0.1c-0.2-0.1-0.6,0.2-0.7,0.2c0-0.1-0.6-0.3-0.8-0.3v0.1c-0.2,0-0.4,0.4-0.5,0.5c0,0,0.1,0.1,0.2,0.1
		c-0.2-0.1-0.6-0.2-0.6,0c-0.2,0-0.3,0-0.2,0.2c0,0,0.4,0.1,0.5,0.2c0,0,0,0,0,0c-0.1,0-0.8-0.3-0.8,0c-0.2,0-0.3,0-0.2,0.2
		c0,0,0.5,0.2,0.5,0.2c0,0,0.1,0,0.2,0C20.8,3.9,20.7,4,20.7,4c0,0,0,0,0,0c-0.2,0.1-0.3,0.2-0.3,0.2c-0.1,0-0.8-0.3-0.8,0
		c-0.2,0-0.3,0-0.2,0.2c0,0,0.5,0.2,0.5,0.2c0.1,0,0.2,0,0.3,0c0,0,0,0.1,0,0.2c0,0,0.5,0.2,0.5,0.2c0.1,0,0.3,0,0.4,0
		c0,0,0,0.1,0,0.2c0,0,0.5,0.2,0.5,0.2c0.6,0,1.1,0,1.6,0c0,0,0-0.1,0.1-0.1c0.4,0,0.8,0,1.2,0c0,0,0,0,0-0.1c0,0,0,0,0,0.1
		c0.5,0,1-0.2,1.6-0.2c0,0,0.1-0.1,0.2-0.2c0.3-0.1,0.6-0.1,0.9-0.1c0,0,0.3-0.2,0.4-0.2c0.2,0,0.3,0,0.5-0.1c0,0,0.4-0.2,0.4-0.2
		c0-0.1,0-0.2-0.1-0.2c0.1-0.1,0.4-0.2,0.4-0.2c0-0.1,0-0.1,0-0.1c0.2,0,0.5-0.1,0.8-0.1c0,0,0.4-0.2,0.4-0.2
		C29.9,3.2,29.9,3.2,29.6,3.2 M21.7,4.3C21.7,4.3,21.6,4.2,21.7,4.3C21.6,4.2,21.7,4.2,21.7,4.3C21.7,4.2,21.7,4.3,21.7,4.3
		 M26.4,3.7L26.4,3.7L26.4,3.7C26.4,3.7,26.4,3.7,26.4,3.7 M26.4,3C26.4,3,26.4,3,26.4,3S26.4,3,26.4,3C26.4,3,26.4,3,26.4,3
		 M26.5,3.8C26.5,3.8,26.5,3.8,26.5,3.8C26.5,3.8,26.5,3.8,26.5,3.8C26.5,3.8,26.5,3.8,26.5,3.8 M26.8,2.9
		C26.8,2.9,26.8,2.9,26.8,2.9c0.1,0,0.1,0,0.1,0C26.8,2.9,26.8,2.9,26.8,2.9 M27,2.7C27,2.7,26.9,2.6,27,2.7L27,2.7
		c-0.1-0.1,0.1-0.2,0.2-0.2C27.1,2.5,27,2.6,27,2.7 M21.5,2.8C21.5,2.8,21.5,2.8,21.5,2.8c0-0.1-0.1-0.1-0.1-0.2
		C21.4,2.7,21.4,2.7,21.5,2.8 M20.7,4.1C20.7,4.1,20.7,4.1,20.7,4.1c0-0.1-0.1-0.1-0.1-0.2C20.6,3.9,20.6,4,20.7,4.1"/>
	<path class="st1" d="M32.8,1.8c0-0.3-0.7,0.1-0.8,0.1c0,0,0,0-0.1-0.1c0.1-0.1,0.4-0.2,0.4-0.2c0-0.2,0-0.2-0.3-0.2c0,0,0,0,0-0.1
		c0.1-0.1,0.3-0.1,0.3-0.1C32.3,1,32.2,1,32,1c0-0.3-0.7,0.1-0.8,0.1c0-0.1-0.6-0.3-0.8-0.3c0,0,0,0,0,0.1c0,0,0,0,0,0
		c0-0.2-0.1-0.2-0.3-0.2c0-0.2-0.2-0.1-0.4-0.1c-0.1-0.1-0.3,0-0.5,0.1c-0.2-0.1-0.5-0.2-0.7-0.2c0,0,0,0,0,0.1c0,0-0.1,0-0.1,0
		c-0.1,0-0.2-0.1-0.3-0.1v0.1c-0.1,0-0.1,0.1-0.2,0.2c-0.1,0.1-0.3,0.1-0.3,0.2c0-0.1-0.6-0.3-0.8-0.3c0,0,0,0,0,0.1
		c-0.1,0-0.1,0.1-0.2,0.1C26.5,0.7,26,1,25.9,1c0-0.1-0.6-0.3-0.8-0.3c0,0,0,0,0,0.1c-0.2,0-0.4,0.4-0.5,0.5c0,0,0.1,0.1,0.2,0.1
		c-0.2-0.1-0.6-0.2-0.6,0c-0.2,0-0.3,0-0.2,0.2c0,0,0.4,0.1,0.5,0.2c0,0,0,0,0,0c-0.1,0-0.8-0.4-0.8,0c-0.2,0-0.3,0-0.2,0.2
		c0,0,0.5,0.2,0.5,0.2c0,0,0.1,0,0.2,0c-0.1,0.1-0.1,0.2-0.2,0.2c0,0,0,0,0,0c-0.2,0.1-0.3,0.2-0.3,0.2c-0.1,0-0.8-0.3-0.8,0
		c-0.2,0-0.3,0-0.2,0.2c0,0,0.5,0.2,0.5,0.2c0.1,0,0.2,0,0.3,0c0,0,0,0.1,0,0.2c0,0,0.5,0.2,0.5,0.2c0.1,0,0.3,0,0.4,0
		c0,0,0,0.1,0,0.2c0,0,0.5,0.2,0.5,0.2c0.6,0,1.1,0,1.6,0c0,0,0,0,0.1-0.1c0.4,0,0.8,0,1.2,0c0,0,0,0,0-0.1c0,0,0,0,0,0
		c0.5,0,1-0.2,1.6-0.2c0,0,0.1-0.1,0.2-0.2c0.3,0,0.6-0.1,0.9-0.1c0,0,0.3-0.2,0.4-0.2c0.2,0,0.3,0,0.5,0c0,0,0.4-0.2,0.4-0.2
		c0-0.1,0-0.2-0.1-0.2c0.1-0.1,0.4-0.2,0.4-0.2c0-0.1,0-0.1,0-0.1c0.2,0,0.5-0.1,0.8-0.1C32.6,2.2,33,2,33,2C33,1.8,33,1.8,32.8,1.8
		 M24.8,2.9C24.8,2.9,24.7,2.9,24.8,2.9C24.7,2.9,24.8,2.9,24.8,2.9C24.8,2.9,24.8,2.9,24.8,2.9 M29.5,2.3L29.5,2.3L29.5,2.3
		C29.5,2.3,29.5,2.3,29.5,2.3 M29.5,1.7C29.5,1.7,29.5,1.7,29.5,1.7S29.5,1.7,29.5,1.7C29.5,1.7,29.5,1.7,29.5,1.7 M29.6,2.5
		C29.6,2.5,29.6,2.4,29.6,2.5C29.6,2.4,29.6,2.4,29.6,2.5C29.6,2.5,29.6,2.5,29.6,2.5 M29.9,1.5C29.9,1.5,29.9,1.5,29.9,1.5
		c0.1,0,0.1,0,0.1,0C29.9,1.5,29.9,1.5,29.9,1.5 M30.1,1.3C30.1,1.3,30,1.2,30.1,1.3L30.1,1.3c-0.1-0.1,0.1-0.2,0.2-0.2
		C30.2,1.1,30.1,1.2,30.1,1.3 M24.6,1.4C24.6,1.4,24.6,1.4,24.6,1.4c0-0.1-0.1-0.1-0.1-0.2C24.5,1.3,24.5,1.3,24.6,1.4 M23.8,2.7
		C23.8,2.7,23.8,2.7,23.8,2.7c0-0.1-0.1-0.1-0.1-0.2C23.7,2.6,23.7,2.6,23.8,2.7"/>
	<path class="st1" d="M38.8,1.3c0-0.3-0.7,0.1-0.8,0.1c0,0,0,0-0.1-0.1c0.1-0.1,0.4-0.2,0.4-0.2c0-0.2,0-0.2-0.3-0.2
		c0,0,0-0.1,0-0.1c0.1-0.1,0.3-0.1,0.3-0.1c0-0.2,0-0.2-0.3-0.2c0-0.3-0.7,0.1-0.8,0.1c0-0.1-0.6-0.3-0.8-0.3c0,0,0,0,0,0.1
		c0,0,0,0,0,0c0-0.1-0.1-0.2-0.2-0.2c0-0.2-0.2-0.1-0.4,0c-0.1-0.1-0.3,0-0.5,0.1C35.1,0.1,34.7,0,34.6,0v0.1c0,0,0,0-0.1,0
		c-0.1,0-0.2-0.1-0.3-0.1v0.1c-0.1,0-0.2,0.1-0.2,0.2c-0.2,0.1-0.3,0.1-0.3,0.2c0-0.1-0.6-0.3-0.8-0.3v0.1c-0.1,0-0.1,0.1-0.2,0.1
		C32.5,0.2,32,0.5,32,0.5c0-0.1-0.6-0.3-0.8-0.3c0,0,0,0,0,0.1c-0.2,0-0.4,0.4-0.5,0.5c0,0,0.1,0.1,0.2,0.1c-0.2-0.1-0.6-0.2-0.6,0
		C30,1,30,1,30,1.2c0,0,0.4,0.1,0.5,0.2c0,0,0,0,0,0c-0.1,0-0.8-0.4-0.8,0c-0.2,0-0.3,0-0.2,0.2c0,0,0.5,0.2,0.5,0.2
		c0,0,0.1,0,0.2,0c-0.1,0.1-0.1,0.2-0.2,0.2c0,0,0,0,0,0c-0.2,0.1-0.3,0.2-0.3,0.2c-0.1,0-0.8-0.3-0.8,0c-0.2,0-0.3,0-0.2,0.2
		c0,0,0.5,0.2,0.5,0.2c0.1,0,0.2,0,0.3,0c0,0,0,0.1,0,0.2c0,0,0.5,0.2,0.5,0.2c0.1,0,0.3,0,0.4,0c0,0,0,0.1,0,0.2
		c0,0,0.5,0.2,0.5,0.2c0.6,0,1.1,0,1.6,0c0,0,0,0,0.1-0.1c0.4,0,0.8,0,1.2,0c0,0,0,0,0-0.1c0,0,0,0,0,0c0.5,0,1-0.2,1.6-0.2
		c0,0,0.1-0.1,0.2-0.2C35.7,3,36,3,36.3,3c0,0,0.3-0.2,0.4-0.2c0.2,0,0.3,0,0.5,0c0,0,0.4-0.2,0.4-0.2c0-0.1,0-0.2-0.1-0.2
		C37.5,2.2,37.9,2,37.9,2c0-0.1,0-0.1,0-0.1c0.2,0,0.5-0.1,0.8-0.1c0,0,0.4-0.2,0.4-0.2C39.1,1.3,39,1.3,38.8,1.3 M30.8,2.4
		C30.8,2.4,30.8,2.4,30.8,2.4C30.8,2.3,30.8,2.3,30.8,2.4C30.8,2.4,30.8,2.4,30.8,2.4 M35.5,1.8L35.5,1.8L35.5,1.8
		C35.5,1.8,35.5,1.8,35.5,1.8 M35.5,1.1L35.5,1.1C35.5,1.1,35.6,1.1,35.5,1.1L35.5,1.1 M35.6,1.9C35.6,1.9,35.6,1.9,35.6,1.9
		C35.6,1.9,35.7,1.9,35.6,1.9C35.7,1.9,35.7,1.9,35.6,1.9 M30.7,0.9C30.7,0.9,30.7,0.9,30.7,0.9c0-0.1-0.1-0.1-0.1-0.2
		C30.6,0.8,30.6,0.8,30.7,0.9 M29.8,2.2C29.8,2.2,29.9,2.2,29.8,2.2c0-0.1-0.1-0.1-0.1-0.2C29.8,2.1,29.8,2.1,29.8,2.2"/>
	<path class="st1" d="M20.4,3.8c0-0.3-0.7,0.1-0.8,0.1c0,0,0,0-0.1-0.1c0.1-0.1,0.4-0.2,0.4-0.2c0-0.2,0-0.2-0.3-0.2c0,0,0,0,0-0.1
		c0.1-0.1,0.3-0.1,0.3-0.1c0-0.2,0-0.2-0.3-0.2c0-0.3-0.7,0.1-0.8,0.1c0-0.1-0.6-0.3-0.8-0.3c0,0,0,0,0,0.1c0,0,0,0,0,0
		c0-0.2-0.1-0.2-0.3-0.2c0-0.2-0.2-0.1-0.4,0c-0.1-0.1-0.3,0-0.5,0.1c-0.2-0.1-0.5-0.2-0.7-0.2c0,0,0,0,0,0.1c0,0-0.1,0-0.1,0
		c-0.1,0-0.2-0.1-0.3-0.1c0,0,0,0,0,0.1c-0.1,0-0.2,0.1-0.2,0.2C15.4,2.9,15.3,3,15.3,3c0-0.1-0.6-0.3-0.8-0.3v0.1
		c-0.1,0-0.1,0-0.2,0.1c-0.2-0.1-0.6,0.2-0.7,0.2c0-0.1-0.6-0.3-0.8-0.3c0,0,0,0,0,0.1c-0.2,0-0.4,0.4-0.5,0.5
		c0.1,0,0.1,0.1,0.2,0.1c-0.2-0.1-0.6-0.2-0.6,0c-0.2,0-0.3,0-0.2,0.2c0,0,0.4,0.1,0.4,0.2c0,0,0,0,0,0c-0.1,0-0.8-0.3-0.8,0
		c-0.2,0-0.3,0-0.2,0.2c0,0,0.5,0.2,0.5,0.2c0.1,0,0.1,0,0.2,0c-0.1,0.1-0.1,0.2-0.2,0.2c0,0,0,0,0,0c-0.2,0.1-0.3,0.2-0.3,0.2
		c-0.1,0-0.8-0.3-0.8,0c-0.2,0-0.3,0-0.2,0.2c0,0,0.5,0.2,0.5,0.2c0.1,0,0.2,0,0.3,0c0,0,0,0.1,0,0.2c0,0,0.5,0.2,0.5,0.2
		c0.1,0,0.3,0,0.4,0c0,0,0,0.1,0,0.2c0,0,0.5,0.2,0.5,0.2c0.6,0,1.1,0,1.6,0c0,0,0-0.1,0.1-0.1c0.4,0,0.8,0,1.2,0c0,0,0,0,0-0.1
		c0,0,0,0,0,0.1c0.5,0,1-0.2,1.6-0.2c0,0,0.1-0.1,0.2-0.2c0.3-0.1,0.6-0.1,0.9-0.1c0,0,0.3-0.2,0.4-0.2c0.2,0,0.3,0,0.5-0.1
		c0,0,0.4-0.2,0.4-0.2c0-0.1,0-0.2-0.1-0.2c0.1-0.1,0.4-0.2,0.4-0.2c0-0.1,0-0.1,0-0.1c0.2,0,0.5-0.1,0.8-0.1c0,0,0.4-0.2,0.4-0.2
		C20.7,3.9,20.6,3.9,20.4,3.8 M12.4,4.9C12.4,4.9,12.4,4.9,12.4,4.9C12.4,4.9,12.4,4.9,12.4,4.9C12.4,4.9,12.4,4.9,12.4,4.9
		 M17.1,4.4L17.1,4.4L17.1,4.4C17.1,4.4,17.1,4.4,17.1,4.4 M17.2,3.7C17.2,3.7,17.2,3.7,17.2,3.7S17.2,3.7,17.2,3.7
		C17.2,3.7,17.2,3.7,17.2,3.7 M17.2,4.5C17.2,4.5,17.2,4.5,17.2,4.5C17.2,4.5,17.2,4.5,17.2,4.5C17.2,4.5,17.2,4.5,17.2,4.5
		 M17.5,3.6C17.5,3.6,17.6,3.5,17.5,3.6c0.1,0,0.1,0,0.1,0C17.6,3.5,17.5,3.6,17.5,3.6 M17.7,3.3C17.7,3.3,17.7,3.3,17.7,3.3
		L17.7,3.3c-0.1-0.1,0.1-0.2,0.2-0.2C17.8,3.2,17.8,3.3,17.7,3.3 M12.2,3.4C12.2,3.4,12.3,3.4,12.2,3.4c0-0.1-0.1-0.1-0.1-0.2
		C12.2,3.3,12.2,3.4,12.2,3.4 M11.4,4.7C11.4,4.7,11.4,4.7,11.4,4.7c0-0.1-0.1-0.1-0.1-0.2C11.3,4.6,11.4,4.7,11.4,4.7"/>
	<path class="st1" d="M22.2,13.4c0-0.3-0.7,0.1-0.8,0.1c0,0,0,0-0.1-0.1c0.1-0.1,0.4-0.2,0.4-0.2c0-0.2,0-0.2-0.3-0.2
		c0,0,0-0.1,0-0.1c0.1-0.1,0.3-0.1,0.3-0.1c0-0.2,0-0.2-0.3-0.2c0-0.3-0.7,0.1-0.8,0.1c0-0.1-0.6-0.3-0.8-0.3c0,0,0,0,0,0.1
		c0,0,0,0,0,0c0-0.2-0.1-0.2-0.3-0.2c0-0.2-0.2-0.1-0.4-0.1c-0.1-0.1-0.3,0-0.5,0.1c-0.2-0.1-0.5-0.2-0.7-0.2v0.1c0,0,0,0-0.1,0
		c-0.1,0-0.2-0.1-0.3-0.1c0,0,0,0,0,0.1c-0.1,0-0.2,0.1-0.2,0.2c-0.1,0.1-0.3,0.1-0.3,0.1c0-0.1-0.6-0.3-0.8-0.3c0,0,0,0,0,0.1
		c-0.1,0-0.1,0.1-0.2,0.1c-0.2-0.1-0.6,0.2-0.7,0.2c0-0.1-0.6-0.3-0.8-0.3c0,0,0,0,0,0.1c-0.2,0-0.4,0.4-0.5,0.5
		c0.1,0,0.1,0.1,0.2,0.1c-0.2-0.1-0.6-0.2-0.6,0.1c-0.2,0-0.3,0-0.2,0.2c0,0,0.4,0.1,0.4,0.2c0,0,0,0,0,0c-0.1,0-0.8-0.4-0.8,0
		c-0.2,0-0.3,0-0.2,0.2c0,0,0.5,0.2,0.5,0.2c0.1,0,0.1,0,0.2,0c-0.1,0.1-0.1,0.2-0.2,0.2c0,0,0,0,0,0c-0.2,0.1-0.3,0.2-0.3,0.2
		c-0.1,0-0.8-0.4-0.8,0c-0.2,0-0.3,0-0.2,0.2c0,0,0.5,0.2,0.5,0.2c0.1,0,0.2,0,0.3,0c0,0,0,0.1,0,0.2c0,0,0.5,0.2,0.5,0.2
		c0.1,0,0.3,0,0.4,0c0,0,0,0.1,0,0.2c0,0,0.5,0.2,0.5,0.2c0.6,0,1.1,0,1.6,0c0,0,0-0.1,0.1-0.1c0.4,0,0.8,0,1.2,0c0,0,0,0,0-0.1
		c0,0,0,0,0,0.1c0.5,0,1-0.2,1.6-0.2c0,0,0.1-0.1,0.2-0.1c0.3-0.1,0.6-0.1,0.9-0.1c0,0,0.3-0.2,0.4-0.2c0.2,0,0.3,0,0.5-0.1
		c0,0,0.4-0.2,0.4-0.2c0-0.1,0-0.2-0.1-0.2c0.1-0.1,0.4-0.2,0.4-0.2c0-0.1,0-0.1,0-0.1c0.2,0,0.5-0.1,0.8-0.1c0,0,0.4-0.2,0.4-0.2
		C22.5,13.5,22.4,13.5,22.2,13.4 M18.9,14L18.9,14L18.9,14C18.9,14,18.9,14,18.9,14 M14,13.1C14,13.1,14.1,13.1,14,13.1
		c0-0.1-0.1-0.1-0.1-0.2C14,13,14,13,14,13.1 M13.2,14.4C13.2,14.4,13.2,14.3,13.2,14.4c-0.1-0.1-0.1-0.1-0.1-0.2
		C13.1,14.2,13.2,14.3,13.2,14.4"/>
	<path class="st1" d="M58.7,7.7c0-0.4-0.8,0.1-0.9,0.1c0,0,0-0.1-0.1-0.1c0.1-0.1,0.4-0.2,0.5-0.2c0-0.3,0-0.3-0.3-0.3
		c0,0,0-0.1,0-0.1C58,7,58.1,6.9,58.1,6.9c0-0.3,0-0.3-0.3-0.3c0-0.4-0.8,0.1-0.9,0.1c0-0.1-0.7-0.4-0.9-0.4v0.1c0,0,0,0,0,0
		c0-0.2,0-0.3-0.3-0.3c0-0.3-0.2-0.2-0.5-0.1c-0.1-0.2-0.3-0.1-0.5,0c-0.2-0.1-0.6-0.3-0.7-0.3v0.1c0,0-0.1,0-0.1,0
		c-0.2-0.1-0.3-0.1-0.3-0.1v0.1c-0.1,0-0.2,0.1-0.3,0.2c-0.2,0.1-0.3,0.2-0.4,0.2c0-0.1-0.7-0.4-0.9-0.4v0.1c-0.1,0-0.2,0.1-0.2,0.2
		c-0.2-0.1-0.7,0.2-0.8,0.2c0-0.1-0.7-0.4-0.9-0.4v0.1c-0.2,0-0.5,0.5-0.6,0.6c0.1,0.1,0.1,0.1,0.2,0.2c-0.3-0.1-0.7-0.3-0.7,0
		c-0.3,0-0.3,0-0.3,0.3c0,0,0.4,0.2,0.5,0.3c0,0,0,0,0,0.1c-0.1,0-0.9-0.5-0.9-0.1c-0.3,0-0.3,0-0.3,0.3c0,0,0.5,0.3,0.5,0.3
		c0.1,0,0.1,0,0.2,0C48.6,7.8,48.5,8,48.4,8c0,0,0,0,0,0c-0.2,0.1-0.3,0.2-0.3,0.2c-0.1,0-0.9-0.5-0.9-0.1c-0.3,0-0.3,0-0.3,0.3
		c0,0,0.5,0.3,0.5,0.3c0.1,0,0.2,0,0.4,0c0,0,0,0.1,0,0.2c0,0,0.5,0.3,0.5,0.3c0.2,0,0.3,0,0.4,0c0,0,0,0.1,0,0.2
		c0,0,0.5,0.3,0.5,0.3c0.7,0,1.3,0.1,1.8,0.1c0,0,0-0.1,0.1-0.1c0.5,0,0.9,0.1,1.3,0.1c0,0,0,0,0-0.1c0,0,0,0.1,0,0.1
		c0.6,0,1.2-0.1,1.8-0.1c0,0,0.2-0.1,0.3-0.2c0.3,0,0.6-0.1,1-0.1c0,0,0.3-0.2,0.5-0.3c0.2,0,0.4,0,0.6,0c0,0,0.5-0.3,0.5-0.3
		c0-0.2,0-0.3-0.1-0.3c0.1-0.1,0.5-0.3,0.5-0.3c0-0.1,0-0.1,0-0.2c0.3,0,0.6-0.1,0.9-0.1C58.5,8.2,59,8,59,8
		C59,7.7,58.9,7.7,58.7,7.7 M49.5,8.4C49.5,8.4,49.5,8.4,49.5,8.4C49.5,8.3,49.5,8.3,49.5,8.4C49.5,8.4,49.5,8.4,49.5,8.4 M49.4,6.4
		C49.4,6.4,49.5,6.4,49.4,6.4c0-0.1-0.1-0.2-0.2-0.2C49.3,6.2,49.4,6.3,49.4,6.4 M48.4,8C48.4,8,48.4,8,48.4,8
		c0-0.1-0.1-0.2-0.2-0.2C48.3,7.9,48.4,8,48.4,8"/>
	<path class="st1" d="M64.4,9.6c0-0.4-0.8,0.1-0.9,0.1c0,0,0-0.1-0.1-0.1c0.1-0.1,0.4-0.2,0.5-0.2c0-0.3,0-0.3-0.3-0.3
		c0,0,0-0.1,0-0.1c0.1-0.1,0.3-0.2,0.3-0.2c0-0.3,0-0.3-0.3-0.3c0-0.4-0.8,0.1-0.9,0.1c0-0.1-0.7-0.4-0.9-0.4v0.1c0,0,0,0,0,0
		c0-0.2,0-0.3-0.3-0.3c0-0.3-0.2-0.2-0.5-0.1c-0.1-0.2-0.3-0.1-0.5,0c-0.2-0.1-0.6-0.3-0.7-0.3v0.1c0,0-0.1,0-0.1,0
		c-0.2-0.1-0.3-0.1-0.3-0.1v0.1c-0.1,0-0.2,0.1-0.3,0.2C58.9,7.9,58.7,8,58.7,8c0-0.1-0.7-0.4-0.9-0.4v0.1c-0.1,0-0.2,0.1-0.2,0.2
		C57.4,7.7,56.8,8,56.7,8c0-0.1-0.7-0.4-0.9-0.4v0.1c-0.2,0-0.5,0.5-0.6,0.6c0.1,0.1,0.1,0.1,0.2,0.2c-0.3-0.1-0.7-0.3-0.7,0
		c-0.3,0-0.3,0-0.3,0.3c0,0,0.4,0.2,0.5,0.3c0,0,0,0,0,0.1C54.8,9.1,54,8.6,54,9c-0.3,0-0.3,0-0.3,0.3c0,0,0.5,0.3,0.5,0.3
		c0.1,0,0.1,0,0.2,0c-0.1,0.1-0.2,0.3-0.2,0.3c0,0,0,0,0,0c-0.2,0.1-0.3,0.2-0.3,0.2c-0.1,0-0.9-0.5-0.9-0.1c-0.3,0-0.3,0-0.3,0.3
		c0,0,0.5,0.3,0.5,0.3c0.1,0,0.2,0,0.4,0c0,0,0,0.1,0,0.2c0,0,0.5,0.3,0.5,0.3c0.2,0,0.3,0,0.4,0c0,0,0,0.1,0,0.2
		c0,0,0.5,0.3,0.5,0.3c0.7,0,1.3,0.1,1.8,0.1c0,0,0-0.1,0.1-0.1c0.5,0,0.9,0.1,1.3,0.1c0,0,0,0,0-0.1c0,0,0,0.1,0,0.1
		c0.6,0,1.2-0.1,1.8-0.1c0,0,0.2-0.1,0.3-0.2c0.3,0,0.6-0.1,1-0.1c0,0,0.3-0.2,0.5-0.3c0.2,0,0.4,0,0.6,0c0,0,0.5-0.3,0.5-0.3
		c0-0.2,0-0.3-0.1-0.3c0.1-0.1,0.5-0.3,0.5-0.3c0-0.1,0-0.1,0-0.2c0.3,0,0.6-0.1,0.9-0.1c0,0,0.5-0.3,0.5-0.3
		C64.8,9.6,64.7,9.6,64.4,9.6 M55.3,10.3C55.3,10.3,55.3,10.3,55.3,10.3C55.3,10.3,55.3,10.3,55.3,10.3
		C55.3,10.3,55.3,10.3,55.3,10.3 M55.2,8.3C55.2,8.3,55.3,8.3,55.2,8.3c0-0.1-0.1-0.2-0.2-0.2C55.1,8.2,55.2,8.2,55.2,8.3 M54.2,10
		C54.2,10,54.2,10,54.2,10c0-0.1-0.1-0.2-0.2-0.2C54.1,9.8,54.1,9.9,54.2,10"/>
	<path class="st1" d="M58.7,13.7c0-0.4-0.8,0.1-0.9,0.1c0,0,0-0.1-0.1-0.1c0.1-0.1,0.4-0.2,0.5-0.2c0-0.3,0-0.3-0.3-0.3
		c0,0,0-0.1,0-0.1c0.1-0.1,0.3-0.2,0.3-0.2c0-0.3,0-0.3-0.3-0.3c0-0.4-0.8,0.1-0.9,0.1c0-0.1-0.7-0.4-0.9-0.4v0.1c0,0,0,0,0,0
		c0-0.2,0-0.2-0.3-0.2c0-0.3-0.2-0.2-0.5-0.1c-0.1-0.1-0.3-0.1-0.5,0c-0.2-0.1-0.6-0.3-0.7-0.3v0.1c0,0-0.1,0-0.1,0
		c-0.2-0.1-0.3-0.1-0.3-0.1v0.1c-0.1,0-0.2,0.1-0.3,0.2c-0.2,0.1-0.3,0.2-0.4,0.2c0-0.1-0.7-0.4-0.9-0.4v0.1c-0.1,0-0.2,0.1-0.2,0.1
		c-0.2-0.1-0.7,0.2-0.8,0.2c0-0.1-0.7-0.4-0.9-0.4v0.1c-0.2,0-0.5,0.5-0.6,0.6c0.1,0.1,0.1,0.1,0.2,0.2c-0.3-0.1-0.7-0.3-0.7,0
		c-0.3,0-0.3,0-0.3,0.3c0,0,0.4,0.2,0.5,0.3c0,0,0,0,0,0.1c-0.1,0-0.9-0.5-0.9-0.1c-0.3,0-0.3,0-0.3,0.3c0,0,0.2,0.1,0.4,0.2
		C48,13.8,47.6,14,47.6,14c0,0,0,0,0,0c0,0,0,0.1,0.1,0.1c-0.2-0.1-0.5-0.1-0.5,0.1c-0.3,0-0.3,0-0.3,0.3c0,0,0.5,0.3,0.5,0.3
		c0.1,0,0.2,0,0.4,0c0,0,0,0.1,0,0.2c0,0,0.5,0.3,0.5,0.3c0.2,0,0.3,0,0.4,0c0,0,0,0.1,0,0.2c0,0,0.5,0.3,0.5,0.3
		c0.7,0,1.3,0.1,1.8,0.1c0,0,0-0.1,0.1-0.1c0.5,0,0.9,0.1,1.3,0.1c0,0,0,0,0-0.1c0,0,0,0.1,0,0.1c0.6,0,1.2-0.1,1.8-0.1
		c0,0,0.2-0.1,0.3-0.2c0.3,0,0.6-0.1,1-0.1c0,0,0.3-0.2,0.5-0.3c0.2,0,0.4,0,0.5,0c0,0,0.5-0.3,0.5-0.3c0-0.2,0-0.3-0.1-0.3
		c0.1-0.1,0.5-0.3,0.5-0.3c0-0.1,0-0.1,0-0.2c0.3,0,0.6-0.1,0.9-0.1c0,0,0.5-0.3,0.5-0.3C59,13.7,58.9,13.7,58.7,13.7 M49.4,12.4
		C49.4,12.4,49.5,12.4,49.4,12.4c0-0.1-0.1-0.2-0.2-0.2C49.3,12.2,49.4,12.3,49.4,12.4"/>
	<path class="st1" d="M54,11.6c0-0.4-0.8,0.1-0.9,0.1c0,0,0-0.1-0.1-0.1c0.1-0.1,0.4-0.2,0.5-0.2c0-0.3,0-0.3-0.3-0.3
		c0,0,0-0.1,0-0.1c0.1-0.1,0.3-0.2,0.3-0.2c0-0.3,0-0.3-0.3-0.3c0-0.4-0.8,0.1-0.9,0.1c0-0.1-0.7-0.4-0.9-0.4v0.1c0,0,0,0,0,0
		c0-0.2,0-0.3-0.3-0.3c0-0.3-0.2-0.2-0.5-0.1c-0.1-0.1-0.3-0.1-0.5,0c-0.2-0.1-0.6-0.3-0.7-0.3v0.1c0,0-0.1,0-0.1,0
		c-0.2-0.1-0.3-0.1-0.3-0.1v0.1c-0.1,0-0.2,0.1-0.3,0.2c-0.2,0.1-0.3,0.2-0.4,0.2c0-0.1-0.7-0.4-0.9-0.4v0.1c-0.1,0-0.2,0.1-0.2,0.1
		c-0.2-0.1-0.7,0.2-0.8,0.2c0-0.1-0.7-0.4-0.9-0.4v0.1c-0.2,0-0.5,0.5-0.6,0.6c0.1,0.1,0.1,0.1,0.2,0.2c-0.3-0.1-0.7-0.3-0.7,0
		c-0.3,0-0.3,0-0.3,0.3c0,0,0.4,0.2,0.5,0.3c0,0,0,0,0,0.1c-0.1,0-0.9-0.5-0.9-0.1c-0.3,0-0.3,0-0.3,0.3c0,0,0.5,0.3,0.5,0.3
		c0.1,0,0.1,0,0.2,0c-0.1,0.1-0.2,0.3-0.2,0.3c0,0,0,0,0,0c-0.2,0.1-0.3,0.2-0.3,0.2c-0.1,0-0.9-0.5-0.9-0.1c-0.3,0-0.3,0-0.3,0.3
		c0,0,0.5,0.3,0.5,0.3c0.1,0,0.2,0,0.4,0c0,0,0,0.1,0,0.2c0,0,0.5,0.3,0.5,0.3c0.2,0,0.3,0,0.4,0c0,0,0,0.1,0,0.2
		c0,0,0.5,0.3,0.5,0.3c0.7,0,1.3,0.1,1.8,0.1c0,0,0-0.1,0.1-0.1c0.5,0,0.9,0.1,1.3,0.1c0,0,0,0,0-0.1c0,0,0,0.1,0,0.1
		c0.6,0,1.2-0.1,1.8-0.1c0,0,0.2-0.1,0.3-0.2c0.3,0,0.6-0.1,1-0.1c0,0,0.3-0.2,0.5-0.3c0.2,0,0.4,0,0.6,0c0,0,0.5-0.3,0.5-0.3
		c0-0.2,0-0.3-0.1-0.3c0.1-0.1,0.5-0.3,0.5-0.3c0-0.1,0-0.1,0-0.2c0.3,0,0.6-0.1,0.9-0.1c0,0,0.5-0.3,0.5-0.3
		C54.3,11.6,54.3,11.6,54,11.6 M44.8,12.3C44.8,12.3,44.8,12.3,44.8,12.3C44.8,12.3,44.9,12.3,44.8,12.3
		C44.9,12.3,44.9,12.3,44.8,12.3 M50.2,12L50.2,12L50.2,12C50.2,12,50.2,12,50.2,12 M50.3,11.1C50.3,11.1,50.3,11.1,50.3,11.1
		C50.3,11.1,50.3,11.1,50.3,11.1C50.3,11.1,50.3,11.1,50.3,11.1 M50.3,12.2C50.3,12.2,50.3,12.1,50.3,12.2
		C50.4,12.1,50.4,12.2,50.3,12.2C50.4,12.2,50.4,12.2,50.3,12.2 M50.7,10.9C50.7,10.9,50.8,10.9,50.7,10.9c0.1-0.1,0.1,0,0.1,0
		C50.8,10.9,50.8,10.9,50.7,10.9 M51,10.7c0-0.1,0-0.1-0.1-0.1l0,0c0,0,0.2-0.1,0.3-0.2C51.1,10.5,51,10.6,51,10.7 M44.8,10.3
		C44.8,10.3,44.8,10.3,44.8,10.3c0-0.1-0.1-0.2-0.2-0.2C44.7,10.2,44.7,10.3,44.8,10.3 M43.7,12C43.7,12,43.7,12,43.7,12
		c0-0.1-0.1-0.2-0.2-0.2C43.6,11.8,43.7,11.9,43.7,12"/>
	<path class="st1" d="M51.6,12.1c0-0.4-0.8,0.1-0.9,0.1c0,0,0-0.1-0.1-0.1c0.1-0.1,0.4-0.2,0.5-0.2c0-0.3,0-0.3-0.3-0.3
		c0,0,0-0.1,0-0.1c0.1-0.1,0.3-0.2,0.3-0.2c0-0.3,0-0.3-0.3-0.3c0-0.4-0.8,0.1-0.9,0.1c0-0.1-0.7-0.4-0.9-0.4v0.1c0,0,0,0,0,0
		c0-0.2,0-0.3-0.3-0.3c0-0.3-0.2-0.2-0.5-0.1c-0.1-0.1-0.3-0.1-0.5,0c-0.2-0.1-0.6-0.3-0.7-0.3v0.1c0,0-0.1,0-0.1,0
		c-0.2-0.1-0.3-0.1-0.3-0.1v0.1c-0.1,0-0.2,0.1-0.3,0.2c-0.2,0.1-0.3,0.2-0.4,0.2c0-0.1-0.7-0.4-0.9-0.4v0.1c-0.1,0-0.2,0.1-0.3,0.2
		c-0.2-0.1-0.7,0.2-0.8,0.2c0-0.1-0.7-0.4-0.9-0.4v0.1c-0.2,0-0.5,0.5-0.6,0.6c-0.2-0.1-0.4-0.1-0.4,0.1c-0.3,0-0.3,0-0.3,0.3
		c0,0,0.4,0.2,0.5,0.3c0,0,0,0,0,0.1c-0.1,0-0.9-0.5-0.9-0.1c-0.3,0-0.3,0-0.3,0.3c0,0,0.5,0.3,0.5,0.3c0.1,0,0.1,0,0.2,0
		c-0.1,0.2-0.2,0.3-0.3,0.3l0,0c-0.2,0.1-0.3,0.2-0.3,0.2c-0.1,0-0.9-0.5-0.9-0.1c-0.3,0-0.3,0-0.3,0.3c0,0,0.5,0.3,0.5,0.3
		c0.1,0,0.2,0,0.4,0c0,0,0,0.1,0,0.2c0,0,0.5,0.3,0.5,0.3c0.2,0,0.3,0,0.4,0c0,0,0,0.1,0,0.2c0,0,0.5,0.3,0.5,0.3
		c0.7,0,1.3,0.1,1.8,0.1c0,0,0-0.1,0.1-0.1c0.5,0.1,0.9,0.2,1.3,0.2c0.6,0,1.3,0.2,2-0.2c0,0,0.2-0.1,0.3-0.2c0.3,0,0.6-0.1,1-0.1
		c0,0,0.3-0.2,0.5-0.3c0.2,0,0.4,0,0.6,0c0,0,0.5-0.3,0.5-0.3c0-0.2,0-0.3-0.1-0.3c0.1-0.1,0.5-0.3,0.5-0.3c0-0.1,0-0.1,0-0.2
		c0.3,0,0.6-0.1,0.9-0.1c0,0,0.5-0.3,0.5-0.3C51.9,12.1,51.9,12,51.6,12.1 M47.8,12.4L47.8,12.4L47.8,12.4
		C47.8,12.4,47.8,12.4,47.8,12.4 M47.9,12.6C47.9,12.6,47.9,12.5,47.9,12.6C47.9,12.5,48,12.6,47.9,12.6
		C48,12.6,47.9,12.6,47.9,12.6 M47.9,11.6C47.9,11.6,47.9,11.6,47.9,11.6C47.9,11.5,47.9,11.5,47.9,11.6
		C47.9,11.5,47.9,11.6,47.9,11.6 M48.4,11.3c0,0-0.1,0-0.1,0C48.4,11.4,48.4,11.3,48.4,11.3C48.4,11.3,48.4,11.3,48.4,11.3
		 M48.8,10.8c-0.1,0.1-0.2,0.2-0.2,0.3c0-0.1,0-0.1-0.1-0.1l0,0C48.5,11,48.7,10.9,48.8,10.8"/>
	<path class="st1" d="M54.2,6.9c0-0.4-0.8,0.1-0.9,0.1c0,0,0-0.1-0.1-0.1c0.1-0.1,0.4-0.2,0.5-0.2c0-0.3,0-0.3-0.3-0.3
		c0,0,0-0.1,0-0.1c0.1-0.1,0.3-0.2,0.3-0.2c0-0.3,0-0.3-0.3-0.3c0-0.4-0.8,0.1-0.9,0.1c0-0.1-0.7-0.4-0.9-0.4v0.1c0,0,0,0,0,0
		c0-0.2,0-0.3-0.3-0.3C51.3,5,51,5,50.8,5.1c-0.1-0.2-0.3-0.1-0.5,0c-0.2-0.1-0.6-0.3-0.7-0.3v0.1c0,0-0.1,0-0.1,0
		c-0.2-0.1-0.3-0.1-0.3-0.1v0.1c-0.1,0-0.2,0.1-0.3,0.2c-0.2,0.1-0.3,0.2-0.4,0.2c0-0.1-0.7-0.4-0.9-0.4v0.1c-0.1,0-0.2,0.1-0.2,0.2
		c-0.2-0.1-0.7,0.2-0.8,0.2c0-0.1-0.7-0.4-0.9-0.4v0.1c-0.2,0-0.5,0.5-0.6,0.6c0.1,0.1,0.1,0.1,0.2,0.2c-0.3-0.1-0.7-0.3-0.7,0
		c-0.3,0-0.3,0-0.3,0.3c0,0,0.4,0.2,0.5,0.3c0,0,0,0,0,0.1c-0.1,0-0.9-0.5-0.9-0.1c-0.3,0-0.3,0-0.3,0.3c0,0,0.5,0.3,0.5,0.3
		c0.1,0,0.1,0,0.2,0C44.1,7,44,7.2,43.9,7.2c0,0,0,0,0,0c-0.2,0.1-0.3,0.2-0.3,0.2c-0.1,0-0.9-0.5-0.9-0.1c-0.3,0-0.3,0-0.3,0.3
		c0,0,0.5,0.3,0.5,0.3c0.1,0,0.2,0,0.4,0c0,0,0,0.1,0,0.2c0,0,0.5,0.3,0.5,0.3c0.2,0,0.3,0,0.4,0c0,0,0,0.1,0,0.2
		c0,0,0.5,0.3,0.5,0.3c0.7,0,1.3,0.1,1.8,0.1c0,0,0-0.1,0.1-0.1c0.5,0,0.9,0.1,1.3,0.1c0,0,0,0,0-0.1c0,0,0,0.1,0,0.1
		c0.6,0,1.2-0.1,1.8-0.1c0,0,0.2-0.1,0.3-0.2c0.3,0,0.6-0.1,1-0.1c0,0,0.3-0.2,0.5-0.3c0.2,0,0.4,0,0.6,0c0,0,0.5-0.3,0.5-0.3
		c0-0.2,0-0.3-0.1-0.3c0.1-0.1,0.5-0.3,0.5-0.3c0-0.1,0-0.1,0-0.2c0.3,0,0.6-0.1,0.9-0.1c0,0,0.5-0.3,0.5-0.3
		C54.5,6.9,54.4,6.9,54.2,6.9 M45,7.6C45,7.6,45,7.6,45,7.6C45,7.5,45,7.5,45,7.6C45,7.6,45,7.6,45,7.6 M50.4,7.2L50.4,7.2L50.4,7.2
		C50.4,7.2,50.4,7.2,50.4,7.2 M50.5,6.3C50.5,6.3,50.5,6.3,50.5,6.3C50.5,6.3,50.5,6.4,50.5,6.3C50.5,6.4,50.5,6.4,50.5,6.3
		 M50.5,7.4C50.5,7.4,50.5,7.4,50.5,7.4C50.5,7.4,50.5,7.4,50.5,7.4C50.5,7.4,50.5,7.4,50.5,7.4 M50.9,6.2C50.9,6.2,51,6.1,50.9,6.2
		c0.1-0.1,0.1,0,0.1,0C51,6.1,50.9,6.2,50.9,6.2 M51.1,5.9C51.1,5.9,51.1,5.8,51.1,5.9L51.1,5.9c-0.1-0.1,0.1-0.2,0.2-0.3
		C51.3,5.7,51.2,5.8,51.1,5.9 M44.9,5.6C44.9,5.6,44.9,5.6,44.9,5.6c0-0.1-0.1-0.2-0.2-0.2C44.8,5.4,44.9,5.5,44.9,5.6 M43.9,7.2
		C43.9,7.2,43.9,7.2,43.9,7.2c0-0.1-0.1-0.2-0.2-0.2C43.8,7.1,43.8,7.2,43.9,7.2"/>
	<path class="st1" d="M54.9,6c0-0.4-0.8,0.1-0.9,0.1C54,6.1,54,6,54,6c0.1-0.1,0.4-0.2,0.5-0.2c0-0.3,0-0.3-0.3-0.3c0,0,0-0.1,0-0.1
		c0.1-0.1,0.3-0.2,0.3-0.2c0-0.3,0-0.3-0.3-0.3c0-0.4-0.8,0.1-0.9,0.1c0-0.1-0.7-0.4-0.9-0.4v0.1c0,0,0,0,0,0c0-0.2,0-0.3-0.3-0.3
		c0-0.3-0.2-0.2-0.5-0.1c-0.1-0.2-0.3-0.1-0.5,0C50.8,4.2,50.4,4,50.3,4v0.1c0,0-0.1,0-0.1,0C50.1,4,49.9,4,49.9,4v0.1
		c-0.1,0-0.2,0.1-0.3,0.2c-0.2,0.1-0.3,0.2-0.4,0.2c0-0.1-0.7-0.4-0.9-0.4v0.1c-0.1,0-0.2,0.1-0.2,0.2c-0.2-0.1-0.7,0.2-0.8,0.2
		c0-0.1-0.7-0.4-0.9-0.4v0.1c-0.2,0-0.5,0.5-0.6,0.6c0.1,0.1,0.1,0.1,0.2,0.2c-0.3-0.1-0.7-0.3-0.7,0c-0.3,0-0.3,0-0.3,0.3
		c0,0,0.4,0.2,0.5,0.3c0,0,0,0,0,0.1c-0.1,0-0.9-0.5-0.9-0.1c-0.3,0-0.3,0-0.3,0.3c0,0,0.5,0.3,0.5,0.3c0.1,0,0.1,0,0.2,0
		c-0.1,0.1-0.2,0.3-0.2,0.3c0,0,0,0,0,0c-0.2,0.1-0.3,0.2-0.3,0.2c-0.1,0-0.9-0.5-0.9-0.1c-0.3,0-0.3,0-0.3,0.3c0,0,0.5,0.3,0.5,0.3
		c0.1,0,0.2,0,0.4,0c0,0,0,0.1,0,0.2c0,0,0.5,0.3,0.5,0.3c0.2,0,0.3,0,0.4,0c0,0,0,0.1,0,0.2c0,0,0.5,0.3,0.5,0.3
		c0.7,0,1.3,0.1,1.8,0.1c0,0,0-0.1,0.1-0.1c0.5,0,0.9,0.1,1.3,0.1c0,0,0,0,0-0.1c0,0,0,0.1,0,0.1c0.6,0,1.2-0.1,1.8-0.1
		c0,0,0.2-0.1,0.3-0.2C51.3,8,51.6,8,52,8c0,0,0.3-0.2,0.5-0.3c0.2,0,0.4,0,0.6,0c0,0,0.5-0.3,0.5-0.3c0-0.2,0-0.3-0.1-0.3
		c0.1-0.1,0.5-0.3,0.5-0.3c0-0.1,0-0.1,0-0.2c0.3,0,0.6-0.1,0.9-0.1c0,0,0.5-0.3,0.5-0.3C55.3,6,55.2,6,54.9,6 M45.8,6.7
		C45.8,6.7,45.8,6.7,45.8,6.7C45.8,6.7,45.8,6.7,45.8,6.7C45.8,6.7,45.8,6.7,45.8,6.7 M51.2,6.4L51.2,6.4L51.2,6.4
		C51.2,6.4,51.2,6.4,51.2,6.4 M51.2,5.5C51.2,5.5,51.3,5.5,51.2,5.5C51.3,5.5,51.3,5.5,51.2,5.5C51.3,5.5,51.3,5.5,51.2,5.5
		 M51.3,6.5C51.3,6.5,51.3,6.5,51.3,6.5C51.3,6.5,51.3,6.5,51.3,6.5C51.3,6.5,51.3,6.5,51.3,6.5 M51.7,5.3
		C51.7,5.3,51.8,5.3,51.7,5.3c0.1-0.1,0.1,0,0.1,0C51.8,5.3,51.7,5.3,51.7,5.3 M51.9,5C51.9,5,51.9,5,51.9,5L51.9,5
		c-0.1-0.1,0.1-0.2,0.2-0.3C52.1,4.8,52,4.9,51.9,5 M45.7,4.7C45.7,4.7,45.7,4.7,45.7,4.7c0-0.1-0.1-0.2-0.2-0.2
		C45.6,4.6,45.7,4.6,45.7,4.7 M44.7,6.4C44.7,6.4,44.7,6.4,44.7,6.4c0-0.1-0.1-0.2-0.2-0.2C44.6,6.2,44.6,6.3,44.7,6.4"/>
</g>
</svg>
